<?xml version="1.0" encoding="UTF-8"?>
<svg width="16px" height="15px" viewBox="0 0 16 15" version="1.1" xmlns="http://www.w3.org/2000/svg" xmlns:xlink="http://www.w3.org/1999/xlink">
    <!-- Generator: Sketch 54.1 (76490) - https://sketchapp.com -->
    <title>Group 23</title>
    <desc>Created with Sketch.</desc>
    <g id="Home" stroke="none" stroke-width="1" fill="none" fill-rule="evenodd">
        <g transform="translate(-135.000000, -3590.000000)" id="Group-25">
            <g transform="translate(135.000000, 3433.000000)">
                <g id="Group-24" transform="translate(0.000000, 157.000000)">
                    <g id="Group-23">
                        <g id="Group-8">
                            <path d="M16,9.25279286 L16,14.9572929 L12.5702222,14.9572929 L12.5702222,9.63529286 C12.5702222,8.29857857 12.0746667,7.38615 10.8333333,7.38615 C9.88533333,7.38615 9.322,8.00050714 9.07377778,8.59579286 C8.98355556,8.80836429 8.96,9.10386429 8.96,9.40172143 L8.96,14.9572929 L5.52955556,14.9572929 C5.52955556,14.9572929 5.57555556,5.94293571 5.52955556,5.00972143 L8.96,5.00972143 L8.96,6.41929286 C8.95311111,6.43022143 8.94355556,6.44115 8.93755556,6.45186429 L8.96,6.45186429 L8.96,6.41929286 C9.41577778,5.74300714 10.2291111,4.77615 12.0511111,4.77615 C14.3082222,4.77615 16,6.19750714 16,9.25279286" id="Fill-1" fill="#505D68"></path>
                            <g id="Group-5" transform="translate(0.000000, 0.171643)">
                                <polygon id="Clip-4" points="0 0.0426428571 3.85842222 0.0426428571 3.85842222 3.48042857 0 3.48042857"></polygon>
                                <path d="M1.94086667,0.0426428571 C0.767311111,0.0426428571 -2.22222222e-05,0.785142857 -2.22222222e-05,1.76121429 C-2.22222222e-05,2.71628571 0.745533333,3.48042857 1.89575556,3.48042857 L1.91842222,3.48042857 C3.11464444,3.48042857 3.85842222,2.71628571 3.85842222,1.76121429 C3.83597778,0.785142857 3.11464444,0.0426428571 1.94086667,0.0426428571" id="Fill-3" fill="#505D68"></path>
                            </g>
                            <polygon id="Fill-6" fill="#505D68" points="0.204 14.9573571 3.63288889 14.9573571 3.63288889 5.00978571 0.204 5.00978571"></polygon>
                        </g>
                    </g>
                </g>
            </g>
        </g>
    </g>
</svg>