<?xml version="1.0" encoding="UTF-8"?>
<svg width="19px" height="15px" viewBox="0 0 19 15" version="1.1" xmlns="http://www.w3.org/2000/svg" xmlns:xlink="http://www.w3.org/1999/xlink">
    <!-- Generator: Sketch 54.1 (76490) - https://sketchapp.com -->
    <title>Twitter</title>
    <desc>Created with Sketch.</desc>
    <g id="Home" stroke="none" stroke-width="1" fill="none" fill-rule="evenodd">
        <g transform="translate(-166.000000, -3590.000000)" fill="#505D68" id="Group-25">
            <g transform="translate(135.000000, 3433.000000)">
                <g id="Group-24" transform="translate(0.000000, 157.000000)">
                    <g id="Twitter" transform="translate(31.000000, 0.000000)">
                        <path d="M15.1885886,2.47125881 L15.1543544,2.44666917 C14.4468468,1.72127479 13.6138138,1.37701983 12.6552553,1.42619911 L12.621021,1.35243019 L12.6438438,1.34013537 C13.5111111,1.13112344 14.0246246,0.909816676 14.1843844,0.663920277 C14.23003,0.467203158 14.172973,0.356549779 13.978979,0.331960139 C13.5453453,0.393434238 13.1345345,0.491792798 12.7807808,0.651625457 C13.2372372,0.331960139 13.4084084,0.11065338 13.3057057,0 C12.8606607,0.01229482 12.36997,0.258191219 11.8678679,0.749984017 C12.0504505,0.405729058 12.1303303,0.209011939 12.0846847,0.184422299 C11.8336336,0.356549779 11.6282282,0.553266898 11.4456456,0.762278837 C11.0576577,1.229482 10.7495495,1.65980069 10.5099099,2.05323493 L10.4984985,2.07782457 C9.89369369,3.14747391 9.46006006,4.21712324 9.20900901,5.31136222 L9.11771772,5.39742596 L9.09489489,5.40972078 C8.72972973,4.91792798 8.28468468,4.4999041 7.75975976,4.16794396 C7.14354354,3.72533045 6.41321321,3.31960139 5.56876877,2.91387233 C4.65585586,2.39748989 3.72012012,1.97946601 2.78438438,1.64750587 C2.77297297,2.79092413 3.2978979,3.68844599 4.31351351,4.35236626 L4.31351351,4.36466108 C3.95975976,4.36466108 3.60600601,4.42613518 3.26366366,4.53678856 C3.33213213,5.59414308 4.02822823,6.31953745 5.34054054,6.71297169 L5.32912913,6.73756133 C4.81561562,6.70067687 4.39339339,6.89739399 4.06246246,7.30312305 C4.4960961,8.21293973 5.26066066,8.64325843 6.36756757,8.61866879 C6.15075075,8.74161698 5.97957958,8.86456518 5.86546547,9.01210302 C5.66006006,9.2457046 5.59159159,9.51619064 5.66006006,9.82356114 C5.8996997,10.2907643 6.32192192,10.4997762 6.94954955,10.4628918 L6.98378378,10.5120711 L6.97237237,10.5366607 C5.88828829,11.7415531 4.57597598,12.2825251 3.04684685,12.1718718 L3.02402402,12.1841666 C2.08828829,12.1718718 1.08408408,11.6923738 0,10.7333778 C1.08408408,12.4177682 2.53333333,13.6349553 4.32492492,14.409529 C6.36756757,15.1349234 8.42162162,15.1963975 10.4642643,14.5693616 L10.4984985,14.5693616 C12.4840841,13.9546206 14.1615616,12.6759594 15.5537538,10.7579675 C16.1927928,9.76208704 16.5921922,8.80309108 16.751952,7.88097959 C17.7903904,7.91786405 18.5321321,7.59819873 19,6.90968881 L18.9885886,6.88509917 C18.6348348,7.02034219 17.9615616,6.98345773 16.9687688,6.76215097 L16.9687688,6.63920277 C18.0642643,6.50395975 18.7147147,6.12282034 18.9201201,5.49578452 C18.1555556,5.81544984 17.4024024,5.82774466 16.6606607,5.52037416 C16.5237237,4.41384036 16.033033,3.39337031 15.1885886,2.47125881" id="Mask"></path>
                    </g>
                </g>
            </g>
        </g>
    </g>
</svg>