<?xml version="1.0" encoding="UTF-8"?>
<svg width="100px" height="42px" viewBox="0 0 100 42" version="1.1" xmlns="http://www.w3.org/2000/svg" xmlns:xlink="http://www.w3.org/1999/xlink">
    <!-- Generator: Sketch 54.1 (76490) - https://sketchapp.com -->
    <title>clients-2</title>
    <desc>Created with Sketch.</desc>
    <g id="Page-1" stroke="none" stroke-width="1" fill="none" fill-rule="evenodd">
        <g id="clients-2" fill="#FEFEFE" fill-rule="nonzero">
            <path d="M8.01526718,0.66211 C11.1757169,0.66211 13.740458,2.91939459 13.740458,5.70370501 C13.740458,8.48679262 11.1757169,10.7440772 8.01526718,10.7440772 C4.85481742,10.7440772 2.29007634,8.48679262 2.29007634,5.70370501 C2.29007634,2.91939459 4.85481742,0.66211 8.01526718,0.66211" id="Fill-63"></path>
            <path d="M0,12.7604707 L14.5038168,12.7604707 L14.5038168,15.0576887 C12.9394272,15.536226 11.8996639,16.4276659 11.8345939,17.7379752 L11.8345939,29.0581882 C11.8996639,30.589269 13.1427707,31.2038494 14.5038168,31.3005116 L14.5038168,33.5965362 L0,33.5965362 L0,31.3005116 C1.44509475,31.0272322 2.55263922,30.2789954 2.71938092,29.0581882 L2.71938092,17.7367818 C2.62177602,16.6066699 1.5115203,15.7140367 0,15.0576887 L0,12.7604707 Z" id="Fill-64"></path>
            <path d="M16.7938931,15.3226627 L16.7938931,12.9758987 L28.1572682,12.9758987 L28.1572682,16.1077619 C34.1952195,10.0342148 44.3326076,12.8125396 44.4740149,19.7406745 L44.4740149,28.5974227 C44.5385405,30.1859076 45.4913232,31.2952869 47.3282443,31.9158079 L47.3282443,34.2613528 L33.0090463,34.2613528 L33.0090463,31.9145888 C34.9393236,31.1709389 35.8454282,30.066436 35.7314787,28.5974227 L35.7314787,20.5525938 C35.1850701,16.8002097 28.8615585,16.8002097 28.4194893,20.5525938 L28.4194893,29.6251224 C28.759965,30.8881081 29.7498156,31.5147246 31.2325322,31.9158079 L31.2325322,34.2686674 L16.7938931,34.2613528 L16.7938931,31.9158079 C18.249152,31.5756795 19.210172,31.084383 19.521817,29.6251224 L19.521817,19.0591986 C19.5849698,16.8282489 18.9314762,16.084599 16.7938931,15.3226627" id="Fill-65"></path>
            <path d="M62.7188494,23.3631549 C61.0005882,24.2183386 59.4969398,24.5275576 57.1212569,25.3501283 C54.8542387,26.375624 54.7958314,28.6138377 55.6828074,29.9280183 C57.0302502,31.9935043 62.4879369,30.9668007 62.7188494,27.7719408 L62.7188494,23.3631549 Z M56.0794337,20.1127322 L49.7361294,20.1127322 C49.7361294,17.7344036 49.7361294,15.3512435 49.7374877,12.9704991 L52.9077815,12.9704991 C53.221551,13.6916073 53.5353204,14.4139235 53.8504482,15.1350318 L54.8922714,15.1350318 C61.0073797,9.04969934 71.8005053,12.9233915 71.5397099,19.3626347 C71.5736676,22.3304119 71.6035504,25.2993971 71.6375081,28.2659664 C71.7706225,30.0101546 72.8273871,31.166102 74.8091603,31.7374324 L74.8091603,34.0601982 L63.5623595,34.0601982 C63.2485901,33.6857534 62.9348206,33.3101006 62.6196929,32.9356558 C55.9259447,35.8225047 46.4558125,33.8234524 46.5658355,28.8372968 C46.5142198,24.0407793 50.8295683,21.530791 55.386696,21.4788519 C60.8280829,21.5452857 63.6859656,20.2371445 62.1252683,17.3817007 C61.557495,15.9636419 56.173157,14.8173576 56.0794337,20.1127322 L56.0794337,20.1127322 Z" id="Fill-66"></path>
            <path d="M94.5443043,24.2420872 L100,24.2420872 C97.6168952,37.880618 74.4192443,35.6805086 74.0580849,23.6145071 C73.6326281,14.9560504 84.3511276,10.5773077 91.9696756,12.6151531 C94.139368,13.5016397 95.8124663,13.6316896 96.7577736,12.6604916 C97.0163309,12.006663 98.9602987,11.8133779 99.2284322,12.6151531 L99.2284322,18.8563529 C96.827543,18.9601542 94.4239178,19.0651485 92.0216606,19.1689498 C91.4101521,12.7249199 83.2320807,13.5302745 82.858609,19.3479175 C82.3592788,24.9090401 83.3620434,28.4251586 86.5659649,28.9549029 C90.3540345,29.4500469 93.1256593,27.9765462 94.5443043,24.2420872" id="Fill-67"></path>
            <path d="M94.7816625,9.31434159 L94.6977313,8.65569421 C94.86424,8.69717391 95.0063816,8.71728528 95.1309247,8.71728528 C95.2987871,8.71728528 95.4328063,8.69214606 95.534336,8.63935372 C95.6358657,8.58781833 95.7157358,8.51617157 95.7820685,8.42064256 C95.829449,8.35276669 95.9066116,8.17804915 96.0108488,7.90026085 C96.0257398,7.86003811 96.0501069,7.80473184 96.0785352,7.72805724 L94.3877273,3.58008705 L95.2026723,3.58008705 L96.1299769,5.97836799 C96.2504589,6.28255247 96.3587572,6.60182048 96.4521645,6.93617202 C96.5415107,6.61439009 96.6443941,6.30140688 96.7635223,5.99219456 L97.7165477,3.58008705 L98.4732824,3.58008705 L96.7784133,7.78964831 C96.5943061,8.24592503 96.4521645,8.55890823 96.3533423,8.72859792 C96.2193231,8.96239261 96.0649979,9.13082534 95.8917206,9.23766699 C95.7157358,9.34576561 95.5099689,9.39981492 95.2690051,9.39981492 C95.124156,9.39981492 94.9617085,9.37216178 94.7816625,9.31434159 L94.7816625,9.31434159 Z M85.0673007,5.64150253 C84.7911399,5.74834419 84.3809599,5.83381752 83.8326996,5.90672123 C83.5226955,5.94820094 83.3033914,5.99470848 83.1747871,6.04750083 C83.0448291,6.09903622 82.9446531,6.17571082 82.8756129,6.27626767 C82.8065727,6.37682452 82.770022,6.48743706 82.770022,6.60936224 C82.770022,6.79539242 82.8485383,6.95125555 83.000156,7.07820857 C83.1517737,7.20139072 83.375139,7.26298179 83.6688983,7.26298179 C83.9613038,7.26298179 84.2185124,7.20641856 84.4459389,7.0870073 C84.6720118,6.96759603 84.8398742,6.80544811 84.9454651,6.60182048 C85.0266888,6.44344344 85.0673007,6.20713483 85.0673007,5.89917947 L85.0673007,5.64150253 Z M85.130926,7.21018944 C84.850704,7.43015756 84.5813119,7.58602068 84.3213959,7.67652185 C84.0628335,7.76953694 83.785319,7.81478752 83.4888523,7.81478752 C82.9988023,7.81478752 82.6238192,7.70166106 82.359842,7.48043598 C82.0958648,7.25795395 81.9645531,6.97388084 81.9645531,6.62947362 C81.9645531,6.42458903 82.0132873,6.24107277 82.114817,6.07138308 C82.2136393,5.90420731 82.3435973,5.76971252 82.5046911,5.67041263 C82.6671386,5.56985578 82.8471846,5.49192422 83.0488903,5.44038883 C83.195093,5.40519393 83.4198121,5.36748511 83.7189863,5.33354717 C84.3281645,5.26692826 84.7789564,5.18648277 85.0673007,5.09221072 C85.0700082,4.99668171 85.0727156,4.9363476 85.0727156,4.90995143 C85.0727156,4.6233644 84.9996143,4.41973677 84.8561189,4.30661031 C84.6652431,4.14571934 84.3768988,4.06778778 83.9965008,4.06778778 C83.6418237,4.06778778 83.3792002,4.12435101 83.2072766,4.24124835 C83.0380604,4.35688874 82.9148711,4.56177332 82.8336473,4.85590212 L82.0958648,4.76037311 C82.1635513,4.46875823 82.2732033,4.22993571 82.4261748,4.05019033 C82.5791462,3.86793104 82.8025115,3.72966536 83.0949171,3.63287939 C83.3859689,3.5335795 83.7230475,3.485815 84.1061529,3.485815 C84.4879046,3.485815 84.7952011,3.52855166 85.0334575,3.61151106 C85.2717139,3.69447047 85.4463449,3.7987982 85.5600582,3.92449427 C85.6724177,4.05144729 85.7482266,4.20982434 85.7928997,4.40339628 C85.8186205,4.52280754 85.8321578,4.73649086 85.8321578,5.04947406 L85.8321578,5.9846528 C85.8321578,6.6395293 85.8470488,7.05055544 85.8808921,7.22275905 C85.9106741,7.39496266 85.9756531,7.56088147 86.0690604,7.71925851 L85.2798362,7.71925851 C85.2040274,7.57470803 85.1525857,7.40376138 85.130926,7.21018944 L85.130926,7.21018944 Z M72.5480117,7.71925851 L72.5480117,7.11214651 C72.1987495,7.57973588 71.7276517,7.81478752 71.1320108,7.81478752 C70.8720948,7.81478752 70.6230086,7.76702302 70.3955821,7.67400793 C70.1668018,7.57973588 69.9989394,7.46158157 69.8879336,7.32205894 C69.7769277,7.17876543 69.6997652,7.00530485 69.6537384,6.80042027 C69.6253101,6.66215459 69.6090653,6.4447004 69.6090653,6.14554376 L69.6090653,3.58008705 L70.3644463,3.58008705 L70.3644463,5.87655418 C70.3644463,6.24358669 70.380691,6.48995098 70.4104731,6.61690401 C70.4592073,6.80167723 70.5593833,6.9462277 70.7137085,7.0518124 C70.8680336,7.15739709 71.0602632,7.21018944 71.2849822,7.21018944 C71.5124088,7.21018944 71.7235905,7.15488317 71.9225888,7.04804152 C72.121587,6.9399429 72.2610211,6.79162154 72.3435986,6.60810528 C72.4275298,6.42081815 72.4694954,6.15182856 72.4694954,5.79862262 L72.4694954,3.58008705 L73.2235227,3.58008705 L73.2235227,7.71925851 L72.5480117,7.71925851 Z M57.5175548,5.57614058 C57.5175548,6.11914759 57.6339755,6.51383323 57.866817,6.76522537 C58.0996584,7.01410358 58.3893565,7.13854268 58.7399724,7.13854268 C59.0865271,7.13854268 59.3789326,7.01410358 59.6131278,6.76899625 C59.8486767,6.51760412 59.9650974,6.13046023 59.9650974,5.60002283 C59.9650974,5.09221072 59.8446155,4.71135164 59.602298,4.45367471 C59.3599804,4.19725473 59.0689286,4.06778778 58.7264351,4.06778778 C58.3907102,4.06778778 58.1050733,4.19474081 57.8681707,4.4473899 C57.6353292,4.70129596 57.5175548,5.0771272 57.5175548,5.57614058 L57.5175548,5.57614058 Z M56.8921318,8.06366573 L57.6285606,8.16547955 C57.6569889,8.37413502 57.7449813,8.52874118 57.8830617,8.62552715 C58.0698764,8.7549941 58.3270849,8.81909909 58.6506262,8.81909909 C59.0012421,8.81909909 59.271988,8.7549941 59.4615101,8.62552715 C59.652386,8.49354628 59.7809902,8.31128698 59.8486767,8.08000622 C59.8879349,7.93671271 59.9041796,7.63629911 59.9014722,7.17876543 C59.5725159,7.53825618 59.1609822,7.71925851 58.6682247,7.71925851 C58.0549853,7.71925851 57.5811801,7.51563088 57.2454552,7.10334779 C56.9083766,6.69357861 56.7391604,6.19959307 56.7391604,5.62641901 C56.7391604,5.23173336 56.8190304,4.86721477 56.9706481,4.53286323 C57.1276807,4.19976865 57.3483386,3.94209172 57.6420979,3.75857546 C57.9345034,3.57757312 58.2783507,3.485815 58.6722859,3.485815 C59.1975329,3.485815 59.63208,3.68441478 59.9732198,4.08035739 L59.9732198,3.58008705 L60.6717442,3.58008705 L60.6717442,7.15865405 C60.6717442,7.80221791 60.5999965,8.26100856 60.4592087,8.52999814 C60.3184208,8.79898772 60.0950555,9.01015711 59.7864052,9.16602023 C59.4804623,9.32188336 59.1027718,9.39981492 58.6546874,9.39981492 C58.1240255,9.39981492 57.6948933,9.28794542 57.3659371,9.06672034 C57.0369809,8.84549527 56.8799483,8.50988677 56.8921318,8.06366573 L56.8921318,8.06366573 Z M47.3591698,7.71925851 L47.3591698,7.11214651 C47.0099076,7.57973588 46.5388098,7.81478752 45.9431689,7.81478752 C45.6805454,7.81478752 45.4341666,7.76702302 45.2067401,7.67400793 C44.9779598,7.57973588 44.8100974,7.46158157 44.6990916,7.32205894 C44.5867321,7.17876543 44.5082158,7.00530485 44.4648964,6.80042027 C44.4364681,6.66215459 44.4202233,6.4447004 44.4202233,6.14554376 L44.4202233,3.58008705 L45.1742506,3.58008705 L45.1742506,5.87655418 C45.1742506,6.24358669 45.1904953,6.48995098 45.2202774,6.61690401 C45.2690117,6.80167723 45.3705414,6.9462277 45.5235128,7.0518124 C45.6778379,7.15739709 45.86736,7.21018944 46.0947866,7.21018944 C46.3208594,7.21018944 46.5320411,7.15488317 46.7323931,7.04804152 C46.9313913,6.9399429 47.0735329,6.79162154 47.1520492,6.60810528 C47.2373341,6.42081815 47.2792997,6.15182856 47.2792997,5.79862262 L47.2792997,3.58008705 L48.033327,3.58008705 L48.033327,7.71925851 L47.3591698,7.71925851 Z M33.7528361,7.71925851 L33.7528361,3.58008705 L34.4310545,3.58008705 L34.4310545,4.20731042 C34.6056856,3.91443858 34.7640719,3.72086664 34.9116284,3.62785155 C35.0591849,3.5335795 35.2216324,3.485815 35.3962635,3.485815 C35.6521184,3.485815 35.9106807,3.56123264 36.1746579,3.71206792 L35.9133881,4.3644305 C35.7292809,4.26261669 35.54382,4.2110813 35.3583591,4.2110813 C35.1918504,4.2110813 35.0456476,4.2588458 34.9129821,4.35060393 C34.7830241,4.4411051 34.6882631,4.57057205 34.6327602,4.73271997 C34.548829,4.98285515 34.5082171,5.25561561 34.5082171,5.55225833 L34.5082171,7.71925851 L33.7528361,7.71925851 Z M23.8719656,2.0063723 L24.6882644,2.0063723 L24.6882644,5.30840796 C24.6882644,5.88283898 24.6178705,6.33785874 24.4770826,6.6747242 C24.3376485,7.01410358 24.0845011,7.288121 23.7189942,7.49929039 C23.354841,7.71297371 22.8756208,7.8185584 22.2813336,7.8185584 C21.7059986,7.8185584 21.2321934,7.72554331 20.8666864,7.5407701 C20.4998258,7.35725384 20.238556,7.08826426 20.0815234,6.73882919 C19.9244908,6.38939413 19.8473282,5.91300604 19.8473282,5.30840796 L19.8473282,2.0063723 L20.6595659,2.0063723 L20.6595659,5.30463708 C20.6595659,5.79987958 20.7096538,6.16565513 20.8084761,6.39944981 C20.9086521,6.63575842 21.0819294,6.81676075 21.3215395,6.94371378 C21.5638571,7.07318073 21.8603238,7.13602876 22.2109397,7.13602876 C22.8092881,7.13602876 23.2357128,7.00907574 23.4915676,6.7576836 C23.744715,6.50503451 23.8719656,6.02236162 23.8719656,5.30463708 L23.8719656,2.0063723 Z" id="Fill-68"></path>
            <path d="M96.5596253,40.7519407 L97.0990948,40.6782716 C97.1275593,40.8683853 97.2115973,41.0145352 97.3525642,41.1143449 C97.4908202,41.216531 97.6832943,41.2664359 97.9340527,41.2664359 C98.1834557,41.2664359 98.370508,41.2224721 98.4911431,41.1321681 C98.6144892,41.0418641 98.674129,40.9349251 98.674129,40.8172922 C98.674129,40.7091651 98.6212664,40.6236139 98.5114749,40.5606387 C98.4382805,40.5178632 98.2512283,40.4643937 97.9543845,40.3990421 C97.5545264,40.3099263 97.2753035,40.2326926 97.1207821,40.1685292 C96.9662606,40.1031777 96.8496918,40.0152501 96.7683648,39.8999936 C96.6897486,39.7847372 96.6490851,39.6587869 96.6490851,39.5209544 C96.6490851,39.3938159 96.6829714,39.2785595 96.748033,39.1716205 C96.8130947,39.0634933 96.9025544,38.9743776 97.0164123,38.9030849 C97.1004503,38.8484272 97.2170191,38.8008988 97.3634078,38.7640643 C97.5097965,38.7248533 97.6683843,38.7046537 97.8351048,38.7046537 C98.0885741,38.7046537 98.3095127,38.7391118 98.5019867,38.802087 C98.6931053,38.8662504 98.8354277,38.9506133 98.9262429,39.0611169 C99.0157027,39.1716205 99.0794089,39.3165822 99.1132952,39.4971902 L98.5806029,39.5625418 C98.5548493,39.4187683 98.4843659,39.3058883 98.3691525,39.2227136 C98.2512283,39.1431035 98.0885741,39.0991397 97.8757683,39.0991397 C97.6250099,39.0991397 97.4447349,39.1371624 97.3390097,39.2096433 C97.2305736,39.2821241 97.177711,39.3664871 97.177711,39.4651085 C97.177711,39.5268955 97.1993982,39.5827414 97.2454836,39.6326462 C97.2902134,39.6849275 97.3593415,39.7265149 97.454223,39.760973 C97.5084411,39.7776079 97.6683843,39.8180071 97.9367636,39.8833587 C98.3230672,39.9736627 98.5928019,40.0473318 98.7446125,40.1043659 C98.8977784,40.1625882 99.0170581,40.2457629 99.1051625,40.3550783 C99.1919113,40.4679583 99.2366412,40.6022261 99.2366412,40.765011 C99.2366412,40.9254194 99.1824232,41.0739457 99.076698,41.2177192 C98.9682619,41.3579281 98.8164514,41.4684317 98.6172001,41.5444771 C98.4165933,41.6205226 98.190233,41.6597336 97.9367636,41.6597336 C97.5165738,41.6597336 97.1980428,41.5836881 96.9784597,41.4315971 C96.7575212,41.278318 96.6192652,41.0525579 96.5596253,40.7519407 L96.5596253,40.7519407 Z M92.7643622,39.9106875 L94.5644013,39.9106875 C94.5413586,39.6754218 94.4722306,39.4948138 94.3583727,39.377181 C94.1835195,39.1930083 93.9585146,39.0991397 93.6820026,39.0991397 C93.4312442,39.0991397 93.2197938,39.1739969 93.049007,39.3213351 C92.8782201,39.4686732 92.7833385,39.6647279 92.7643622,39.9106875 L92.7643622,39.9106875 Z M94.557624,40.6842126 L95.1214917,40.7471878 C95.0333874,41.035923 94.8693778,41.261683 94.6294629,41.4209032 C94.3868372,41.5801235 94.0805052,41.6597336 93.7064007,41.6597336 C93.2347038,41.6597336 92.8605993,41.5314068 92.5854427,41.278318 C92.3075752,41.0240409 92.1706746,40.6675777 92.1706746,40.206552 C92.1706746,39.7312677 92.3102861,39.3617342 92.5881536,39.0991397 C92.868732,38.8377333 93.229282,38.7046537 93.6779363,38.7046537 C94.1076143,38.7046537 94.4586761,38.8353569 94.7311218,39.0931986 C95.0049229,39.3498521 95.1418235,39.7122564 95.1418235,40.1780349 C95.1418235,40.206552 95.140468,40.2493276 95.1391126,40.3051735 L92.7345423,40.3051735 C92.7548741,40.6164846 92.8565329,40.8541268 93.0354524,41.019288 C93.2157274,41.1820729 93.4407323,41.2664359 93.7077562,41.2664359 C93.908363,41.2664359 94.0805052,41.2212839 94.2214722,41.1274152 C94.3637945,41.0347348 94.476297,40.8897731 94.557624,40.6842126 L94.557624,40.6842126 Z M87.9294682,41.5955702 L87.9294682,38.7700053 L88.4201415,38.7700053 L88.4201415,39.1728087 C88.6573454,38.8614975 88.9989191,38.7046537 89.4462179,38.7046537 C89.6414029,38.7046537 89.818967,38.7367354 89.9802657,38.7973342 C90.1456307,38.8591211 90.2649104,38.9387312 90.3475929,39.0397291 C90.4302754,39.1383506 90.4858489,39.2559835 90.5170243,39.3914395 C90.5387115,39.4829317 90.5481997,39.6373991 90.5481997,39.8584063 L90.5481997,41.5955702 L90.0005974,41.5955702 L90.0005974,39.8774176 C90.0005974,39.6837393 89.9802657,39.5375894 89.9368912,39.4389679 C89.8948723,39.3427228 89.818967,39.2666774 89.7118864,39.208455 C89.6020948,39.1490445 89.4760379,39.1217157 89.3296491,39.1217157 C89.0965116,39.1217157 88.8972602,39.1870673 88.7291843,39.315394 C88.5597529,39.444909 88.4743595,39.6896804 88.4743595,40.0532728 L88.4743595,41.5955702 L87.9294682,41.5955702 Z M84.8864804,41.5955702 L84.8864804,38.7700053 L85.3771537,38.7700053 L85.3771537,39.1977611 C85.5032107,38.9981418 85.618424,38.8662504 85.7241492,38.802087 C85.8312299,38.7391118 85.9477987,38.7046537 86.0752111,38.7046537 C86.2595524,38.7046537 86.4466047,38.7581232 86.6377233,38.8603093 L86.4479601,39.3058883 C86.3164814,39.2357839 86.1809362,39.2013258 86.048102,39.2013258 C85.9274669,39.2013258 85.8217417,39.2322193 85.7255047,39.2951944 C85.6306231,39.3581696 85.5628505,39.4460972 85.522187,39.557789 C85.4611917,39.7288913 85.4313718,39.9142522 85.4313718,40.116248 L85.4313718,41.5955702 L84.8864804,41.5955702 Z M82.5252846,40.1780349 C82.3273888,40.2493276 82.0278341,40.3087381 81.6333978,40.3586429 C81.4083929,40.38716 81.2484497,40.4192417 81.156279,40.454888 C81.0641084,40.4881579 80.9922694,40.5416274 80.9421178,40.6105436 C80.8906106,40.6794598 80.8635016,40.7531289 80.8635016,40.8374918 C80.8635016,40.9658186 80.9204305,41.0727575 81.0315775,41.1571205 C81.1386582,41.2414834 81.3013123,41.284259 81.5141181,41.284259 C81.724213,41.284259 81.9112653,41.2450481 82.0752749,41.1642497 C82.2392845,41.0822632 82.3599196,40.9729478 82.4371803,40.8315508 C82.4954647,40.7246118 82.5252846,40.5642034 82.5252846,40.3527019 L82.5252846,40.1780349 Z M82.57137,41.2474245 C82.3680523,41.3983272 82.1742228,41.504078 81.9871706,41.5670531 C81.7987628,41.6288401 81.5981561,41.6597336 81.3839948,41.6597336 C81.0302221,41.6597336 80.7577764,41.5848763 80.5680133,41.4327853 C80.3782501,41.2806944 80.2820131,41.0870161 80.2820131,40.8517503 C80.2820131,40.7127297 80.3186102,40.5855912 80.3904492,40.4727112 C80.4609326,40.3562665 80.5558142,40.2659625 80.6710275,40.1958581 C80.7889518,40.1281301 80.9190751,40.0746606 81.0654638,40.0390143 C81.1725444,40.0152501 81.3351986,39.9902976 81.5507153,39.9677216 C81.9925924,39.9213814 82.3179006,39.8679119 82.5252846,39.8025604 C82.5266401,39.7372088 82.5266401,39.6944332 82.5266401,39.6789865 C82.5266401,39.4829317 82.4764884,39.3450993 82.3734741,39.2666774 C82.2338627,39.157362 82.0251232,39.1015161 81.7513221,39.1015161 C81.4951418,39.1015161 81.3053786,39.1431035 81.1820326,39.2215254 C81.060042,39.2999473 80.9692268,39.4401561 80.9082315,39.6397755 L80.3782501,39.5768003 C80.4256909,39.3759927 80.5043071,39.2132079 80.615454,39.0920104 C80.726601,38.9684365 80.8878997,38.8721914 81.0993501,38.8056516 C81.309445,38.7391118 81.5520707,38.7046537 81.8299382,38.7046537 C82.1050948,38.7046537 82.3300997,38.7355472 82.4995311,38.7913931 C82.6716734,38.8484272 82.8004412,38.9209081 82.8804128,39.005271 C82.9617399,39.0931986 83.0173134,39.2001376 83.0498442,39.3332172 C83.0688205,39.4140155 83.0769532,39.5601654 83.0769532,39.7728551 L83.0769532,40.4121124 C83.0769532,40.8576914 83.0891523,41.1392973 83.112195,41.255742 C83.1365931,41.3733748 83.1826784,41.487443 83.2518064,41.5955702 L82.6784506,41.5955702 C82.6228771,41.4969487 82.5849245,41.3805041 82.57137,41.2474245 L82.57137,41.2474245 Z M78.2556137,40.2279398 L78.8452349,40.3586429 C78.7218889,40.7816459 78.4995949,41.1048392 78.178353,41.3282228 C77.8584665,41.5516064 77.4653857,41.66211 77.0018214,41.66211 C76.5219917,41.66211 76.1329773,41.5765588 75.8320671,41.4066447 C75.531157,41.2343542 75.3020857,40.9860182 75.1475643,40.6628249 C74.990332,40.3360669 74.9117158,39.9879212 74.9117158,39.6160113 C74.9117158,39.2096433 74.9998201,38.8555565 75.1773842,38.553751 C75.3522374,38.2519455 75.6057068,38.0202444 75.9323705,37.8634006 C76.2590342,37.7065568 76.6182288,37.6293231 77.0099541,37.6293231 C77.4558975,37.6293231 77.8313575,37.7279446 78.1336231,37.927564 C78.4372441,38.1259952 78.6500499,38.4040364 78.7679742,38.7652525 L78.1891966,38.88645 C78.0848268,38.6000912 77.9370827,38.3945308 77.7391868,38.2650158 C77.5440019,38.1355008 77.2959543,38.0701493 76.9977551,38.0701493 C76.6561814,38.0701493 76.3715367,38.1426301 76.1424654,38.2864036 C75.9133942,38.4301771 75.7507401,38.6226672 75.6572139,38.8650622 C75.5663987,39.1062689 75.5189579,39.354605 75.5189579,39.6136349 C75.5189579,39.9451456 75.5745314,40.2338808 75.6829675,40.4822168 C75.7941145,40.7281764 75.9649013,40.9147255 76.1980389,41.0371112 C76.4311765,41.1606851 76.6832904,41.2224721 76.9543806,41.2224721 C77.2837552,41.2224721 77.5616227,41.1369209 77.790694,40.9717596 C78.0211206,40.8042219 78.1756421,40.5558859 78.2556137,40.2279398 L78.2556137,40.2279398 Z M69.6878073,39.9106875 L71.4878463,39.9106875 C71.4634482,39.6754218 71.3943202,39.4948138 71.2818178,39.377181 C71.10832,39.1930083 70.8806043,39.0991397 70.6054477,39.0991397 C70.3533338,39.0991397 70.1432389,39.1739969 69.972452,39.3213351 C69.8003097,39.4686732 69.7054282,39.6647279 69.6878073,39.9106875 L69.6878073,39.9106875 Z M71.4810691,40.6842126 L72.0449367,40.7471878 C71.9568324,41.035923 71.7914674,41.261683 71.5501971,41.4209032 C71.3089268,41.5801235 71.0039503,41.6597336 70.6284904,41.6597336 C70.1567934,41.6597336 69.7826889,41.5314068 69.5061768,41.278318 C69.2310203,41.0240409 69.0914088,40.6675777 69.0914088,40.206552 C69.0914088,39.7312677 69.2337312,39.3617342 69.5102432,39.0991397 C69.7908216,38.8377333 70.1540825,38.7046537 70.597315,38.7046537 C71.0283484,38.7046537 71.3807657,38.8353569 71.6532114,39.0931986 C71.9270125,39.3498521 72.0652685,39.7122564 72.0652685,40.1780349 C72.0652685,40.206552 72.0625576,40.2493276 72.0612022,40.3051735 L69.6566319,40.3051735 C69.6783191,40.6164846 69.7772671,40.8541268 69.9588975,41.019288 C70.1391725,41.1820729 70.3628219,41.2664359 70.6312013,41.2664359 C70.831808,41.2664359 71.0039503,41.2212839 71.1449172,41.1274152 C71.2858841,41.0347348 71.3983866,40.8897731 71.4810691,40.6842126 L71.4810691,40.6842126 Z M65.2148187,40.1851642 C65.2148187,40.5475684 65.3015675,40.8184805 65.4750653,40.9979003 C65.6499185,41.1761319 65.8545916,41.2664359 66.0917955,41.2664359 C66.3289995,41.2664359 66.5323171,41.1796965 66.7003931,41.0097824 C66.8671136,40.83868 66.9497961,40.5772737 66.9497961,40.2255633 C66.9497961,39.8382067 66.8657581,39.5554125 66.6949713,39.3748045 C66.5255399,39.1930083 66.3168004,39.1015161 66.0673974,39.1015161 C65.8247717,39.1015161 65.6228094,39.1906319 65.4587999,39.3629224 C65.2961457,39.5375894 65.2148187,39.8108778 65.2148187,40.1851642 L65.2148187,40.1851642 Z M66.9416634,41.5955702 L66.9416634,41.239107 C66.7383457,41.5195247 66.4360801,41.6597336 66.0402884,41.6597336 C65.7841081,41.6597336 65.5482596,41.5979466 65.3313875,41.4731845 C65.1172262,41.3496106 64.9491503,41.1761319 64.8298706,40.9527483 C64.7119463,40.7293647 64.6523065,40.4750876 64.6523065,40.1851642 C64.6523065,39.9035583 64.7065245,39.6469048 64.8122497,39.4187683 C64.9220412,39.1882555 65.0819845,39.0124003 65.2961457,38.892391 C65.510307,38.7676289 65.7515773,38.7046537 66.0172457,38.7046537 C66.2097198,38.7046537 66.3818621,38.7438647 66.5336726,38.8127809 C66.6854831,38.8876382 66.8101846,38.9791304 66.9050662,39.0943868 L66.9050662,37.6958629 L67.4472466,37.6958629 L67.4472466,41.5955702 L66.9416634,41.5955702 Z M61.1769298,41.5955702 L61.7218212,41.5955702 L61.7218212,37.6958629 L61.1769298,37.6958629 L61.1769298,41.5955702 Z M58.8238667,40.1780349 C58.6246154,40.2493276 58.3277716,40.3087381 57.9306245,40.3586429 C57.706975,40.38716 57.5483873,40.4192417 57.4535057,40.454888 C57.3626905,40.4881579 57.2881406,40.5416274 57.2393444,40.6105436 C57.1891927,40.6794598 57.1634391,40.7531289 57.1634391,40.8374918 C57.1634391,40.9658186 57.2190126,41.0727575 57.3301596,41.1571205 C57.4372403,41.2414834 57.5998944,41.284259 57.8127002,41.284259 C58.0227951,41.284259 58.2112028,41.2450481 58.373857,41.1642497 C58.5378666,41.0822632 58.6598572,40.9729478 58.7357624,40.8315508 C58.7954023,40.7246118 58.8238667,40.5642034 58.8238667,40.3527019 L58.8238667,40.1780349 Z M58.8685966,41.2474245 C58.6666344,41.3983272 58.470094,41.504078 58.2843972,41.5670531 C58.0959895,41.6288401 57.8980936,41.6597336 57.6812215,41.6597336 C57.3288042,41.6597336 57.0550031,41.5848763 56.8652399,41.4327853 C56.6754768,41.2806944 56.5805952,41.0870161 56.5805952,40.8517503 C56.5805952,40.7127297 56.6158369,40.5855912 56.6890313,40.4727112 C56.7608702,40.3562665 56.8543963,40.2659625 56.9696096,40.1958581 C57.0888893,40.1281301 57.2190126,40.0746606 57.3640459,40.0390143 C57.4697711,40.0152501 57.6324252,39.9902976 57.8492974,39.9677216 C58.2911745,39.9213814 58.6164827,39.8679119 58.8238667,39.8025604 C58.8252222,39.7372088 58.8265776,39.6944332 58.8265776,39.6789865 C58.8265776,39.4829317 58.7737151,39.3450993 58.6720562,39.2666774 C58.5310893,39.157362 58.3250607,39.1015161 58.0499042,39.1015161 C57.7923685,39.1015161 57.6039608,39.1431035 57.4792593,39.2215254 C57.3572687,39.2999473 57.2678089,39.4401561 57.208169,39.6397755 L56.6741213,39.5768003 C56.7229175,39.3759927 56.8028892,39.2132079 56.9140361,39.0920104 C57.0251831,38.9684365 57.1864818,38.8721914 57.3965767,38.8056516 C57.6080271,38.7391118 57.8520083,38.7046537 58.1271649,38.7046537 C58.4036769,38.7046537 58.6273263,38.7355472 58.7994686,38.7913931 C58.9716109,38.8484272 59.0963124,38.9209081 59.1803504,39.005271 C59.2589665,39.0931986 59.3158955,39.2001376 59.3484263,39.3332172 C59.3674026,39.4140155 59.3741799,39.5601654 59.3741799,39.7728551 L59.3741799,40.4121124 C59.3741799,40.8576914 59.3863789,41.1392973 59.4107771,41.255742 C59.4324643,41.3733748 59.4812605,41.487443 59.5490331,41.5955702 L58.9770327,41.5955702 C58.9214592,41.4969487 58.884862,41.3805041 58.8685966,41.2474245 L58.8685966,41.2474245 Z M52.3407441,41.5955702 L52.3407441,38.7700053 L52.8327729,38.7700053 L52.8327729,39.1728087 C53.0699768,38.8614975 53.412906,38.7046537 53.8588494,38.7046537 C54.0540343,38.7046537 54.230243,38.7367354 54.3942526,38.7973342 C54.5582621,38.8591211 54.6788973,38.9387312 54.7602244,39.0397291 C54.8415514,39.1383506 54.8971249,39.2559835 54.9310112,39.3914395 C54.951343,39.4829317 54.9608311,39.6373991 54.9608311,39.8584063 L54.9608311,41.5955702 L54.4132289,41.5955702 L54.4132289,39.8774176 C54.4132289,39.6837393 54.3942526,39.5375894 54.3508781,39.4389679 C54.3075037,39.3427228 54.2329539,39.2666774 54.1245178,39.208455 C54.0147262,39.1490445 53.8913802,39.1217157 53.7449915,39.1217157 C53.509143,39.1217157 53.3112471,39.1870673 53.1404603,39.315394 C52.9710289,39.444909 52.8869909,39.6896804 52.8869909,40.0532728 L52.8869909,41.5955702 L52.3407441,41.5955702 Z M48.2757463,40.1827878 C48.2757463,40.545192 48.3638506,40.816104 48.5441256,40.9955238 C48.7271115,41.1761319 48.9534718,41.2664359 49.2245621,41.2664359 C49.4956523,41.2664359 49.7220126,41.1749436 49.9022876,40.9943356 C50.0812072,40.8137276 50.1720224,40.5368745 50.1720224,40.167341 C50.1720224,39.8180071 50.0812072,39.5530361 49.9009322,39.3724281 C49.7193017,39.1930083 49.4929414,39.1015161 49.2245621,39.1015161 C48.9534718,39.1015161 48.7271115,39.1930083 48.5441256,39.3712399 C48.3638506,39.5506597 48.2757463,39.8215717 48.2757463,40.1827878 L48.2757463,40.1827878 Z M47.7132341,40.1827878 C47.7132341,39.6599751 47.8785991,39.2714302 48.2120401,39.0195296 C48.4885521,38.8104045 48.824704,38.7046537 49.2245621,38.7046537 C49.6677946,38.7046537 50.0324109,38.8329805 50.3116338,39.089634 C50.5935677,39.3427228 50.7331791,39.6944332 50.7331791,40.1423886 C50.7331791,40.5071693 50.6721838,40.7923398 50.5474823,41.0014649 C50.4227808,41.21059 50.2411504,41.3709984 50.0039464,41.4862548 C49.7667425,41.6015113 49.5064959,41.6597336 49.2245621,41.6597336 C48.7745523,41.6597336 48.409936,41.532595 48.130713,41.2795062 C47.8514901,41.0252291 47.7132341,40.6604484 47.7132341,40.1827878 L47.7132341,40.1827878 Z M45.5716214,41.5955702 L46.1178682,41.5955702 L46.1178682,38.7700053 L45.5716214,38.7700053 L45.5716214,41.5955702 Z M45.5716214,38.2471926 L46.1178682,38.2471926 L46.1178682,37.6958629 L45.5716214,37.6958629 L45.5716214,38.2471926 Z M43.59944,40.5606387 L44.1334877,40.6224257 C44.0752033,40.945619 43.9261037,41.2010843 43.683478,41.3840687 C43.4422077,41.5682414 43.1453639,41.6597336 42.7915912,41.6597336 C42.352425,41.6597336 41.9972968,41.532595 41.7302729,41.2806944 C41.4618936,41.0287937 41.3263485,40.6663895 41.3263485,40.1922934 C41.3263485,39.8892997 41.3846329,39.6219523 41.4998463,39.3914395 C41.6164151,39.163303 41.7912682,38.9922007 42.0271167,38.8781325 C42.2616098,38.7640643 42.5205009,38.7046537 42.7956575,38.7046537 C43.1467193,38.7046537 43.4327195,38.7842638 43.6550135,38.9387312 C43.8773075,39.0943868 44.0196299,39.315394 44.0819806,39.6005646 L43.5519992,39.6730454 C43.5018475,39.4829317 43.4123878,39.3403464 43.2836199,39.2429132 C43.1562075,39.1478563 42.9989752,39.0991397 42.8187002,39.0991397 C42.5421882,39.0991397 42.3171833,39.1870673 42.145041,39.3593578 C41.9742541,39.5328365 41.8875053,39.806125 41.8875053,40.1815996 C41.8875053,40.5594505 41.9715432,40.8363036 42.1382637,41.0097824 C42.3036288,41.1796965 42.5205009,41.2664359 42.7875248,41.2664359 C43.0016861,41.2664359 43.1792502,41.2082135 43.3242834,41.0929571 C43.4679613,40.9765125 43.5587765,40.8006573 43.59944,40.5606387 L43.59944,40.5606387 Z M39.1278068,40.1780349 C38.9285555,40.2493276 38.6317117,40.3087381 38.23592,40.3586429 C38.0109151,40.38716 37.8509719,40.4192417 37.7588012,40.454888 C37.6666306,40.4881579 37.5934362,40.5416274 37.5432845,40.6105436 C37.4931328,40.6794598 37.4660238,40.7531289 37.4660238,40.8374918 C37.4660238,40.9658186 37.5215973,41.0727575 37.6327443,41.1571205 C37.7425358,41.2414834 37.9051899,41.284259 38.1166403,41.284259 C38.3267352,41.284259 38.5151429,41.2450481 38.6777971,41.1642497 C38.8418067,41.0822632 38.9637973,40.9729478 39.0383471,40.8315508 C39.0979869,40.7246118 39.1278068,40.5642034 39.1278068,40.3527019 L39.1278068,40.1780349 Z M39.1738922,41.2474245 C38.9705745,41.3983272 38.7753896,41.504078 38.5883373,41.5670531 C38.4026405,41.6288401 38.1993228,41.6597336 37.986517,41.6597336 C37.6313888,41.6597336 37.3602986,41.5848763 37.1705355,41.4327853 C36.9807723,41.2806944 36.8858907,41.0870161 36.8858907,40.8517503 C36.8858907,40.7127297 36.919777,40.5855912 36.9929714,40.4727112 C37.0634548,40.3562665 37.1583364,40.2659625 37.2749052,40.1958581 C37.391474,40.1281301 37.5202418,40.0746606 37.667986,40.0390143 C37.7737112,40.0152501 37.9363653,39.9902976 38.151882,39.9677216 C38.5924037,39.9213814 38.9204228,39.8679119 39.1278068,39.8025604 C39.1305177,39.7372088 39.1318732,39.6944332 39.1318732,39.6789865 C39.1318732,39.4829317 39.0790106,39.3450993 38.9759963,39.2666774 C38.8377403,39.157362 38.6290008,39.1015161 38.3551997,39.1015161 C38.097664,39.1015161 37.9079009,39.1431035 37.7845548,39.2215254 C37.6612088,39.2999473 37.5703935,39.4401561 37.5121091,39.6397755 L36.9794168,39.5768003 C37.0282131,39.3759927 37.1081847,39.2132079 37.2193317,39.0920104 C37.3291232,38.9684365 37.4904219,38.8721914 37.7005168,38.8056516 C37.9106118,38.7391118 38.154593,38.7046537 38.431105,38.7046537 C38.707617,38.7046537 38.929911,38.7355472 39.1020533,38.7913931 C39.2728401,38.8484272 39.401608,38.9209081 39.482935,39.005271 C39.5629066,39.0931986 39.6198356,39.2001376 39.6537219,39.3332172 C39.6713427,39.4140155 39.6808309,39.5601654 39.6808309,39.7728551 L39.6808309,40.4121124 C39.6808309,40.8576914 39.6916745,41.1392973 39.7147172,41.255742 C39.7391153,41.3733748 39.7838452,41.487443 39.8516177,41.5955702 L39.2809728,41.5955702 C39.2267548,41.4969487 39.1888021,41.3805041 39.1738922,41.2474245 L39.1738922,41.2474245 Z M31.6782476,41.5955702 L31.6782476,37.6958629 L32.2827788,37.6958629 L34.6195765,40.7578817 L34.6195765,37.6958629 L35.1834441,37.6958629 L35.1834441,41.5955702 L34.578913,41.5955702 L32.2421153,38.531175 L32.2421153,41.5955702 L31.6782476,41.5955702 Z M26.234756,40.1827878 C26.234756,40.545192 26.3255712,40.816104 26.5044908,40.9955238 C26.6847658,41.1761319 26.913837,41.2664359 27.1849272,41.2664359 C27.4573729,41.2664359 27.6823778,41.1749436 27.8626528,40.9943356 C28.0415723,40.8137276 28.133743,40.5368745 28.133743,40.167341 C28.133743,39.8180071 28.0415723,39.5530361 27.8612973,39.3724281 C27.6796669,39.1930083 27.454662,39.1015161 27.1849272,39.1015161 C26.913837,39.1015161 26.6847658,39.1930083 26.5044908,39.3712399 C26.3255712,39.5506597 26.234756,39.8215717 26.234756,40.1827878 L26.234756,40.1827878 Z M25.6735992,40.1827878 C25.6735992,39.6599751 25.8389643,39.2714302 26.1710498,39.0195296 C26.4475618,38.8104045 26.7850691,38.7046537 27.1849272,38.7046537 C27.6295152,38.7046537 27.9914206,38.8329805 28.271999,39.089634 C28.5539328,39.3427228 28.6935443,39.6944332 28.6935443,40.1423886 C28.6935443,40.5071693 28.6311935,40.7923398 28.5078475,41.0014649 C28.3817905,41.21059 28.2001601,41.3709984 27.965667,41.4862548 C27.7257522,41.6015113 27.466861,41.6597336 27.1849272,41.6597336 C26.733562,41.6597336 26.3689457,41.532595 26.0924336,41.2795062 C25.8132107,41.0252291 25.6735992,40.6604484 25.6735992,40.1827878 L25.6735992,40.1827878 Z M24.3750771,41.1678144 L24.4536933,41.5908174 C24.3005273,41.6181462 24.1636267,41.6335929 24.0429916,41.6335929 C23.8437403,41.6335929 23.6892188,41.6062641 23.5807827,41.5516064 C23.4709912,41.4957605 23.3950859,41.4232797 23.3503561,41.3329757 C23.3069816,41.2450481 23.2825835,41.0561226 23.2825835,40.7685756 L23.2825835,39.1431035 L22.8827254,39.1431035 L22.8827254,38.7700053 L23.2825835,38.7700053 L23.2825835,38.0701493 L23.8274748,37.7837905 L23.8274748,38.7700053 L24.3750771,38.7700053 L24.3750771,39.1431035 L23.8274748,39.1431035 L23.8274748,40.7947162 C23.8274748,40.9313605 23.836963,41.0204763 23.8545839,41.058499 C23.8749156,41.0977099 23.9047356,41.1274152 23.9494654,41.1523676 C23.9928399,41.1737554 24.0551906,41.1856375 24.1351622,41.1856375 C24.1961575,41.1856375 24.2761292,41.1796965 24.3750771,41.1678144 L24.3750771,41.1678144 Z M20.871236,41.5955702 L20.871236,41.1808847 C20.6204776,41.5005134 20.2789039,41.6597336 19.8478704,41.6597336 C19.6594627,41.6597336 19.4805432,41.6276519 19.3151781,41.5646767 C19.1511686,41.5005134 19.0305334,41.419715 18.9478509,41.3222818 C18.8692347,41.2260367 18.8123058,41.1084038 18.779775,40.9693832 C18.7594432,40.8755146 18.7472441,40.7246118 18.7472441,40.5202396 L18.7472441,38.7700053 L19.2921355,38.7700053 L19.2921355,40.3360669 C19.2921355,40.5879676 19.3043345,40.7555053 19.3260218,40.8434329 C19.3626189,40.9705714 19.4344578,41.0668165 19.5456048,41.1404855 C19.6567518,41.2117782 19.7936524,41.2474245 19.957662,41.2474245 C20.1216715,41.2474245 20.2748375,41.2117782 20.4185153,41.1369209 C20.5635486,41.0644401 20.6652074,40.9634421 20.7234918,40.8363036 C20.7844871,40.7091651 20.8129516,40.5249924 20.8129516,40.2849739 L20.8129516,38.7700053 L21.3605538,38.7700053 L21.3605538,41.5955702 L20.871236,41.5955702 Z M17.2576034,41.1678144 L17.3362195,41.5908174 C17.1816981,41.6181462 17.0447976,41.6335929 16.9255179,41.6335929 C16.7262665,41.6335929 16.5703897,41.6062641 16.4619536,41.5516064 C16.3535175,41.4957605 16.2762568,41.4232797 16.2315269,41.3329757 C16.1881525,41.2450481 16.1651098,41.0561226 16.1651098,40.7685756 L16.1651098,39.1431035 L15.7638963,39.1431035 L15.7638963,38.7700053 L16.1651098,38.7700053 L16.1651098,38.0701493 L16.7072902,37.7837905 L16.7072902,38.7700053 L17.2576034,38.7700053 L17.2576034,39.1431035 L16.7072902,39.1431035 L16.7072902,40.7947162 C16.7072902,40.9313605 16.7167784,41.0204763 16.7357547,41.058499 C16.7560865,41.0977099 16.7872618,41.1274152 16.8319917,41.1523676 C16.8740107,41.1737554 16.9363615,41.1856375 17.0163331,41.1856375 C17.0786838,41.1856375 17.1600109,41.1796965 17.2576034,41.1678144 L17.2576034,41.1678144 Z M13.7185206,41.5955702 L14.2674783,41.5955702 L14.2674783,38.7700053 L13.7185206,38.7700053 L13.7185206,41.5955702 Z M13.7185206,38.2471926 L14.2674783,38.2471926 L14.2674783,37.6958629 L13.7185206,37.6958629 L13.7185206,38.2471926 Z M12.2166807,41.1678144 L12.2939415,41.5908174 C12.1407755,41.6181462 12.0038749,41.6335929 11.8818843,41.6335929 C11.6839885,41.6335929 11.5308225,41.6062641 11.4196755,41.5516064 C11.3112394,41.4957605 11.2353341,41.4232797 11.1892488,41.3329757 C11.1431635,41.2450481 11.1214763,41.0561226 11.1214763,40.7685756 L11.1214763,39.1431035 L10.7216182,39.1431035 L10.7216182,38.7700053 L11.1214763,38.7700053 L11.1214763,38.0701493 L11.6663676,37.7837905 L11.6663676,38.7700053 L12.2166807,38.7700053 L12.2166807,39.1431035 L11.6663676,39.1431035 L11.6663676,40.7947162 C11.6663676,40.9313605 11.6758558,41.0204763 11.6948321,41.058499 C11.7151638,41.0977099 11.7463392,41.1274152 11.7883582,41.1523676 C11.8317326,41.1737554 11.8954388,41.1856375 11.9754104,41.1856375 C12.0377612,41.1856375 12.1150219,41.1796965 12.2166807,41.1678144 L12.2166807,41.1678144 Z M6.7298147,40.7519407 L7.26792879,40.6782716 C7.29774871,40.8683853 7.38585303,41.0145352 7.52275359,41.1143449 C7.6610096,41.216531 7.85619456,41.2664359 8.10288666,41.2664359 C8.35635602,41.2664359 8.54069737,41.2224721 8.66268797,41.1321681 C8.78467856,41.0418641 8.84567386,40.9349251 8.84567386,40.8172922 C8.84567386,40.7091651 8.79010037,40.6236139 8.68301973,40.5606387 C8.60846992,40.5178632 8.42277312,40.4643937 8.12457388,40.3990421 C7.72471581,40.3099263 7.44549288,40.2326926 7.29232691,40.1685292 C7.13780548,40.1031777 7.01852578,40.0152501 6.94126507,39.8999936 C6.85993801,39.7847372 6.81927447,39.6587869 6.81927447,39.5209544 C6.81927447,39.3938159 6.8518053,39.2785595 6.9182224,39.1716205 C6.98463951,39.0634933 7.07409928,38.9743776 7.18795717,38.9030849 C7.27335059,38.8484272 7.38856393,38.8008988 7.5335972,38.7640643 C7.68134137,38.7248533 7.83992915,38.7046537 8.00800509,38.7046537 C8.25876354,38.7046537 8.48241297,38.7391118 8.67353157,38.802087 C8.86465018,38.8662504 9.00561709,38.9506133 9.09778777,39.0611169 C9.18860299,39.1716205 9.24959829,39.3165822 9.28348457,39.4971902 L8.75079229,39.5625418 C8.72503872,39.4187683 8.65455526,39.3058883 8.53934192,39.2227136 C8.42412857,39.1431035 8.25740809,39.0991397 8.04731317,39.0991397 C7.79519926,39.0991397 7.61627972,39.1371624 7.50919908,39.2096433 C7.40211844,39.2821241 7.3479004,39.3664871 7.3479004,39.4651085 C7.3479004,39.5268955 7.37094307,39.5827414 7.41567296,39.6326462 C7.46040284,39.6849275 7.52953085,39.7265149 7.62441242,39.760973 C7.67863047,39.7776079 7.83992915,39.8180071 8.10695302,39.8833587 C8.49325658,39.9736627 8.7643468,40.0473318 8.91480187,40.1043659 C9.06796784,40.1625882 9.18995844,40.2457629 9.27535186,40.3550783 C9.36345618,40.4679583 9.40683062,40.6022261 9.40683062,40.765011 C9.40683062,40.9254194 9.35261257,41.0739457 9.24553194,41.2177192 C9.1411622,41.3579281 8.98799623,41.4684317 8.78603402,41.5444771 C8.5867827,41.6205226 8.36042237,41.6597336 8.10695302,41.6597336 C7.68811863,41.6597336 7.36823217,41.5836881 7.15000454,41.4315971 C6.93042146,41.278318 6.78945455,41.0525579 6.7298147,40.7519407 L6.7298147,40.7519407 Z M2.52384994,41.5955702 L2.52384994,38.7700053 L3.01452324,38.7700053 L3.01452324,39.1728087 C3.25308263,38.8614975 3.59330086,38.7046537 4.04059972,38.7046537 C4.23442923,38.7046537 4.41334877,38.7367354 4.57735836,38.7973342 C4.74001249,38.8591211 4.86335854,38.9387312 4.9419747,39.0397291 C5.02465722,39.1383506 5.08023071,39.2559835 5.11140609,39.3914395 C5.13309331,39.4829317 5.14393692,39.6373991 5.14393692,39.8584063 L5.14393692,41.5955702 L4.59497922,41.5955702 L4.59497922,39.8774176 C4.59497922,39.6837393 4.57600291,39.5375894 4.53262847,39.4389679 C4.48925404,39.3427228 4.41470423,39.2666774 4.30626814,39.208455 C4.1991875,39.1490445 4.0717751,39.1217157 3.92403093,39.1217157 C3.69224879,39.1217157 3.49299748,39.1870673 3.32221064,39.315394 C3.1541347,39.444909 3.07009674,39.6896804 3.07009674,40.0532728 L3.07009674,41.5955702 L2.52384994,41.5955702 Z M0,41.5955702 L0.588265776,41.5955702 L0.588265776,37.6958629 L0,37.6958629 L0,41.5955702 Z" id="Fill-69"></path>
        </g>
    </g>
</svg>