<?xml version="1.0" encoding="UTF-8"?>
<svg width="184px" height="85px" viewBox="0 0 184 85" version="1.1" xmlns="http://www.w3.org/2000/svg" xmlns:xlink="http://www.w3.org/1999/xlink">
    <!-- Generator: Sketch 54.1 (76490) - https://sketchapp.com -->
    <title>clients-4</title>
    <desc>Created with Sketch.</desc>
    <g id="Page-1" stroke="none" stroke-width="1" fill="none" fill-rule="evenodd">
        <g id="clients-4" transform="translate(0.000000, -1.000000)" fill="#FEFEFE" fill-rule="nonzero">
            <path d="M176.24092,46.8152298 C180.19356,39.4698752 179.266753,38.1846728 171.505062,39.0406926 C159.435673,40.361074 144.220358,45.0070344 132.727939,50.5793722 C134.826963,46.9348382 135.850368,43.2691966 136.25503,39.955344 C147.345397,35.5790888 159.555766,33.0602794 172.390098,32.8351344 C185.824898,32.5982632 180.786195,41.8292068 176.24092,46.8152298 M128.454179,5.83180988 C153.03156,5.25722116 166.842304,14.9267285 169.599232,17.5885987 C167.202585,15.7944747 162.58682,14.2724009 158.605462,13.5805492 C153.71557,12.7386008 148.671647,12.3000372 143.486743,12.3000372 C139.698579,12.3000372 135.973072,12.5392537 132.325887,12.9989247 C131.391247,10.8201781 129.670778,7.8932935 128.454179,5.83180988 M176.24092,25.8228068 C173.862548,23.8105736 172.045483,22.3635482 164.829434,21.4301346 C157.608164,20.4896854 142.343245,21.9038772 135.584074,23.435332 C135.095868,21.0337857 134.443186,18.6650731 133.63125,16.3456108 C138.257458,15.6091992 143.022034,15.229267 147.888429,15.229267 C152.619065,15.229267 157.258327,15.5904371 161.767052,16.2822888 C171.309258,17.7480764 174.355976,22.551169 176.24092,25.8228068 M180.065635,32.8187176 C177.935282,30.396064 172.732104,29.882452 169.909908,29.882452 C158.166859,29.882452 146.932903,31.8454348 136.594425,35.4289922 C136.677968,32.6803474 136.594425,29.9246668 136.25503,27.2065102 C144.12115,25.1426814 158.004994,23.489273 167.147759,24.2022322 C175.679614,24.8800122 178.89864,29.1530762 180.065635,32.8187176 M181.115147,1.32422 L128.065181,1.32422 C126.477859,1.32422 125.180328,2.487469 125.180328,3.91338714 L125.180328,51.5714172 C125.180328,52.9996806 126.477859,54.1629296 128.065181,54.1629296 L181.115147,54.1629296 C182.70508,54.1629296 184,52.9996806 184,51.5714172 L184,3.91338714 C184,2.487469 182.70508,1.32422 181.115147,1.32422" id="Fill-12"></path>
            <path d="M45.819137,34.6117146 C48.263468,34.6117146 49.7780848,34.9748708 50.9989734,35.4144808 L52.0512872,32.050508 C50.9683234,31.6037302 48.7538668,31.1306716 45.880437,31.1306716 C38.5857562,31.1306716 33.214358,34.6714442 33.181154,40.845099 C33.1453958,43.5687702 34.2717802,45.991404 36.3151082,47.5945474 C38.3635444,49.2430852 41.29572,50.0984136 45.3568342,50.0984136 C48.294118,50.0984136 51.2314018,49.4939496 52.7868852,49.0495612 L52.7868852,39.273015 L47.9493064,39.273015 L47.9339814,42.548588 L47.9339814,46.4334034 C47.5380866,46.6006462 46.616035,46.7081596 45.4564464,46.7081596 C41.3340324,46.7081596 38.4657108,44.4503796 38.4657108,40.6205156 C38.4657108,36.601906 41.632869,34.6117146 45.819137,34.6117146" id="Fill-13"></path>
            <polygon id="Fill-14" points="32.6810328 35.7506838 32.6810328 32.4855104 18.0983607 32.4855104 18.0983607 50.0984136 33.1803278 50.0984136 33.1803278 46.835506 23.4657826 46.835506 23.4657826 42.6503738 32.1627428 42.6503738 32.1627428 39.4078594 23.4657826 39.4078594 23.4657826 35.7506838"></polygon>
            <path d="M55.8032786,32.4855104 L55.8032786,42.8900406 C55.8032786,48.8413166 59.0899614,51.4532522 64.6745256,51.4532522 C70.4522748,51.4532522 73.9016394,48.7116802 73.9016394,42.9452562 L73.9016394,32.4855104 L68.9093388,32.4855104 L68.9093388,43.2333372 C68.9093388,46.5270648 67.4706208,48.068299 64.8397494,48.068299 C62.2800516,48.068299 60.8337078,46.4382398 60.8337078,43.2333372 L60.8337078,32.4855104 L55.8032786,32.4855104 Z" id="Fill-15"></path>
            <path d="M106.326518,34.4262252 C109.992987,34.4262252 112.014003,37.26111 112.014003,40.5613884 C112.014003,44.1238938 109.963266,46.7981352 106.361643,46.7981352 C102.805951,46.7981352 100.641735,44.2632756 100.641735,40.6676966 C100.641735,37.0957418 102.741106,34.4262252 106.326518,34.4262252 M106.083348,50.0984136 C112.959665,50.0984136 117.639344,46.4366874 117.639344,40.424369 C117.639344,35.3617372 113.697282,31.1306716 106.469718,31.1306716 C99.5177474,31.1306716 95.0163934,35.2459794 95.0163934,40.7503808 C95.0163934,45.9831058 99.1016558,50.0984136 106.083348,50.0984136" id="Fill-16"></path>
            <path d="M84.092963,40.980013 L82.0587926,40.980013 L82.0587926,35.7809796 C82.4303186,35.7300564 83.149656,35.6403342 84.3986156,35.6403342 C86.7779626,35.6718582 88.2087328,36.5375554 88.2087328,38.26895 C88.2087328,39.920322 86.6752,40.980013 84.092963,40.980013 M93.3442226,38.482343 C93.3442226,36.7460988 92.5985358,34.8619342 91.233639,33.962288 C89.6052488,32.9050218 87.2206318,32.4855104 83.8215646,32.4855104 C81.0680566,32.4855104 78.5859472,32.65283 76.9180328,32.8783478 L76.9180328,51.4532522 L82.0587926,51.4532522 L82.0587926,44.0548144 L84.6515694,44.0548144 L90.8015096,51.4532522 L96.5245902,51.4532522 C96.5245902,51.4532522 90.6671278,44.5276742 89.6869318,43.2691396 L89.6869318,43.1891172 C91.6631336,42.599861 93.3442226,40.887866 93.3442226,38.482343" id="Fill-17"></path>
            <path d="M6.5134127,46.665413 C4.400273,46.665413 2.34513116,46.09364 1.01118021,45.521867 L0,48.9477794 C1.23560674,49.5219152 3.70934188,50.0984136 6.21838006,50.0984136 C12.2425933,50.0984136 15.0819672,47.4545542 15.0819672,44.3712328 C15.0819672,41.786441 13.2562952,40.0971116 9.38052466,38.896861 C6.54367244,37.9990356 5.30554406,37.4768792 5.30554406,36.3049808 C5.30554406,35.3599016 6.35202732,34.5329572 8.50047006,34.5329572 C10.6564778,34.5329572 12.2198985,35.0574762 13.0949098,35.4047928 L14.2044343,32.0544866 C12.8956998,31.5606828 11.0775927,31.1306716 8.59881428,31.1306716 C3.41430924,31.1306716 0.292510984,33.524085 0.292510984,36.657023 C0.292510984,39.3339602 2.67042356,41.018564 6.31924592,42.084141 C8.95688806,42.8732822 10.0008497,43.5277496 10.0008497,44.6689328 C10.0008497,45.8715462 8.78793776,46.665413 6.5134127,46.665413" id="Fill-18"></path>
            <path d="M7.32193744,8.97578052 L7.48525956,8.93178192 C7.77502462,8.87388902 8.58636676,8.73957748 10.1484638,8.73957748 C13.3753929,8.73957748 15.3036476,10.0062742 15.3036476,12.145996 C15.3036476,14.4732908 13.1330439,15.9229291 9.65322902,15.9229291 C8.65749092,15.9229291 8.01210512,15.8789305 7.49579646,15.7839862 L7.32193744,15.7538818 L7.32193744,8.97578052 Z M7.32193744,19.2089304 L7.5748233,19.2390347 C8.12801114,19.2969276 8.86296068,19.3362948 9.69274244,19.3362948 C13.5308123,19.3362948 16.6286642,18.5489513 18.6227746,17.0622615 C20.2296536,15.8742991 21.114754,14.079619 21.114754,12.0140002 C21.114754,10.0340628 20.0636972,8.24632992 18.222372,7.10699754 C16.3784125,5.94913944 13.6335472,5.38873612 9.8218196,5.38873612 C6.52376642,5.38873612 3.72621652,5.53231054 1.50819672,5.8148279 L1.50819672,27.0661554 L7.32193744,27.0661554 L7.32193744,19.2089304 Z" id="Fill-19"></path>
            <path d="M56.9421316,8.86268154 L57.1219234,8.83257402 C57.8693438,8.72140776 58.8222406,8.66582464 59.9497922,8.66582464 C62.9985482,8.70288004 64.6885916,9.86086186 64.6885916,11.9174375 C64.6885916,13.9832771 62.7365658,15.2686369 59.5825032,15.2686369 L56.9421316,15.2686369 L56.9421316,8.86268154 Z M56.9421316,27.0661554 L56.9421316,18.4577188 L60.3504712,18.4577188 C60.3504712,18.4577188 67.5241658,26.9225658 67.6525886,27.0661554 L73.9016394,27.0661554 C72.607138,25.570043 67.0721178,19.143244 66.0498726,17.8532523 L66.0087774,17.804617 L66.0087774,17.5058577 L66.1551794,17.4595384 C68.0943628,16.8990753 70.3520346,15.1736824 70.3520346,12.1698776 C70.3520346,10.0530868 69.3811588,8.005775 67.9402556,7.07475764 C66.1063788,5.90519602 63.4326172,5.38873612 59.253741,5.38873612 C56.3488186,5.38873612 53.4516014,5.5439057 51.2786886,5.81487344 L51.2786886,27.0661554 L56.9421316,27.0661554 Z" id="Fill-20"></path>
            <polygon id="Fill-21" points="78.4139432 27.0661554 84.3336956 27.0661554 84.3336956 9.19330634 92 9.19330634 92 5.38873612 70.885246 5.38873612 70.885246 9.19330634 78.4139432 9.19330634"></polygon>
            <path d="M35.4451812,9.06430064 C39.428464,9.06430064 42.2144594,12.2576273 42.2144594,16.8328894 C42.2144594,21.6408732 39.571729,24.7526272 35.4809976,24.750228 C31.3390998,24.750228 28.6682282,21.7056514 28.6682282,16.9720426 C28.6682282,12.2408329 31.3877076,9.06430064 35.4451812,9.06430064 M35.1637676,28.4209942 C43.1175414,28.4209942 48.262295,23.8097442 48.262295,16.6697442 C48.262295,11.0532321 44.3455284,5.38873612 35.6037962,5.38873612 C27.9570192,5.38873612 22.6229508,10.19672 22.6229508,17.0704095 C22.6229508,23.857728 27.6576974,28.4209942 35.1637676,28.4209942" id="Fill-22"></path>
            <path d="M104.820951,9.06430064 C108.80719,9.06430064 111.590905,12.2576273 111.590905,16.8328894 C111.590905,21.6408732 108.955587,24.7526272 104.861888,24.750228 C100.719577,24.750228 98.0484392,21.7056514 98.0484392,16.9720426 C98.0484392,12.2408329 100.76819,9.06430064 104.820951,9.06430064 M104.542068,28.4209942 C112.496636,28.4209942 117.639344,23.8097442 117.639344,16.6697442 C117.639344,11.0532321 113.727304,5.38873612 104.979582,5.38873612 C97.3371592,5.38873612 92,10.19672 92,17.0704095 C92,23.857728 97.0378074,28.4209942 104.542068,28.4209942" id="Fill-23"></path>
            <path d="M46.9686966,76.5974868 C46.9686966,77.8769872 47.9240882,78.820844 49.6494584,79.625037 C51.0555064,80.3120926 51.6323464,80.9586008 51.6323464,81.8326256 C51.6323464,83.2720636 50.231449,84.0604882 48.709518,84.0604882 C47.5867396,84.0604882 46.5643934,83.7270972 45.8433432,83.3081058 L45.2459016,84.4975006 C45.8047156,84.9164918 47.1283578,85.3061988 48.4906276,85.32422 C51.5138882,85.32422 53.3525664,83.709076 53.3525664,81.661425 C53.3525664,80.2062186 52.430652,79.2758776 50.7722366,78.5077268 C49.371339,77.8229238 48.6914916,77.2845426 48.6914916,76.3181594 C48.6914916,75.3517762 49.688086,74.3921508 51.3542272,74.3921508 C52.430652,74.3741298 53.2727358,74.7187838 53.69249,74.9350374 L54.295082,73.7614112 C53.8135234,73.479831 52.8349552,73.1306716 51.5319144,73.1306716 C49.0520168,73.1306716 46.9686966,74.5002776 46.9686966,76.5974868" id="Fill-24"></path>
            <polygon id="Fill-25" points="57.3114754 85.32422 64.189642 85.32422 64.4610186 84.0438742 59.1716396 84.0438742 60.0523804 79.5882706 64.754599 79.5882706 65.0161074 78.321892 60.318823 78.321892 61.1058154 74.4156732 66.0966802 74.4156732 66.3606558 73.1306716 59.7612672 73.1306716"></polygon>
            <path d="M73.6918924,74.9009604 C71.8390138,76.2834282 70.885246,78.3594112 70.885246,80.3418608 C70.885246,81.5326994 71.2432504,82.8330404 72.3254628,83.841375 C73.4158736,84.851991 74.9872676,85.32422 77.0041178,85.32422 C78.6820934,85.32422 80.2097618,84.9751812 81.040551,84.6923 L82.3386592,78.9639556 L77.7064626,78.9639556 L77.4249782,80.168482 L80.340939,80.168482 L79.5347456,83.734154 C78.9991052,83.9303458 78.1929116,84.0717864 77.3429924,84.0717864 C74.1510128,84.0717864 72.7736516,82.547878 72.7736516,80.2414836 C72.7736516,78.6103542 73.5853108,76.906223 74.9162134,75.856825 C76.1104728,74.921492 77.660004,74.4059184 79.3625754,74.4059184 C80.6552178,74.4059184 81.6335814,74.6203604 82.3741864,74.921492 L82.9508196,73.680465 C82.5244936,73.4660228 81.3356998,73.1306716 79.5730056,73.1306716 C77.2774038,73.1306716 75.2222936,73.7854048 73.6918924,74.9009604" id="Fill-26"></path>
            <path d="M93.4858634,80.2655112 C92.9557962,82.9550962 91.6611618,84.0561092 89.912184,84.0561092 C88.4905288,84.0561092 87.540316,83.2732684 87.540316,81.7442106 C87.540316,81.2474958 87.6013836,80.732469 87.6917638,80.231176 L89.1354034,73.1306716 L87.5598576,73.1306716 L86.1382026,80.1235926 C86.0233954,80.6775328 85.9672132,81.2635188 85.9672132,81.7762568 C85.9672132,84.250675 87.6013836,85.32422 89.7069966,85.32422 C92.4184008,85.32422 94.321269,83.8775666 95.061409,80.2998462 L96.5245902,73.1306716 L94.9514872,73.1306716 L93.4858634,80.2655112 Z" id="Fill-27"></path>
            <path d="M105.948319,78.8958608 L104.33488,78.8958608 L105.362887,74.4570118 C105.682213,74.3900016 106.161203,74.3345448 106.883889,74.3345448 C108.544946,74.3345448 109.715809,74.9099084 109.715809,76.2038988 C109.715809,77.6596378 108.231222,78.8958608 105.948319,78.8958608 M107.018342,73.1306716 C105.920308,73.1306716 104.707428,73.2369636 103.813874,73.3964018 L101.04918,85.32422 L102.855895,85.32422 L104.054769,80.046588 L105.662606,80.046588 C107.124784,80.046588 107.864277,80.7467292 107.97352,82.4011882 C108.085564,83.806092 108.231222,85.0792862 108.323658,85.32422 L110.1976,85.32422 C109.99592,84.843595 109.892279,83.6951786 109.735417,82.006059 C109.628975,80.7467292 109.124775,79.847868 108.107973,79.5636522 L108.12478,79.5289918 C109.976312,79.0968914 111.606557,77.7844154 111.606557,76.0213536 C111.606557,75.1964348 111.197596,74.4986042 110.522528,74.0110472 C109.735417,73.417198 108.472117,73.1306716 107.018342,73.1306716" id="Fill-28"></path>
            <path d="M122.984472,82.9229042 C122.15087,83.6550126 121.059793,84.1010356 119.935576,84.1010356 C117.312404,84.1010356 116.34624,82.3259542 116.34624,80.4021984 C116.34624,78.7510122 117.093169,76.6875926 118.385636,75.547756 C119.198845,74.8088896 120.246584,74.3583612 121.437081,74.3583612 C124.348318,74.3583612 124.962686,76.3542016 124.962686,78.0346722 C124.962686,79.681353 124.228504,81.8033414 122.984472,82.9229042 M121.653767,73.1306716 C119.968716,73.1306716 118.30406,73.7478954 117.172195,74.7187838 C115.550876,76.144706 114.622951,78.437895 114.622951,80.5260936 C114.622951,83.0287784 116.24427,85.32422 119.690849,85.32422 C121.536502,85.32422 123.081344,84.7092488 124.269292,83.6752864 C125.854922,82.2741434 126.688525,80.0169966 126.688525,77.9648402 C126.688525,75.446387 125.245652,73.1306716 121.653767,73.1306716" id="Fill-29"></path>
            <path d="M131.427223,76.5974868 C131.427223,77.8769872 132.390066,78.820844 134.107222,79.625037 C135.505147,80.3120926 136.09212,80.9586008 136.09212,81.8326256 C136.09212,83.2720636 134.686472,84.0604882 133.170123,84.0604882 C132.047665,84.0604882 131.023035,83.7270972 130.30219,83.3081058 L129.704918,84.4975006 C130.266147,84.9164918 131.586839,85.3061988 132.946146,85.32422 C135.968547,85.32422 137.811851,83.709076 137.811851,81.661425 C137.811851,80.2062186 136.892773,79.2758776 135.229681,78.5077268 C133.829182,77.8229238 133.141804,77.2845426 133.141804,76.3181594 C133.141804,75.3517762 134.148413,74.3921508 135.808931,74.3921508 C136.892773,74.3741298 137.732043,74.7187838 138.149103,74.9350374 L138.754098,73.7614112 C138.272677,73.479831 137.289238,73.1306716 135.986568,73.1306716 C133.50995,73.1306716 131.427223,74.5002776 131.427223,76.5974868" id="Fill-30"></path>
            <path d="M7.5409836,64.9964878 C7.5409836,65.4086062 59.7596494,66.356478 92.771089,66.356478 C125.774687,66.356478 177.967213,65.3983032 177.967213,64.9964878 C177.967213,64.5972484 125.774687,63.6468006 92.771089,63.6468006 C59.7596494,63.6468006 7.5409836,64.6023998 7.5409836,64.9964878" id="Fill-31"></path>
        </g>
    </g>
</svg>