<?xml version="1.0" encoding="UTF-8"?>
<svg width="208px" height="81px" viewBox="0 0 208 81" version="1.1" xmlns="http://www.w3.org/2000/svg" xmlns:xlink="http://www.w3.org/1999/xlink">
    <!-- Generator: Sketch 54.1 (76490) - https://sketchapp.com -->
    <title>Group 17</title>
    <desc>Created with Sketch.</desc>
    <g id="Home" stroke="none" stroke-width="1" fill="none" fill-rule="evenodd">
        <g transform="translate(-623.000000, -2397.000000)" fill="#FEFEFE" id="Group-3">
            <g transform="translate(101.000000, 2356.000000)">
                <g id="Group-17" transform="translate(522.000000, 41.662110)">
                    <polygon id="Fill-47" points="52.2039216 66.122449 60.7675004 80 69.3333333 66.122449"></polygon>
                    <path d="M69.3020407,11.5588284 C69.033818,8.17954743 66.4879375,0 48.2130307,0 L0,0 L0,54.5636206 L0.0290574594,54.5636206 C0.299515351,57.9451218 2.84316064,66.122449 21.113597,66.122449 L69.3333333,66.122449 L69.3333333,11.5588284 L69.3020407,11.5588284 Z M26.3886435,41.9745777 C26.3193527,42.9404037 26.3193527,42.9759284 25.6599718,42.9759284 L24.3054472,42.9759284 C21.527107,42.9759284 20.7984354,41.6326531 20.6933815,40.1494995 C19.3075642,42.5607342 17.1886048,43.3222936 15.3468089,43.3222936 C11.8062693,43.3222936 9.75883598,40.9088386 9.75883598,37.8714822 C9.75883598,36.0797084 10.4539798,26.6656799 10.6260894,25.080393 C10.6953803,24.2522249 10.9412511,24.0102133 11.6006319,24.0102133 L12.7092857,24.0102133 C15.5926798,24.0102133 16.2855884,25.1136973 16.2855884,26.9409958 C16.2855884,28.834903 15.5546815,34.7009085 15.5546815,36.1485374 C15.5546815,37.7360446 16.4241701,38.7018706 17.8457505,38.7018706 C21.5963979,38.7018706 21.4578162,29.0103058 21.8735614,24.6985032 C21.9093244,24.3210539 22.1194322,24.0102133 22.6379961,24.0102133 L23.889702,24.0102133 C26.7350978,24.0102133 27.4302417,25.1825263 27.4302417,27.287361 C27.4302417,28.6994653 27.1173152,31.838955 26.3886435,41.9745777 L26.3886435,41.9745777 Z M47.5625907,41.9745777 C47.1088473,48.0803745 42.7032894,49.701186 38.2574981,49.701186 C33.5725416,49.701186 30.1705836,47.9071919 30.1705836,45.7002239 C30.1705836,43.9417544 31.8715626,43.149111 33.7111233,43.149111 C34.6476676,43.149111 34.0240498,45.3893833 37.9468068,45.3893833 C41.4180556,45.3893833 41.9723825,41.6681777 41.9723825,38.9061373 C40.5150392,41.4927748 38.2239703,41.9412733 36.4872283,41.9412733 C33.0875055,41.9412733 30.7249105,40.1850241 30.7249105,35.4602476 C30.7249105,33.6640332 31.1071279,29.5276334 31.4558174,25.080393 C31.4893452,24.4231872 31.8715626,24.0102133 32.4281247,24.0102133 L33.5390137,24.0102133 C36.4872283,24.0102133 37.1153164,25.1136973 37.1153164,27.1830074 C37.1153164,29.2856218 36.4537004,33.3198882 36.4537004,34.7342128 C36.4537004,36.4593779 37.4237725,37.3208504 38.6754785,37.3208504 C40.8279657,37.3208504 42.1802551,34.8718708 42.4931816,31.1462246 L43.0497437,24.6985032 C43.0832715,24.2167003 43.4319611,24.0102133 43.8141784,24.0102133 L45.0636492,24.0102133 C46.9747359,24.0102133 48.6041888,24.5963698 48.6041888,26.8699465 C48.6041888,27.8024682 48.3247902,31.5947231 47.5625907,41.9745777 L47.5625907,41.9745777 Z M53.9127631,43.3222936 C51.831802,43.3222936 51.2417121,42.0789313 51.2417121,40.4914241 C51.2417121,38.666346 52.0374394,36.8390475 54.6414348,36.8390475 C56.5882846,36.8390475 57.3504841,37.8381779 57.3504841,39.5278184 C57.3504841,40.9776676 56.7961572,43.3222936 53.9127631,43.3222936 L53.9127631,43.3222936 Z M57.419775,33.7350824 C57.3169563,34.2857143 57.1761394,34.4255925 56.6553403,34.4255925 L55.4058695,34.4255925 C53.1170358,34.4255925 52.5604737,33.2865839 52.5604737,31.0440913 C52.5604737,29.7696449 52.7683463,28.597332 53.4612549,18.4572687 C53.4992531,17.9044165 53.5305458,17.6668455 53.6355997,17.5602716 C53.7406536,17.4581383 53.8814705,17.4581383 54.1899266,17.4581383 L56.2395951,17.4581383 C58.7742996,17.4581383 59.7801348,18.6304513 59.7801348,19.9404222 C59.7801348,22.3894018 58.1149188,30.2159232 57.419775,33.7350824 L57.419775,33.7350824 Z" id="Fill-48"></path>
                    <path d="M91.6335508,40.1741103 C92.1024713,40.1741103 92.4014619,40.5503657 92.4014619,41.2032793 C92.4014619,41.822994 91.7669135,43.7463227 91.3324091,44.2642272 C90.932321,44.7422928 88.9921084,46.5306122 85.9204637,46.5306122 C82.5476774,46.5306122 78.3058824,44.644909 78.3058824,37.9364977 C78.3058824,34.3974843 79.4738817,26.9387755 87.4907023,26.9387755 C91.8335949,26.9387755 93.8039216,29.1409759 93.8039216,31.8876398 C93.8039216,34.3642853 92.2035689,35.4974778 89.461029,35.4974778 C88.7942153,35.4974778 88.5941713,35.4288665 88.5941713,35.0171989 C88.5597551,32.7817996 88.5597551,31.5091712 87.0561979,31.5091712 C84.2835438,31.5091712 83.9824022,35.7741361 83.9824022,37.5956546 C83.9824022,40.8624363 84.9525085,41.9602165 87.1228793,41.9602165 C89.7277544,41.9602165 90.8656396,40.1741103 91.6335508,40.1741103" id="Fill-49"></path>
                    <path d="M106.719464,35.225246 C106.758062,34.7427539 106.792119,34.4351098 106.792119,33.9526176 C106.792119,32.4741555 106.367543,31.5445835 104.605669,31.5445835 C102.630372,31.5445835 102.314778,32.6799893 101.890203,34.328873 C101.785762,34.7427539 101.501955,34.8113651 100.798113,34.8113651 C98.3982402,34.8113651 97.199439,33.9836034 97.199439,32.1642982 C97.199439,29.2759851 99.8808485,26.9387755 105.275454,26.9387755 C110.495234,26.9387755 112.715741,29.1387626 112.715741,32.9898466 C112.715741,34.0212289 112.11861,38.7642594 112.11861,39.7934284 C112.11861,42.0974391 114.196078,41.3427151 114.196078,42.0642401 C114.196078,44.0938056 113.2107,46.5306122 109.966217,46.5306122 C107.709383,46.5306122 106.64908,45.399633 106.297159,43.5427022 C105.168742,45.1229746 103.474982,46.5306122 100.548363,46.5306122 C97.7284555,46.5306122 95.4352941,45.2956094 95.4352941,41.9602165 C95.4352941,37.8678864 99.3518321,35.3956675 106.719464,35.225246 M101.501955,40.5503657 C101.501955,41.6171602 102.346565,41.9602165 103.123061,41.9602165 C104.639726,41.9602165 106.192718,40.6543892 106.403871,38.0405212 C103.933614,38.0405212 101.501955,38.7310604 101.501955,40.5503657" id="Fill-50"></path>
                    <path d="M124.619003,35.194016 C124.619003,34.5993684 124.680297,34.1128385 124.680297,33.5519777 C124.680297,32.5361214 124.49233,31.8018217 123.728202,31.8018217 C122.553407,31.8018217 121.732073,33.5181909 121.507329,36.9103852 C121.317319,39.8836233 120.904608,45.0282261 120.904608,45.8323518 C120.904608,46.2850949 120.555234,46.5306122 120.205861,46.5306122 L119.063756,46.5306122 C116.462862,46.5306122 115.827451,45.341317 115.827451,43.2059915 C115.827451,41.7734314 116.115531,38.5884627 116.779546,28.3037621 C116.810192,27.6392884 117.09623,27.2901582 117.445603,27.2901582 L118.683735,27.2901582 C121.094619,27.2901582 121.791323,28.5132402 121.950687,29.9480528 C122.935471,27.7789405 124.870307,26.9387755 126.235113,26.9387755 C127.887998,26.9387755 129.694118,28.2001492 129.694118,30.9976959 C129.694118,33.5181909 128.265976,35.651264 126.047145,35.651264 C125.571098,35.651264 124.619003,35.5453987 124.619003,35.194016" id="Fill-51"></path>
                    <path d="M136.624609,45.8279277 C136.588372,46.388724 136.458345,46.5306122 135.893475,46.5306122 L134.70192,46.5306122 C131.988413,46.5306122 131.32549,45.3392016 131.32549,43.2041215 C131.32549,41.771726 131.623912,38.5893757 132.316677,28.3058573 C132.350782,27.745061 132.384888,27.4995718 132.485072,27.3959709 C132.583125,27.2901178 132.717415,27.2901178 133.013705,27.2901178 L134.305445,27.2901178 C136.923031,27.2901178 137.617927,28.6549474 137.713848,30.1594131 C139.005589,27.6392079 140.59575,26.9387755 142.778493,26.9387755 C145.165867,26.9387755 147.282531,27.7788439 147.77919,30.5445383 C149.168983,27.814879 150.622723,26.9387755 153.108151,26.9387755 C155.892,26.9387755 158.243137,28.0243331 158.243137,31.8733328 C158.243137,34.740376 157.644162,40.6884207 157.347872,45.4428025 C157.279661,46.458542 157.215714,46.5306122 156.454738,46.5306122 L155.395341,46.5306122 C152.611491,46.5306122 151.984806,45.4090196 151.984806,43.4496107 C151.984806,41.5600198 152.679702,34.810194 152.679702,33.9385949 C152.679702,32.7471842 152.315201,31.6255915 150.991487,31.6255915 C148.706429,31.6255915 147.681137,35.019648 147.382715,39.4632271 C147.282531,40.8978747 147.150372,42.6816125 146.984109,45.4428025 C146.91803,46.458542 146.854082,46.5306122 146.090975,46.5306122 L145.031578,46.5306122 C142.251992,46.5306122 141.621043,45.4090196 141.621043,43.4496107 C141.621043,41.5960549 142.318071,35.5466615 142.318071,33.9385949 C142.318071,32.7471842 141.951438,31.6255915 140.629856,31.6255915 C138.278718,31.6255915 137.351479,35.6142273 137.053057,40.2334775 C136.923031,42.3663053 136.72053,44.3955322 136.624609,45.8279277" id="Fill-52"></path>
                    <path d="M162.321569,38.4885096 C162.321569,35.0162864 163.699379,26.9387755 172.809752,26.9387755 C177.718486,26.9387755 179.45098,29.2779341 179.45098,32.0951044 C179.45098,38.3867108 170.693017,38.7275154 168.39894,38.7275154 C168.39894,40.4802246 169.347037,42.2351469 171.750248,42.2351469 C174.223941,42.2351469 174.189836,40.3452306 175.176585,40.3452306 C175.633582,40.3452306 177.861724,40.7236565 177.861724,42.783975 C177.861724,45.4661512 174.082977,46.5306122 170.938568,46.5306122 C166.841514,46.5306122 162.321569,44.7424948 162.321569,38.4885096 M168.503526,35.9789487 C171.397838,35.9457534 173.41226,34.9830912 173.41226,33.2989855 C173.41226,32.3695185 172.809752,31.513081 171.611558,31.513081 C169.528927,31.513081 168.75135,34.0204289 168.503526,35.9789487" id="Fill-53"></path>
                    <path d="M181.082353,41.5787553 C181.082353,39.8697471 181.648626,36.3147405 182.410446,21.4187463 C182.441,20.859557 182.473591,20.6170171 182.567291,20.5114673 C182.660991,20.4081633 182.789319,20.4081633 183.074492,20.4081633 L184.308886,20.4081633 C186.840817,20.4081633 187.596527,21.836454 187.596527,23.4084721 C187.596527,26.1639952 186.52509,37.3949415 186.52509,40.0449148 C186.52509,42.4186621 188.423529,41.8212952 188.423529,42.3131123 C188.423529,44.3702103 187.692263,46.5306122 184.752941,46.5306122 C182.15379,46.5306122 181.082353,45.1023215 181.082353,41.5787553" id="Fill-54"></path>
                    <path d="M200.52202,35.225246 C200.562884,34.7427539 200.594666,34.4351098 200.594666,33.9526176 C200.594666,32.4741555 200.170142,31.5445835 198.406211,31.5445835 C196.433423,31.5445835 196.120137,32.6799893 195.693343,34.328873 C195.588915,34.7427539 195.305142,34.8113651 194.601386,34.8113651 C192.204073,34.8113651 191.005417,33.9836034 191.005417,32.1642982 C191.005417,29.2759851 193.684232,26.9387755 199.075914,26.9387755 C204.297333,26.9387755 206.519841,29.1387626 206.519841,32.9898466 C206.519841,34.0212289 205.920513,38.7642594 205.920513,39.7934284 C205.920513,42.0974391 208,41.3427151 208,42.0642401 C208,44.0938056 207.012471,46.5306122 203.770651,46.5306122 C201.51182,46.5306122 200.453915,45.399633 200.099767,43.5427022 C198.973756,45.1229746 197.2802,46.5306122 194.353936,46.5306122 C191.53437,46.5306122 189.239216,45.2956094 189.239216,41.9602165 C189.239216,37.8678864 193.15528,35.3956675 200.52202,35.225246 M195.305142,40.5503657 C195.305142,41.6171602 196.15192,41.9602165 196.928322,41.9602165 C198.444804,41.9602165 199.995338,40.6543892 200.208735,38.0405212 C197.738777,38.0405212 195.305142,38.7310604 195.305142,40.5503657" id="Fill-55"></path>
                </g>
            </g>
        </g>
    </g>
</svg>