<?xml version="1.0" encoding="UTF-8"?>
<svg width="272px" height="59px" viewBox="0 0 272 59" version="1.1" xmlns="http://www.w3.org/2000/svg" xmlns:xlink="http://www.w3.org/1999/xlink">
    <!-- Generator: Sketch 54.1 (76490) - https://sketchapp.com -->
    <title>clients-3</title>
    <desc>Created with Sketch.</desc>
    <g id="Page-1" stroke="none" stroke-width="1" fill="none" fill-rule="evenodd">
        <g id="clients-3" transform="translate(0.000000, -1.000000)" fill="#FEFEFE" fill-rule="nonzero">
            <path d="M260.167926,23.6688776 L260.167926,18.0319096 L260.29997,17.9848171 L265.902402,16.3177439 L266.081604,16.2730061 L266.081604,23.6688776 L272,23.6688776 L272,28.495855 L265.992004,28.495855 L265.992004,40.3160636 C265.992004,41.8489232 266.265524,42.8849574 266.805488,43.5159964 C267.392612,44.194128 268.206096,44.462555 269.380344,44.462555 C269.698664,44.462555 270.104228,44.4201718 270.554592,44.2836036 C271.096914,44.1470354 271.412876,43.9680842 271.77364,43.7420402 L272,43.5607344 L272,48.3877118 L271.957558,48.4348044 C271.594436,48.6137556 270.962512,48.8397996 270.104228,49.0211056 C269.290742,49.1529644 268.432458,49.2895326 267.618972,49.2895326 C262.650822,49.2895326 260.167926,46.6288084 260.167926,41.3520978 L260.167926,28.495855 L251.313912,28.495855 L251.313912,48.6584936 L245.395516,48.6584936 L245.395516,28.4487626 L241.285652,28.4487626 L241.285652,23.6688776 L245.395516,23.6688776 L245.395516,20.1981629 C245.395516,18.4392594 245.803438,16.9040451 246.569764,15.5501367 C247.338448,14.1514906 248.378294,13.1154564 249.776544,12.3478492 C251.177152,11.6697177 252.71452,11.2670771 254.475892,11.2670771 C255.874142,11.2670771 256.958788,11.4460285 257.772272,11.7168102 L257.909032,11.761548 L257.909032,16.8593072 L257.682672,16.7227391 C256.734784,16.3177439 255.874142,16.1364379 255.063014,16.1364379 C253.888768,16.1364379 252.938524,16.4966953 252.306598,17.2195646 C251.674674,17.9424339 251.313912,19.0679438 251.313912,20.5113278 L251.313912,23.6688776 L260.167926,23.6688776 Z M205.961556,34.0433474 C204.110584,33.2757402 202.936336,32.689439 202.394014,32.1949682 C201.941292,31.7428804 201.717288,31.1118414 201.717288,30.301851 C201.717288,29.6237196 201.98845,28.9455882 202.665174,28.495855 C203.3419,28.046122 204.110584,27.8200782 205.24003,27.8200782 C206.235076,27.8200782 207.272564,27.9990296 208.26525,28.2698112 C209.260296,28.5429476 210.16338,28.9455882 210.884906,29.489506 L211.111268,29.6684574 L211.111268,24.165703 L210.974508,24.1209652 C210.297782,23.8501836 209.394696,23.5794018 208.31005,23.353358 C207.225404,23.172052 206.235076,23.0825764 205.419232,23.0825764 C202.618016,23.0825764 200.31668,23.7583532 198.508151,25.2488296 C196.701979,26.6474758 195.843694,28.5429476 195.843694,30.7515842 C195.843694,31.9241864 196.025254,32.9602206 196.430818,33.8196582 C196.836381,34.676741 197.423505,35.489086 198.236989,36.1648628 C199.052832,36.7959018 200.22708,37.5164166 201.85169,38.194548 C203.20514,38.7808492 204.244986,39.2329368 204.87691,39.5931942 C205.511192,39.9534516 205.916756,40.3584468 206.235076,40.6763208 C206.459078,41.0342236 206.595838,41.4886658 206.595838,42.074967 C206.595838,43.7420402 205.329632,44.5543854 202.754776,44.5543854 C201.76209,44.5543854 200.722244,44.3730794 199.503196,43.9680842 C198.284148,43.5607344 197.154701,42.9744332 196.206815,42.2986562 L195.980454,42.1173502 L195.980454,47.8485032 L196.114855,47.8908864 C196.973141,48.2982362 198.010628,48.5666632 199.276835,48.8845374 C200.543042,49.1105812 201.67013,49.2895326 202.665174,49.2895326 C205.690394,49.2895326 208.175648,48.6137556 209.93702,47.1256338 C211.74555,45.6822498 212.693436,43.8338706 212.693436,41.4415734 C212.693436,39.7721456 212.240714,38.2840238 211.248026,37.1561592 C209.93702,36.0753872 208.31005,34.945168 205.961556,34.0433474 L205.961556,34.0433474 Z M164.450262,23.2638824 C163.007211,23.2638824 161.649046,23.71597 160.474798,24.6625286 C159.479753,25.4748736 158.803029,26.6474758 158.215905,28.046122 L158.173462,28.046122 L158.173462,23.6688776 L152.299868,23.6688776 L152.299868,48.6584936 L158.173462,48.6584936 L158.173462,35.8940812 C158.173462,33.7301824 158.623826,31.9241864 159.616513,30.615016 C160.611558,29.2634622 161.875407,28.5853308 163.410417,28.5853308 C163.955098,28.5853308 164.495063,28.721899 165.174146,28.8113746 C165.80607,28.9926806 166.256434,29.171632 166.572396,29.3976758 L166.798757,29.5789818 L166.798757,23.71597 L166.664355,23.6688776 C166.256434,23.3980958 165.445307,23.2638824 164.450262,23.2638824 L164.450262,23.2638824 Z M145.072823,23.4428338 C143.988177,23.2191444 142.861088,23.0825764 141.776442,23.0825764 C139.109627,23.0825764 136.671532,23.6688776 134.636641,24.8414798 C132.606467,26.0140822 130.979497,27.6387722 129.939652,29.6684574 C128.857364,31.7428804 128.315041,34.1351776 128.315041,36.8853776 C128.315041,39.27532 128.857364,41.3968356 129.897209,43.3370452 C130.934697,45.2301622 132.380106,46.7653764 134.323037,47.8014106 C136.174009,48.8397996 138.343301,49.3813628 140.781397,49.3813628 C143.580256,49.3813628 145.975909,48.7950616 147.87404,47.711935 L147.91884,47.6671972 L147.91884,42.2539184 L147.692479,42.4352244 C146.834194,43.0639088 145.839149,43.6078268 144.846462,43.9233462 C143.808975,44.2836036 142.861088,44.462555 142.047604,44.462555 C139.696751,44.462555 137.845779,43.7867782 136.534772,42.2986562 C135.181322,40.8552722 134.504597,38.8703248 134.504597,36.3909066 C134.504597,33.8196582 135.181322,31.7876184 136.58193,30.301851 C137.980181,28.8113746 139.831153,28.046122 142.090046,28.046122 C143.988177,28.046122 145.931108,28.677161 147.692479,29.9392392 L147.91884,30.1181904 L147.91884,24.3917468 L147.87404,24.3446544 C147.105356,24.0314896 146.247071,23.6688776 145.072823,23.4428338 L145.072823,23.4428338 Z M121.3568,13.1154564 C120.366471,13.1154564 119.552986,13.4757137 118.873903,14.1067527 C118.197178,14.7377917 117.834058,15.5501367 117.834058,16.5437877 C117.834058,17.4903463 118.197178,18.3026913 118.873903,18.9313757 C119.552986,19.5647693 120.366471,19.8802888 121.3568,19.8802888 C122.351845,19.8802888 123.21013,19.5176768 123.842054,18.9313757 C124.518779,18.3026913 124.8819,17.4903463 124.8819,16.5437877 C124.8819,15.5948746 124.518779,14.7848842 123.842054,14.1067527 C123.254931,13.4757137 122.396645,13.1154564 121.3568,13.1154564 L121.3568,13.1154564 Z M118.376381,48.6584936 L124.249975,48.6584936 L124.249975,23.6688776 L118.376381,23.6688776 L118.376381,48.6584936 Z M95.5210004,35.7127752 L93.8940312,40.3160636 L93.7596294,40.3160636 C93.488468,39.27532 92.9909454,37.6977226 92.1774608,35.8046054 L83.460207,13.9278014 L74.9221556,13.9278014 L74.9221556,48.7950616 L80.5693894,48.7950616 L80.5693894,27.2761602 C80.5693894,25.9246066 80.5693894,24.3917468 80.5245888,22.4962752 C80.4797882,21.5497166 80.387829,20.8268473 80.3430284,20.2876386 L80.4797882,20.2876386 C80.7509496,21.6391924 81.0669118,22.6328434 81.2909148,23.2638824 L91.7718976,48.7032314 L95.7473614,48.7032314 L106.134027,23.0401932 C106.362746,22.4515374 106.589107,21.278935 106.815468,20.2876386 L106.94987,20.2876386 C106.815468,22.8565326 106.721151,25.1569994 106.678708,26.5580002 L106.678708,48.6584936 L112.686705,48.6584936 L112.686705,13.8359711 L104.464615,13.8359711 L95.5210004,35.7127752 Z" id="Fill-1"></path>
            <path d="M185.962325,40.6489794 C184.858601,42.0640274 183.111838,42.7501114 180.949979,42.7501114 C178.79052,42.7501114 177.043757,42.0640274 175.803267,40.5584544 C174.562777,39.1434062 173.965327,37.0899188 173.965327,34.4885172 C173.965327,31.7965906 174.608366,29.7431034 175.803267,28.2827928 C177.043757,26.822482 178.744931,26.093518 180.90679,26.093518 C183.018262,26.093518 184.673848,26.7772196 185.868749,28.1922678 C187.06365,29.6049336 187.709088,31.6608032 187.709088,34.3503476 C187.615512,37.0899188 187.111638,39.2339312 185.962325,40.6489794 M181.182721,21.2099343 C176.998168,21.2099343 173.641408,22.439168 171.299594,24.8595198 C168.909792,27.2798714 167.760479,30.6102372 167.760479,34.8077368 C167.760479,38.7312794 168.95538,41.92824 171.251606,44.2556846 C173.550231,46.5378666 176.676648,47.72422 180.58527,47.72422 C184.673848,47.72422 187.937031,46.4902218 190.283644,44.0269898 C192.673446,41.563758 193.820359,38.2762724 193.820359,34.2145602 C193.820359,30.1981104 192.716635,27.003532 190.465998,24.6784698 C188.306539,22.348643 185.134532,21.2099343 181.182721,21.2099343" id="Fill-3"></path>
            <path d="M233.194182,40.6489794 C232.09056,42.0640274 230.346358,42.7501114 228.184698,42.7501114 C226.025436,42.7501114 224.278834,42.0640274 223.038458,40.5584544 C221.795684,39.1434062 221.198288,37.0899188 221.198288,34.4885172 C221.198288,31.7965906 221.843668,29.7431034 223.038458,28.2827928 C224.278834,26.822482 225.977452,26.093518 228.139112,26.093518 C230.25279,26.093518 231.908222,26.7772196 233.103014,28.1922678 C234.297804,29.6049336 234.943184,31.6608032 234.943184,34.3503476 C234.847216,37.0899188 234.34339,39.2339312 233.194182,40.6489794 M228.415018,21.2099343 C224.23325,21.2099343 220.876798,22.439168 218.5352,24.8595198 C216.145618,27.2798714 214.994012,30.6102372 214.994012,34.8077368 C214.994012,38.7312794 216.188804,41.92824 218.487216,44.2556846 C220.78563,46.5378666 223.91176,47.72422 227.817622,47.72422 C231.908222,47.72422 235.171106,46.4902218 237.515104,44.0269898 C239.904686,41.563758 241.053892,38.2762724 241.053892,34.2145602 C241.053892,30.1981104 239.95027,27.003532 237.69984,24.6784698 C235.54058,22.348643 232.366466,21.2099343 228.415018,21.2099343" id="Fill-5"></path>
            <polygon id="Fill-7" points="0 29.4956486 27.6886228 29.4956486 27.6886228 1.32422 0 1.32422"></polygon>
            <polygon id="Fill-9" points="30.9461078 29.4956486 58.6347306 29.4956486 58.6347306 1.32422 30.9461078 1.32422"></polygon>
            <polygon id="Fill-10" points="0 59.32422 27.6886228 59.32422 27.6886228 31.1527914 0 31.1527914"></polygon>
            <polygon id="Fill-11" points="30.9461078 59.32422 58.6347306 59.32422 58.6347306 31.1527914 30.9461078 31.1527914"></polygon>
        </g>
    </g>
</svg>