<?xml version="1.0" encoding="UTF-8"?>
<svg width="212px" height="63px" viewBox="0 0 212 63" version="1.1" xmlns="http://www.w3.org/2000/svg" xmlns:xlink="http://www.w3.org/1999/xlink">
    <!-- Generator: Sketch 54.1 (76490) - https://sketchapp.com -->
    <title>clients-5</title>
    <desc>Created with Sketch.</desc>
    <g id="Page-1" stroke="none" stroke-width="1" fill="none" fill-rule="evenodd">
        <g id="clients-5" transform="translate(0.000000, -1.000000)" fill="#FEFEFE" fill-rule="nonzero">
            <path d="M52.1386724,4.49996218 C50.6028024,4.70332618 49.0097836,4.71501376 47.5453492,5.15680452 C45.4475174,5.79260922 43.4306462,6.60139018 41.6328446,8.01558812 C38.4063268,10.5517944 36.5108964,13.7004301 36.125143,17.7116097 C35.9203604,19.850438 36.4823222,21.8443402 37.280022,23.845255 C38.1539202,26.0448588 39.6993152,27.713846 41.4637798,29.069606 C43.8854542,30.9349448 46.6500204,32.2229168 49.8717758,32.444981 C53.838845,32.7184704 57.596369,32.4122558 61.082437,30.2594024 C64.4756384,28.1603118 66.9854168,25.4487918 67.8640774,21.5521506 C69.357086,14.9346392 66.2662962,10.1520789 61.2753138,7.00344316 C58.6202824,5.32744328 55.5366362,4.17270976 52.1386724,4.49996218 M52.1505784,1.37937664 C53.4007052,1.37937664 54.6555944,1.43313953 55.9033402,1.36768905 C58.3345392,1.23678808 60.4609454,2.14841981 62.6016388,3.08810175 C64.789956,4.04882134 66.7615846,5.35081846 68.4069896,7.02915584 C70.9667732,9.64016262 72.7098072,12.7093228 73.2217638,16.3675373 C73.6789532,19.6143488 73.1765212,22.7466218 71.676369,25.6287806 C70.2190782,28.4291264 68.1379148,30.7385934 65.4066852,32.5338066 C60.199014,35.965282 54.4984356,36.7951006 48.438297,36.04242 C41.956687,35.233639 36.7704466,32.1972042 33.2939034,26.7858516 C32.1128312,24.9485632 31.5413446,22.6133834 31.165116,20.4254672 C30.636491,17.3118943 31.3079876,14.2450716 32.6700306,11.3722629 C33.0462592,10.5821821 33.5629782,9.83885158 34.1035094,9.1375964 C36.3775496,6.18998714 39.280225,3.9623332 42.7520058,2.59254809 C44.447416,1.92401816 46.3357028,1.66455374 48.1644598,1.41443939 C49.469354,1.23445057 50.819491,1.37937664 52.1505784,1.37937664" id="Fill-32"></path>
            <path d="M82.6547784,9.15308658 C82.6547784,11.9735025 82.698243,14.6720765 82.6306314,17.3706505 C82.6064844,18.3070286 82.9203956,18.5665069 83.9007648,18.5574815 C88.0588822,18.5123549 92.2218292,18.6003518 96.3799466,18.5123549 C98.0533354,18.4785099 99.857118,18.4130762 101.361478,17.8264297 C104.234973,16.7072887 105.741748,14.5005952 103.843792,11.8448916 C102.776493,10.3511993 101.035493,9.32456788 98.956434,9.28621022 C93.9314384,9.18693158 88.9040282,9.14857392 83.8766178,9.0921656 C83.526486,9.08765294 83.1787688,9.12375426 82.6547784,9.15308658 M101.520848,22.2059716 C104.674449,25.8409236 107.697656,29.3337268 110.892308,33.0205746 C108.931569,33.0205746 107.106054,33.3026162 105.464057,32.9122706 C104.515079,32.6866372 103.8124,31.4118092 103.078331,30.5498902 C101.272134,28.4244246 99.5118156,26.2628578 97.7370094,24.1148292 C97.6645682,24.0268322 97.5752242,23.9410914 97.5390038,23.8395566 C96.8411548,21.8945976 95.2353776,21.8314204 93.383301,21.8878286 C89.8674944,21.99162 86.3444436,21.917161 82.6644372,21.917161 L82.6644372,33.0092928 L78.276923,33.0092928 L78.276923,6.14990768 C78.6536166,6.13185702 78.9965044,6.09801202 79.3418068,6.09801202 C85.7625004,6.0957557 92.1831938,6.0889867 98.6038874,6.09801202 C101.008931,6.10026836 103.435707,6.3574903 105.391616,7.68872662 C107.919809,9.40579584 109.955403,11.596695 109.327581,14.8458141 C109.112672,15.9559298 108.467947,17.0254316 107.859442,18.0272433 C106.504794,20.2519874 104.049041,21.1387262 101.520848,22.2059716" id="Fill-33"></path>
            <path d="M157.883542,22.7460904 L172.095209,22.7460904 C169.642363,18.4390018 167.254432,14.2468591 164.762174,9.86764756 C162.388154,14.3077127 160.167146,18.4683017 157.883542,22.7460904 M182.646154,33.1002322 C181.287583,33.1002322 180.10521,33.161086 178.936747,33.0641708 C178.549577,33.0303632 178.058081,32.6652412 177.854063,32.3181498 C176.952214,30.7832846 176.122234,29.2078502 175.292254,27.6346698 C174.796121,26.6993262 174.128427,26.2688426 172.957646,26.2846196 C167.667104,26.3522348 162.374243,26.3815346 157.08602,26.2756042 C155.664853,26.248558 155.173357,26.9630254 154.647084,27.9479536 C153.796239,29.5436724 152.915255,31.1236144 152.004132,32.6877796 C151.883576,32.892879 151.51959,33.0641708 151.26225,33.0709324 C149.861949,33.1092476 148.461648,33.088963 146.769231,33.088963 C147.504157,31.8290664 148.141711,30.7652538 148.753764,29.690172 C149.634748,28.1462916 150.485593,26.5866342 151.375851,25.049515 C152.361162,23.3568812 153.413706,21.6980548 154.371197,19.9896439 C155.310141,18.3150406 156.133166,16.5840913 157.067473,14.9072342 C158.298532,12.7119939 159.587551,10.5460535 160.851068,8.36884384 C160.871933,8.33503624 160.906709,8.310244 160.913664,8.27418254 C161.351838,6.01808852 163.0373,6.124019 164.86882,6.09697292 C166.867263,6.067673 168.337115,6.17134964 169.271422,8.38687456 C170.497845,11.3010899 172.271405,13.9989366 173.833993,16.7779216 C174.932905,18.7387626 176.110642,20.6612882 177.18637,22.6356522 C178.952975,25.883436 180.663939,29.1582658 182.395769,32.4218264 C182.476912,32.5773414 182.520961,32.7553948 182.646154,33.1002322" id="Fill-34"></path>
            <path d="M117.438974,33.115721 L117.438974,31.7296246 C117.438974,23.6455676 117.457722,15.5615104 117.415539,7.4774533 C117.408509,6.44803972 117.638169,6.08458448 118.7935,6.09361444 C127.068294,6.14327912 135.345431,6.14102164 143.622569,6.09587192 C144.749778,6.08909946 145.295807,6.30130314 145.098955,7.48422576 C145.023964,7.95152534 145.087238,8.43688482 145.087238,9.0667234 L121.917346,9.0667234 L121.917346,17.7332119 L139.048115,17.7332119 L139.048115,20.7176083 L121.912659,20.7176083 L121.912659,30.1132646 L123.356237,30.1132646 C130.133553,30.1132646 136.908526,30.1358396 143.683499,30.0884324 C144.770869,30.0816598 145.18332,30.3412708 145.110673,31.4361514 C144.988812,33.2398826 145.356737,33.115721 143.364787,33.1179784 C135.319653,33.120236 127.274519,33.115721 119.229385,33.115721 L117.438974,33.115721 Z" id="Fill-35"></path>
            <path d="M212,30.229984 L212,33.1190918 L187.538462,33.1190918 L187.538462,6.1065 C188.727908,6.1065 189.881955,6.05664872 191.019481,6.15181934 C191.253123,6.17221304 191.611845,6.74097074 191.616565,7.06047208 C191.663765,10.0719421 191.642525,13.0902101 191.642525,16.1039461 L191.642525,28.716318 C191.644885,30.1846646 191.644885,30.1846646 193.126973,30.1846646 C199.017567,30.1823986 204.90816,30.1801326 210.798754,30.1801326 C211.178716,30.1801326 211.561038,30.2095902 212,30.229984" id="Fill-36"></path>
            <path d="M0.0235717072,6.09345076 L3.08467328,6.09345076 L3.08467328,30.0424424 L26.0923076,30.0424424 L26.0923076,33.0352182 C25.671465,33.0555772 25.2952928,33.0895088 24.9191206,33.0895088 C17.0782805,33.094033 9.23744042,33.071412 1.39895145,33.1189164 C0.261030432,33.1279648 -0.00464121064,32.7886478 6.09423235e-05,31.7435516 C0.0447313954,23.6044684 0.0235717072,15.4676476 0.0235717072,7.32856454 L0.0235717072,6.09345076 Z" id="Fill-37"></path>
            <path d="M52.1689958,49.2146304 L52.1689958,53.4800506 C53.678448,53.4800506 55.1030224,53.4913948 56.5253026,53.4777818 C57.6034828,53.4664376 58.404089,52.7971296 58.585315,51.794302 C58.745895,50.9117232 58.087517,49.7523456 57.0804508,49.6026022 C55.4700624,49.3575674 53.8275582,49.334879 52.1689958,49.2146304 L52.1689958,49.2146304 Z M48.9252792,47.4267842 C52.3823378,47.6014848 55.7178144,47.4971182 58.9454732,48.025758 C61.1798296,48.3887724 62.2442458,49.2963086 62.1754258,51.1726398 C62.0974298,53.332576 61.6340416,54.0359164 59.4111552,54.555481 C58.436205,54.782365 57.4383148,54.90942 56.2500226,55.1158846 C58.800951,57.314391 61.2027696,59.3858424 63.6,61.4572938 C62.1066058,61.5866178 60.7233234,62.122064 59.4639172,60.8265562 C57.924643,59.2451742 56.1582626,57.870257 54.4354682,56.4726512 C53.8436162,55.9939258 53.08889,55.7103208 52.4075718,55.338231 C52.3043418,55.4335222 52.2011118,55.5265448 52.0978818,55.621836 L52.0978818,61.7136728 C51.1298136,61.7136728 50.3039734,61.7840068 49.5033672,61.6660272 C49.2670852,61.6342634 48.9551012,61.0602468 48.9528072,60.7312648 C48.9115152,57.1964114 48.9252792,53.6570202 48.9252792,50.1198978 L48.9252792,47.4267842 Z" id="Fill-38"></path>
            <path d="M87.7780212,49.0165276 L91.3173994,49.0165276 C91.3173994,50.1829852 91.3316328,51.3027844 91.315027,52.4203616 C91.2865602,54.2422572 91.3173994,56.0685962 91.1821818,57.8838262 C90.9829138,60.5633456 89.1468022,62.120844 86.5990194,62.7873912 C83.2304424,63.6694552 79.8262818,63.6383496 77.0033194,61.3609804 C76.1350806,60.658884 75.309542,59.4724302 75.2170248,58.4481694 C74.9465898,55.442042 75.0509682,52.402587 75.0153846,49.3764632 C75.0153846,49.2787028 75.0912962,49.176499 75.1529744,49.0343022 L78.858409,49.0343022 C78.858409,49.6341946 78.8441756,50.171876 78.8607812,50.7073356 C78.9438096,53.6534738 78.9817654,56.6040558 79.1762888,59.5435286 C79.2118724,60.0567698 79.828654,60.8077462 80.3458018,60.9677176 C82.2032636,61.5431698 84.136637,61.6764794 86.0486602,61.049925 C86.9880662,60.7410916 87.7732768,59.6301796 87.775649,58.5481514 C87.7827658,55.8130864 87.7780212,53.0757996 87.7780212,50.3407346 L87.7780212,49.0165276 Z" id="Fill-39"></path>
            <path d="M34.1734506,47.4896776 L37.5070958,47.4896776 C37.5070958,48.1781228 37.509482,48.8199314 37.5047094,49.4595192 C37.4903918,51.607024 37.5405038,53.7611912 37.4331208,55.9064754 C37.2732394,59.1332846 35.3236418,60.7944364 32.1451054,61.4206994 C29.2195156,61.998105 26.3679008,61.87152 23.697644,60.2503426 C22.325528,59.417546 21.3924892,58.2982672 21.3065828,56.9458056 C21.1109072,53.8344774 21.2445394,50.7076036 21.2445394,47.443041 C22.29212,47.443041 23.342087,47.3853004 24.3753498,47.4874568 C24.5972748,47.5096646 24.9098786,48.0959534 24.9194236,48.4290722 C25.0029438,51.1584242 25.0005574,53.892218 25.0769188,56.62157 C25.0936228,57.1900926 25.277367,57.7674982 25.4706564,58.3138128 C25.7259892,59.0511154 26.229496,59.4464162 27.1482172,59.5996508 C28.6635104,59.8550418 30.1119876,60.0993288 31.6439848,59.6240794 C33.0662128,59.1843628 33.9682298,58.4226316 34.0255008,57.0235332 C34.1304974,54.2586484 34.1304974,51.4893222 34.1734506,48.7222166 C34.1806096,48.3313574 34.1734506,47.9382774 34.1734506,47.4896776" id="Fill-40"></path>
            <path d="M128.835638,47.4426116 C129.842116,47.4426116 130.781655,47.3894136 131.70924,47.4780768 C131.962653,47.5002426 132.349944,47.9502078 132.364288,48.2184138 C132.431227,49.56166 132.390585,50.9093394 132.392976,52.2570186 C132.395367,53.3874734 132.44079,54.5157116 132.40493,55.641733 C132.278223,59.5163112 134.334212,60.0482898 138.259716,59.8088994 C140.777107,59.6559556 141.460842,58.2351292 141.496703,56.4463508 C141.544516,53.9682168 141.55647,51.4945158 141.582767,49.020815 C141.587549,48.553117 141.582767,48.0854192 141.582767,47.4492614 C142.634668,47.4492614 143.602896,47.4115794 144.559169,47.4802934 C144.762378,47.4935928 145.097073,47.8903602 145.099464,48.112018 C145.111418,50.8783072 145.221389,53.6534628 145.008618,56.4064524 C144.788675,59.2082068 142.864174,60.6024342 139.749112,61.402619 C137.731375,61.9235148 135.637135,61.7860868 133.581146,61.302873 C131.211978,60.7465118 128.814122,58.756025 128.830856,56.0229844 C128.847591,53.1968476 128.835638,50.370711 128.835638,47.4426116" id="Fill-41"></path>
            <path d="M115.586081,59.8398948 L115.586081,56.0948202 L110.24723,56.0948202 L110.24723,54.5047582 L118.971023,54.5047582 C118.971023,56.0902642 119.176171,57.6461558 118.908478,59.1314288 C118.678312,60.4048452 117.292312,60.9857418 116.016392,61.2340466 C112.183627,61.983517 108.343356,61.9675708 104.640685,60.659984 C103.519877,60.2658856 102.594209,59.600702 102.093848,58.4138506 C101.378332,56.6984972 100.822931,54.9899778 101.265751,53.1789472 C101.52844,52.1105532 101.858678,50.9237016 102.594209,50.1195586 C103.352256,49.2903572 104.570635,48.7026264 105.711458,48.2903038 C109.306551,46.982717 112.934168,47.251524 116.494237,48.483936 C117.424908,48.8051376 118.197966,49.374644 118.378096,50.5592176 C116.987092,50.5318812 115.716175,50.8553608 114.407731,49.987433 C112.303713,48.5864472 109.796905,48.7231288 107.607826,49.5910566 C105.323678,50.4954328 104.345472,53.5593776 104.908378,55.901188 C105.608884,58.7942808 107.858006,60.4071232 110.947735,60.1109798 C112.471334,59.9651862 114.009944,59.9287378 115.586081,59.8398948" id="Fill-42"></path>
            <path d="M161.242949,52.045196 C159.917808,54.3624034 158.809419,56.303411 157.632063,58.3598172 L164.866151,58.3598172 C163.649386,56.2364796 162.511439,54.2562366 161.242949,52.045196 M151.661538,63.2273378 C152.774854,61.2701744 153.821666,59.414562 154.883257,57.5681816 C155.582774,56.3495704 156.301995,55.1448072 157.011365,53.93312 C157.873445,52.4629396 158.715821,50.9789112 159.612385,49.5271946 C159.755244,49.2940892 160.141949,49.0956032 160.437519,49.0586756 C161.033587,48.9848204 161.651822,49.0702154 162.252815,49.024056 C162.96711,48.9709726 163.314406,49.1925382 163.533621,49.8826228 C163.745446,50.5450118 164.240527,51.1312376 164.617379,51.7474672 C165.765178,53.6307752 166.922829,55.5140834 168.068165,57.4020074 C169.058326,59.036054 170.046024,60.6701008 171.009091,62.3203034 C171.147024,62.5626408 171.142098,62.8811414 171.230769,63.303501 C170.161789,63.303501 169.201185,63.3358126 168.24797,63.2827292 C167.98442,63.2688812 167.656829,63.0611634 167.496728,62.8511376 C167.048447,62.2718358 166.720856,61.6071388 166.250406,61.0439928 C166.021339,60.7693438 165.590299,60.4831548 165.24054,60.4785388 C162.494198,60.4323792 159.742929,60.4300714 156.994123,60.4762308 C156.661606,60.4831548 156.191157,60.8016554 156.023667,61.0947682 C154.676358,63.4512114 154.696062,63.4604432 151.661538,63.2273378" id="Fill-43"></path>
            <path d="M194.061538,47.5375732 C192.899342,48.8915722 191.950257,50.0000154 190.998693,51.1107536 C189.623386,52.7080134 188.228255,54.2915038 186.885163,55.9117128 C186.714179,56.11596 186.761261,56.4923258 186.758783,56.7906646 C186.748871,58.1469586 186.736481,59.5032524 186.771173,60.8595464 C186.783563,61.4745832 186.575409,61.795871 185.866692,61.7247288 C185.829522,61.720139 185.787395,61.7270236 185.747747,61.7270236 C182.754286,61.6719458 183.314321,62.091915 183.25237,59.514727 C183.242458,59.0993476 183.197854,58.6770836 183.259804,58.2731788 C183.572036,56.198577 182.328065,54.8262186 180.970104,53.385013 C179.299912,51.6133396 177.857698,49.6603682 176.123077,47.5513426 C177.572725,47.5513426 178.898471,47.2185802 179.827732,47.6408444 C180.848681,48.102122 181.564832,49.215155 182.29585,50.1239408 C183.078908,51.099279 183.69346,52.187068 184.444303,53.1876504 C185.021684,53.9587414 185.519768,53.5525416 185.955901,52.9994674 C187.130488,51.5215432 188.391805,50.0986968 189.457358,48.5565148 C190.057041,47.6867426 190.748412,47.438892 191.761926,47.5260986 C192.403736,47.5834714 193.055458,47.5375732 194.061538,47.5375732" id="Fill-44"></path>
            <path d="M27.723077,6.10607478 C27.2677384,7.043995 26.9086312,7.88271212 26.462681,8.6740823 C25.3689296,10.6085428 24.1836412,12.4979109 23.1344848,14.4549175 C22.6908818,15.2801069 22.2003366,15.7423032 21.1957752,15.6092809 C20.7169656,15.5461516 20.2193792,15.5980078 19.5692308,15.5980078 C20.1184536,14.2226921 20.5737922,12.9916718 21.0971968,11.7899615 C21.831841,10.0877265 22.5969974,8.39676454 23.404402,6.72609416 C23.5358398,6.45554024 23.939542,6.15342172 24.2329304,6.13538478 C25.3407644,6.06323708 26.4556396,6.10607478 27.723077,6.10607478" id="Fill-45"></path>
            <path d="M127.2,4.27239086 C128.1638,3.33155626 129.12039,2.38182486 130.101015,1.45655962 C130.216382,1.35202244 130.466345,1.33200468 130.653818,1.32978049 C132.742452,1.32088371 134.828683,1.3253321 136.914914,1.3253321 C136.938949,1.4187483 136.962984,1.5121645 136.984615,1.6078049 C133.754322,2.57088146 130.521626,3.53840642 127.291333,4.50370718 C127.260087,4.42586034 127.231245,4.3480135 127.2,4.27239086" id="Fill-46"></path>
        </g>
    </g>
</svg>