<?xml version="1.0" encoding="UTF-8"?>
<svg width="404px" height="41px" viewBox="0 0 404 41" version="1.1" xmlns="http://www.w3.org/2000/svg" xmlns:xlink="http://www.w3.org/1999/xlink">
    <!-- Generator: Sketch 54.1 (76490) - https://sketchapp.com -->
    <title>Group 37</title>
    <desc>Created with Sketch.</desc>
    <g id="About-Us" stroke="none" stroke-width="1" fill="none" fill-rule="evenodd">
        <g transform="translate(-136.000000, -264.000000)" id="Group-37">
            <g transform="translate(136.000000, 264.000000)">
                <path d="M86.4076632,20.6185225 L86.4076632,20.5043897 C86.4098346,11.5010708 79.9110834,4.13511807 70.9478877,4.13292321 C61.9846921,4.13072835 55.5966781,11.3803535 55.5945068,20.3858672 L55.5945068,20.4978051 C55.5923354,29.501124 62.0910866,36.8648819 71.0542823,36.8670768 C80.0174779,36.8692716 86.4054919,29.6240362 86.4076632,20.6185225 M51.0000004,20.609743 L51.0000004,20.4978051 C51.0021718,9.56739849 59.1294105,-0.00219448329 71.0629675,3.77482129e-07 C82.9943533,0.00439009903 91.0043409,9.46204517 90.9999982,20.390257 L90.9999982,20.5065846 C90.9978269,31.4369912 82.8727595,41.0021945 70.9392025,40.9999996 C59.0078167,40.9978048 50.9978291,31.5401497 51.0000004,20.609743" id="Fill-1" fill="#FFFFFF"></path>
                <path d="M128.452962,20.4007963 C134.324684,20.4030106 138.522487,17.3162083 138.524656,12.1744902 L138.524656,12.059344 C138.524656,7.1479182 134.832063,4.176262 128.509338,4.176262 L116.425474,4.1718333 L116.423306,20.3985819 L128.452962,20.4007963 Z M112.008673,0 L128.84759,0.00442869777 C133.659019,0.00442869777 137.51857,1.4902568 139.977408,4.00575713 C141.881164,5.9477411 143,8.74667809 143,11.8910535 L143,12.0039853 C142.997832,18.6315315 138.522487,22.5154995 132.36672,23.6603178 L141.783591,36.45704 C142.859061,37.9162959 141.837798,40.0022126 140.05113,39.9999982 C139.365951,39.9999982 138.72197,39.6700603 138.314332,39.10983 L127.609498,24.4574834 L116.421137,24.4552691 L116.418969,37.739148 C116.418969,38.9858264 115.43023,39.9955695 114.209485,39.9955695 C112.988739,39.9955695 112,38.9836121 112,37.7369337 L112.008673,0 Z" id="Fill-3" fill="#FFFFFF"></path>
                <path d="M164.006598,1 L190.67956,1.00442894 C191.807888,1.00442894 192.722867,1.92786359 192.722867,3.0638875 C192.722867,4.19769695 191.807888,5.11891712 190.67956,5.11891712 L168.489116,5.11227371 L168.486917,18.7711344 L188.121578,18.7755633 C189.249905,18.7755633 190.164884,19.6967835 190.164884,20.8328074 C190.164884,21.9688313 189.249905,22.8900515 188.121578,22.8900515 L168.484717,22.8856225 L168.482518,36.8832973 L190.956693,36.8877263 C192.08722,36.8877263 193,37.8089465 193,38.9471849 C193,40.0809943 192.085021,41 190.956693,41 L164,40.9977855 L164.006598,1 Z" id="Fill-5" fill="#FFFFFF"></path>
                <path d="M213.008627,1 L238.968264,1.00442919 C240.089817,1.00442919 241,1.93898793 241,3.0905769 C241,4.24438047 240.089817,5.17893921 238.966107,5.17893921 L217.404252,5.17229543 L217.399938,19.4564279 L236.490063,19.460857 C237.594361,19.460857 238.491604,20.3821282 238.491604,21.518215 C238.491604,22.6543018 237.594361,23.5733584 236.490063,23.5733584 L217.399938,23.5689292 L217.395625,38.7411139 C217.395625,39.9879305 216.412109,41 215.199969,41 C213.983516,41 213,39.9857159 213,38.7411139 L213.008627,1 Z" id="Fill-7" fill="#FFFFFF"></path>
                <g id="Group-11" transform="translate(259.000000, 0.000000)">
                    <polygon id="Clip-10" points="0 0 40 0 40 41 0 41"></polygon>
                    <path d="M35.4057425,20.6163276 L35.4057425,20.5043897 C35.4079137,11.498876 28.9116863,4.13511807 19.9468056,4.13292321 C10.9840962,4.13072835 4.59642872,11.3781586 4.59642872,20.3836724 L4.59642872,20.4978051 C4.59425752,29.501124 11.0904849,36.8648819 20.0553656,36.8648819 C29.018075,36.8670768 35.4057425,29.6218414 35.4057425,20.6163276 M4.41310768e-07,20.6075482 L4.41310768e-07,20.4956103 C0.00217164031,9.56520363 8.12896949,-0.0021944832 20.0618792,3.77568703e-07 C31.9947889,0.00219523834 40.0021708,9.46204517 39.9999996,20.390257 L39.9999996,20.5043897 C39.9978284,31.4347964 31.8732017,41.0021945 19.940292,40.9999996 C8.00738234,40.9956099 -0.00217075769,31.5379548 4.41310768e-07,20.6075482" id="Fill-9" fill="#FFFFFF"></path>
                </g>
                <path d="M321.784381,1 L321.784381,1 C322.637625,1 323.441186,1.40079717 323.966092,2.08724535 L347.705698,33.0571302 L347.712179,3.20549159 C347.712179,1.98981399 348.671267,1.0044287 349.857168,1.00664305 C351.040908,1.00664305 352.002156,1.99202834 351.999996,3.20549159 L351.993516,38.5775022 C351.993516,39.9171833 350.935062,41 349.632516,41 C348.906719,41 348.221964,40.6589903 347.774822,40.0766165 L323.296458,8.19884854 L323.289978,38.7967228 C323.289978,40.010186 322.330889,40.993357 321.144989,40.993357 C319.959089,40.993357 319,40.010186 319,38.7945084 L319.00864,3.84543844 C319.00864,2.27325066 320.250704,1 321.784381,1" id="Fill-12" fill="#FFFFFF"></path>
                <g id="Group-16" transform="translate(374.000000, 0.000000)">
                    <polygon id="Clip-15" points="0.321327381 0.569199785 29.3599405 0.569199785 29.3599405 40.3449248 0.321327381 40.3449248"></polygon>
                    <path d="M0.330136905,0.569199785 L27.0384107,0.575805585 C28.1682321,0.575805585 29.0844226,1.48960795 29.0844226,2.62140172 C29.0844226,3.75099356 28.1682321,4.66479592 27.0384107,4.66479592 L4.81858929,4.66039205 L4.8163869,18.2419173 L24.4770417,18.2463212 C25.6068631,18.2463212 26.5230536,19.1623255 26.5230536,20.2919173 C26.5230536,21.4193072 25.6068631,22.3353115 24.4770417,22.3353115 L4.81418452,22.3309076 L4.81198214,36.2515306 L27.3159107,36.2559345 C28.4457321,36.2559345 29.3619226,37.1719388 29.3619226,38.2993287 C29.3619226,39.4311224 28.4457321,40.3449248 27.3159107,40.3449248 L0.321327381,40.338319 L0.330136905,0.569199785 Z" id="Fill-14" fill="#FFFFFF"></path>
                </g>
                <polygon id="Clip-18" points="0 0 34 0 34 41 0 41"></polygon>
                <path d="M1.67234691e-06,20.6097424 L1.67234691e-06,20.4978045 C0.0021455014,9.28426115 8.18942866,-0.00219447171 19.5860239,3.88987925e-07 C25.5651631,0.00219524969 29.5012333,1.8480731 32.9270721,4.70578173 C33.9089458,5.52446477 34.0054181,7.03233407 33.1435988,7.98270876 C32.3568136,8.84967873 31.0512217,8.92869372 30.1551011,8.17805136 C27.2716511,5.75712001 23.974442,4.13511795 19.5259967,4.13292309 C10.9549681,4.13072823 4.53634395,11.2662204 4.53420012,20.3836717 L4.53420012,20.4978045 C4.53205629,29.6723222 11.0042762,36.8648807 19.5195652,36.8670756 C24.1759619,36.8670756 27.4302944,35.2582427 30.658901,32.4180929 C31.4542615,31.7201272 32.6440867,31.7728039 33.3901392,32.5234463 C34.2412393,33.3750522 34.1919312,34.7885425 33.3022422,35.5962512 C29.6684519,38.9039063 25.5244304,41.0021931 19.4123737,40.9999983 C8.2365929,40.9978034 -0.00428598576,31.9944848 1.67234691e-06,20.6097424" id="Fill-17" fill="#FFFFFF"></path>
            </g>
        </g>
    </g>
</svg>