<?xml version="1.0" encoding="UTF-8"?>
<svg width="62px" height="67px" viewBox="0 0 62 67" version="1.1" xmlns="http://www.w3.org/2000/svg" xmlns:xlink="http://www.w3.org/1999/xlink">
    <!-- Generator: Sketch 54.1 (76490) - https://sketchapp.com -->
    <title>doctor</title>
    <desc>Created with Sketch.</desc>
    <g id="Home" stroke="none" stroke-width="1" fill="none" fill-rule="evenodd" opacity="0.502790179">
        <g transform="translate(-845.000000, -1668.000000)" fill="#364049" fill-rule="nonzero" id="Group-34">
            <g transform="translate(135.000000, 1569.000000)">
                <g id="Group-20" transform="translate(135.000000, 0.000000)">
                    <g id="doctor" transform="translate(575.375122, 99.608227)">
                        <path d="M40.0620095,31.8334927 C43.9481779,27.3649695 46.3737729,20.867634 46.3737729,15.9496904 C46.3737729,7.24377446 39.1882737,0.168612704 30.3465885,0.168612704 C21.5049034,0.168612704 14.3194041,7.24377446 14.3194041,15.9496904 C14.3194041,20.867634 16.7449991,27.3649695 20.6311675,31.8334927 C-2.88145534,39.6148866 -0.4167378,61.0329807 0.61348805,65.3987792 L60.079689,65.3987792 C63.5876732,50.4394989 54.3025997,35.929639 40.0620095,31.8334927 Z M30.3465885,2.27446847 C35.9671878,2.27446847 40.805337,5.57449855 42.9831562,10.312674 C37.6494553,13.895197 32.2375094,9.85041301 32.2375094,9.85041301 C28.4556677,7.68035432 23.7088042,7.88580366 20.1356159,10.3511958 L16.9014891,12.5854574 C18.4272667,6.67878877 23.8652942,2.27446847 30.3465885,2.27446847 Z M16.4581008,15.9496904 C16.4581008,15.7827628 16.4711416,15.6158352 16.4841825,15.4489076 L21.3614542,12.071834 C24.2565193,10.0687029 28.1035651,9.91461593 31.1551202,11.6609353 C31.1551202,11.6609353 37.1147811,16.1551397 43.7264837,12.3414863 C44.0394637,13.4842983 44.2350762,14.6913132 44.2350762,15.9368498 C44.2350762,23.4100697 38.0145986,34.8767111 30.3465885,34.8767111 C22.6785784,34.8767111 16.4581008,23.4229103 16.4581008,15.9496904 Z M58.3061356,63.2929234 L2.40008224,63.2929234 C0.783018886,53.4185144 4.89088145,43.9293228 12.4545649,38.215263 C12.9109941,41.1685973 13.7977708,44.0063663 15.1148949,46.702889 C11.8155641,48.7445418 10.2637049,52.8406881 11.6069107,56.6029792 L13.3804641,61.5594446 L17.4100816,60.159821 L16.7058766,58.1695304 L14.6845474,58.862922 L13.6151991,55.8839065 C12.4415241,52.596717 14.2020366,48.9885129 17.54049,47.8328604 C20.8659025,46.6772078 24.5434176,48.4106866 25.7170926,51.6978761 L26.7734001,54.6768916 L24.7520709,55.3702831 L25.4562759,57.3605737 L29.4858935,55.96095 L27.7123401,50.991644 C26.1735218,46.6772078 21.4136175,44.3787433 17.0318975,45.7783669 C15.6495691,42.9534385 14.7627924,39.9487418 14.4106899,36.8284799 C16.7841216,35.3518127 19.4444517,34.2218414 22.3264759,33.5156092 C24.6607851,35.6086244 27.3732785,36.9440452 30.3335477,36.9440452 C33.2938169,36.9440452 36.0063103,35.6086244 38.3406195,33.5156092 C41.7051545,34.3374066 44.7697504,35.7370303 47.4300805,37.6117555 C46.8041204,40.4110028 45.7608538,43.0690037 44.3002804,45.5343958 C43.9351371,45.4316712 43.5569529,45.3546277 43.1526871,45.3546277 C40.7922962,45.3546277 38.8752936,47.2421935 38.8752936,49.5663392 C38.8752936,51.8904849 40.7922962,53.7780507 43.1526871,53.7780507 C45.5130779,53.7780507 47.4300805,51.8904849 47.4300805,49.5663392 C47.4300805,48.397846 46.9475696,47.3449182 46.1520788,46.5744831 C47.547448,44.1989751 48.5907146,41.6822206 49.2818788,39.0242198 C56.1804798,44.8666855 59.8319131,53.9192971 58.3061356,63.2929234 Z M45.3044246,49.6177015 C45.3044246,50.7733541 44.3394029,51.7235573 43.1657279,51.7235573 C41.9920529,51.7235573 41.0270312,50.7861947 41.0270312,49.6177015 C41.0270312,48.4492084 41.9920529,47.5118458 43.1657279,47.5118458 C44.3524437,47.5118458 45.3044246,48.462049 45.3044246,49.6177015 Z" id="Shape"></path>
                    </g>
                </g>
            </g>
        </g>
    </g>
</svg>