<?xml version="1.0" encoding="UTF-8"?>
<svg width="82px" height="96px" viewBox="0 0 82 96" version="1.1" xmlns="http://www.w3.org/2000/svg" xmlns:xlink="http://www.w3.org/1999/xlink">
    <!-- Generator: Sketch 54.1 (76490) - https://sketchapp.com -->
    <title>Corefone_ManualWeb-1</title>
    <desc>Created with Sketch.</desc>
    <g id="Services" stroke="none" stroke-width="1" fill="none" fill-rule="evenodd">
        <g id="Services---Atención-de-usuarios" transform="translate(-141.000000, -253.000000)">
            <g id="Group-29" transform="translate(135.000000, 241.000000)">
                <g id="Corefone_ManualWeb-1" transform="translate(6.000000, 13.000000)">
                    <path d="M9.48526399,60.236798 L9.48526399,33.5322864 C9.48526399,15.0878007 23.2763473,0.13559071 40.2885107,0.13559071 L40.2885107,0.13559071 C48.4580397,0.13559071 56.2929661,3.65416104 62.0696954,9.9172564 C67.8464247,16.1803518 71.0917575,24.674932 71.0917575,33.5322864 L71.0917575,60.236798" id="Shape" stroke="#FFFFFF" stroke-width="2"></path>
                    <path d="M40.3477478,89.5231311 C51.4724588,89.5231311 60.6423484,86.2990655 61.7441568,75.3038457" id="Shape" stroke="#FFFFFF" stroke-width="2"></path>
                    <path d="M47.9656276,89.317613 C48.1235634,91.5836192 46.5807312,93.5703422 44.4943387,93.7876323 L36.2011568,93.7876323 C35.2449899,93.7754705 34.3427956,93.3052043 33.7368971,92.503144 C33.05919,91.6153353 32.6939552,90.4956525 32.7061731,89.3433028 C32.5417274,87.0679353 34.0931965,85.0711645 36.1893094,84.8604386 L44.4824913,84.8604386 C45.4398111,84.8672293 46.3440017,85.338536 46.946751,86.1449269 C47.3426705,86.66246 47.6297284,87.2673789 47.7879166,87.9175208 C47.9106647,88.3721276 47.9705531,88.8439571 47.9656276,89.317613 Z" id="Shape" stroke="#FFFFFF" stroke-width="2"></path>
                    <path d="M10.3619718,39.0812758 L16.0368776,39.0812758 L16.0368776,73.852374 L10.3619718,73.852374 C6.11547406,73.852374 2.67300749,70.1200723 2.67300749,65.5160449 L2.67300749,47.40476 C2.67954351,42.8057496 6.12009646,39.0812703 10.3619718,39.0812758 Z" id="Shape" stroke="#FFFFFF" stroke-width="2"></path>
                    <path d="M72.2054133,39.0684309 L77.8803192,39.0684309 L77.8803192,73.8395291 L72.2054133,73.8395291 C67.9589156,73.8395291 64.5164491,70.1072274 64.5164491,65.5032 L64.5164491,47.3919151 C64.5229851,42.7929047 67.963538,39.0684255 72.2054133,39.0684309 Z" id="Shape" stroke="#FFFFFF" stroke-width="2" transform="translate(71.198384, 56.453980) rotate(-180.000000) translate(-71.198384, -56.453980) "></path>
                    <path d="M7.76739061,41.6502524 L14.3663939,41.6502524 L14.3663939,78.7719641 L7.76739061,78.7719641 C3.52089289,78.7719641 0.0784263237,75.0396625 0.0784263237,70.4356351 L0.0784263237,49.8838224 C0.0784263237,45.279795 3.52089289,41.5474933 7.76739061,41.5474933 L7.76739061,41.6502524 Z" id="Shape" fill-opacity="0.25" fill="#FFFFFF" fill-rule="nonzero" opacity="0.15" style="mix-blend-mode: multiply;"></path>
                    <path d="M74.8710789,36.8077315 L81.4700822,36.8077315 L81.4700822,73.9808228 L74.8710789,73.9808228 C70.6245812,73.9808228 67.1821146,70.2485211 67.1821146,65.6444937 L67.1821146,45.092681 C67.2081736,40.5087312 70.6430194,36.8076445 74.8710789,36.8077315 Z" id="Shape" fill-opacity="0.25" fill="#FFFFFF" fill-rule="nonzero" opacity="0.15" style="mix-blend-mode: multiply;" transform="translate(74.326098, 55.394277) rotate(-180.000000) translate(-74.326098, -55.394277) "></path>
                    <path d="M18.0968776,36.8976457 L18.8580075,36.8976457 C19.9957141,36.8976457 20.9180075,37.8199391 20.9180075,38.9576457 L20.9180075,73.9631592 C20.9180075,75.1008658 19.9957141,76.0231592 18.8580075,76.0231592 L18.0968776,76.0231592 C16.959171,76.0231592 16.0368776,75.1008658 16.0368776,73.9631592 L16.0368776,38.9576457 C16.0368776,37.8199391 16.959171,36.8976457 18.0968776,36.8976457 Z" id="Rectangle-path" stroke="#FFFFFF" stroke-width="2"></path>
                    <path d="M61.4702185,36.8976457 L62.2313484,36.8976457 C63.369055,36.8976457 64.2913484,37.8199391 64.2913484,38.9576457 L64.2913484,73.9631592 C64.2913484,75.1008658 63.369055,76.0231592 62.2313484,76.0231592 L61.4702185,76.0231592 C60.3325119,76.0231592 59.4102185,75.1008658 59.4102185,73.9631592 L59.4102185,38.9576457 C59.4102185,37.8199391 60.3325119,36.8976457 61.4702185,36.8976457 Z" id="Rectangle-path" stroke="#FFFFFF" stroke-width="2"></path>
                </g>
            </g>
        </g>
    </g>
</svg>