<?xml version="1.0" encoding="UTF-8"?>
<svg width="82px" height="96px" viewBox="0 0 82 96" version="1.1" xmlns="http://www.w3.org/2000/svg" xmlns:xlink="http://www.w3.org/1999/xlink">
    <!-- Generator: Sketch 54.1 (76490) - https://sketchapp.com -->
    <title>Corefone_ManualWeb-3</title>
    <desc>Created with Sketch.</desc>
    <g id="Solutions" stroke="none" stroke-width="1" fill="none" fill-rule="evenodd">
        <g id="Solutions---Solución-para-e-commerce" transform="translate(-680.000000, -904.000000)">
            <g id="Corefone_ManualWeb-3" transform="translate(682.000000, 904.000000)">
                <path d="M12.1940323,44.5727377 L12.1940323,44.5727377 L39.2069355,71.6438953 L66.2580645,44.5727377 L66.2580645,44.5727377 C59.441129,37.7665676 18.9854839,37.7665676 12.1940323,44.5727377 Z" id="Shape" fill="#558CCE" fill-rule="nonzero" opacity="0.15" style="mix-blend-mode: multiply;"></path>
                <path d="M18.373871,28.145816 L18.373871,28.145816 L39.2069355,49.0504811 L60.0527419,28.145816 L60.0527419,28.145816 C52.9045161,20.9558394 25.483871,20.9558394 18.373871,28.145816 Z" id="Shape" fill="#558CCE" fill-rule="nonzero" opacity="0.15" style="mix-blend-mode: multiply;"></path>
                <path d="M78.21,55.2553542 L39.2196774,94.4036255 L0.216612903,55.2553542 C8.64339101,46.7478753 19.611966,41.2436178 31.4470968,39.5832521 C34.0180237,39.2208444 36.6107976,39.0370334 39.2069355,39.0331294 C47.7030102,39.0546919 56.0825662,41.0191548 63.7096774,44.7774345 C69.0790072,47.454183 73.9769112,50.9934039 78.21,55.2553542 Z" id="Shape" stroke="#147EEC" stroke-width="2"></path>
                <path d="M59.8870968,26.6489703 C64.8312747,28.6394964 69.3347971,31.5916879 73.1387097,35.3357926 L63.7096774,44.7774345 C56.077657,41.0216861 47.6935787,39.0615599 39.1941935,39.0459229 C36.5980557,39.0498269 34.0052817,39.2336379 31.4343548,39.5960457 C25.6144809,40.418259 19.9624975,42.1673656 14.6914516,44.7774345 L5.27516129,35.3229991 C9.08535258,31.5806444 13.5926604,28.6288097 18.5395161,26.6361768" id="Shape" stroke="#147EEC" stroke-width="2"></path>
                <path d="M66.8059677,19.6892776 L59.8870968,26.6489703 C46.6209104,21.3378972 31.8311864,21.3378972 18.565,26.6489703 L11.6333871,19.6892776 C17.3290323,13.9449725 28.2743548,9.79986139 39.2196774,9.79986139 C50.165,9.79986139 61.0848387,13.9449725 66.8059677,19.6892776 Z" id="Shape" stroke="#147EEC" stroke-width="2"></path>
                <path d="M17.4691935,9.31370638 L17.4691935,9.31370638 L39.2069355,31.1523009 L60.9574194,9.31370638 L60.9574194,9.31370638 C55.1911112,3.52233304 47.3692992,0.268629924 39.2133065,0.268629924 C31.0573137,0.268629924 23.2355017,3.52233304 17.4691935,9.31370638 Z" id="Shape" fill="#558CCE" fill-rule="nonzero" opacity="0.15" style="mix-blend-mode: multiply;"></path>
            </g>
        </g>
    </g>
</svg>