<?xml version="1.0" encoding="UTF-8"?>
<svg width="187px" height="19px" viewBox="0 0 187 19" version="1.1" xmlns="http://www.w3.org/2000/svg" xmlns:xlink="http://www.w3.org/1999/xlink">
    <!-- Generator: Sketch 54.1 (76490) - https://sketchapp.com -->
    <title>Logo_Cf_1</title>
    <desc>Created with Sketch.</desc>
    <g id="Home" stroke="none" stroke-width="1" fill="none" fill-rule="evenodd">
        <g transform="translate(-135.000000, -32.000000)" fill-rule="nonzero" id="Logo_Cf_1">
            <g transform="translate(135.000000, 32.000000)">
                <path d="M0.0044053875,9.55274827 L0.0044053875,9.50095703 C-0.0604201396,7.00070838 0.881664606,4.58049243 2.61601312,2.79173609 C4.35036164,1.00297976 6.72924641,-0.00195512579 9.2106575,0.0058978503 C11.4979495,-0.0760761633 13.7342896,0.69885836 15.4880369,2.18112959 C15.7094494,2.36379172 15.8460766,2.63059913 15.8655397,2.91832259 C15.8850029,3.20604605 15.7855697,3.48907612 15.5908043,3.70033906 L15.5908043,3.70033906 C15.221006,4.10091987 14.6058764,4.14250577 14.1863156,3.79528965 C12.8011819,2.57778819 11.0227806,1.91173756 9.18496564,1.92217343 C5.15134262,1.92217343 2.11970238,5.18502104 2.11970238,9.4491658 L2.11970238,9.50095703 C2.11970238,13.747838 5.16847053,17.0797406 9.16783772,17.0797406 C11.1144289,17.1043787 12.9941267,16.3644922 14.4089785,15.0167232 C14.7855965,14.6952726 15.3436299,14.7177709 15.6935718,15.0685145 L15.6935718,15.0685145 C15.8890601,15.2529398 16,15.5107607 16,15.7806439 C16,16.0505271 15.8890601,16.308348 15.6935718,16.4927733 C13.9208185,18.1678364 11.5624588,19.0677687 9.1335819,18.9960162 C6.66653559,19.0089387 4.30032754,18.0101839 2.5785972,16.229217 C0.85686686,14.4482502 -0.0723608457,12.038189 0.0044053875,9.55274827 L0.0044053875,9.55274827 Z" id="Shape" fill="#0A0A0A"></path>
                <path d="M24.0000365,9.55238963 L24.0000365,9.50000012 C23.990652,6.11534844 25.7926633,2.98280858 28.7272701,1.28237803 C31.6618769,-0.418052517 35.2832426,-0.428037901 38.2272338,1.25618328 C41.1712249,2.94040446 42.9905793,6.06295894 42.9999635,9.44761062 L42.9999635,9.50000012 C43.0093479,12.8846517 41.2073366,16.0171915 38.2727298,17.717622 C35.338123,19.4180525 31.7167574,19.4280379 28.7727663,17.7438168 C25.8287752,16.0595956 24.0094208,12.9370413 24.0000365,9.55238963 L24.0000365,9.55238963 Z M40.8110318,9.55238963 L40.8110318,9.50000012 C40.8868705,7.50348317 40.1485037,5.56147675 38.7643695,4.11699656 C37.3802354,2.67251637 35.468393,1.84876874 33.4649771,1.83366919 C29.2096939,1.83366919 26.1714567,5.23025544 26.1714567,9.44761062 L26.1714567,9.50000012 C26.095618,11.4965171 26.8339848,13.4385235 28.218119,14.8830037 C29.6022532,16.3274839 31.5140955,17.1512315 33.5175115,17.1663311 C37.7815504,17.1663311 40.8110318,13.7697448 40.8110318,9.55238963 L40.8110318,9.55238963 Z" id="Shape" fill="#0A0A0A"></path>
                <path d="M52,0.00882444542 L59.6289939,0.00882444542 C61.4652352,-0.0867163809 63.2626517,0.596589674 64.6316128,1.91062059 C65.5333411,2.91365231 66.025322,4.25968786 65.9989953,5.65171253 L65.9989953,5.70528425 C65.9989953,8.85708724 63.9729346,10.696383 61.1881434,11.2410289 L65.4570449,17.3214194 C65.6763582,17.6401067 65.7103386,18.0635501 65.5450138,18.4176341 C65.379689,18.771718 65.0429658,18.9966731 64.6733013,19 L64.6733013,19 C64.3650944,18.9993011 64.0750039,18.843976 63.8895576,18.5803548 L59.0370173,11.6249596 L54.0010476,11.6249596 L54.0010476,17.9285656 C54.0010476,18.5203025 53.5530978,19 53.0005238,19 L53.0005238,19 C52.4479498,19 52,18.5203025 52,17.9285656 L52,0.00882444542 Z M59.4455645,9.69637756 C62.1052902,9.69637756 64.0062854,8.23208382 64.0062854,5.78564183 L64.0062854,5.73207011 C64.0062854,3.40170019 62.3387458,1.99097817 59.4705776,1.99097817 L54.0010476,1.99097817 L54.0010476,9.69637756 L59.4455645,9.69637756 Z" id="Shape" fill="#0A0A0A"></path>
                <path d="M76,0 L87.9845061,0 C88.2271219,-3.17504985e-15 88.4598007,0.10263124 88.6313559,0.285316019 C88.8029111,0.468000798 88.8992899,0.715774529 88.8992899,0.974129821 L88.8992899,0.974129821 C88.8992899,1.51212687 88.4897272,1.94825964 87.9845061,1.94825964 L78.0142027,1.94825964 L78.0142027,8.43650047 L86.8347321,8.43650047 C87.3399532,8.43650047 87.7495158,8.87263325 87.7495158,9.41063029 L87.7495158,9.41063029 C87.7540214,9.67206846 87.6596353,9.92445892 87.4875894,10.1110279 C87.3155434,10.2975969 87.0802842,10.4026781 86.8347321,10.4026341 L78.0142027,10.4026341 L78.0142027,17.0517404 L88.0852163,17.0517404 C88.5904374,17.0517404 89,17.4878731 89,18.0258702 L89,18.0258702 C89,18.2842255 88.9036213,18.5319992 88.732066,18.714684 C88.5605108,18.8973688 88.327832,19 88.0852163,19 L76,19 L76,0 Z" id="Shape" fill="#0A0A0A"></path>
                <path d="M120.000037,9.55238988 L120.000037,9.50000037 C119.98553,4.26778244 124.227048,0.0145039618 129.473733,3.69998109e-05 C134.720418,-0.0144299622 138.985457,4.21539294 138.999964,9.44761087 L138.999964,9.50000037 C139.009348,12.8846519 137.207337,16.0171916 134.27273,17.717622 C131.338123,19.4180525 127.716758,19.4280379 124.772767,17.7438168 C121.828776,16.0595957 120.009421,12.9370414 120.000037,9.55238988 Z M136.811032,9.55238988 L136.811032,9.50000037 C136.886871,7.50348347 136.148504,5.5614771 134.76437,4.11699695 C133.380236,2.67251679 131.468393,1.84876919 129.464977,1.83366964 C125.209694,1.83366964 122.171457,5.2302558 122.171457,9.44761087 L122.171457,9.50000037 C122.095619,11.4965173 122.833985,13.4385236 124.218119,14.8830038 C125.602254,16.3274839 127.514096,17.1512316 129.517512,17.1663311 C133.781551,17.1663311 136.819788,13.7697449 136.819788,9.55238988 L136.811032,9.55238988 Z" id="Shape" fill="#0A0A0A"></path>
                <path d="M149.267396,2.98190151e-05 L149.267396,2.98190151e-05 C149.654937,-7.41629918e-05 150.020929,0.191033748 150.259612,0.518129617 L161.057258,15.2303773 L161.057258,1.04516217 C161.057238,0.47142205 161.488943,0.00493358035 162.02446,2.98190151e-05 L162.02446,2.98190151e-05 C162.563236,2.98190151e-05 163,0.467951511 163,1.04516217 L163,17.8476746 C163,18.4840863 162.518439,19 161.924404,19 L161.924404,19 C161.598976,18.9967506 161.29242,18.8358222 161.090609,18.562295 L149.951108,3.42127504 L149.951108,17.9548676 C149.951108,18.5320783 149.514344,19 148.975568,19 L148.975568,19 C148.436792,19 148.000028,18.5320783 148.000028,17.9548676 L148.000028,1.3578086 C147.99779,0.996973591 148.130597,0.650222412 148.368762,0.395067897 C148.606926,0.139913382 148.930588,-0.00236783537 149.267396,2.98190151e-05 Z" id="Shape" fill="#0A0A0A"></path>
                <path d="M174,0 L185.984506,0 C186.489727,0 186.89929,0.436132777 186.89929,0.974129821 L186.89929,0.974129821 C186.89929,1.51212687 186.489727,1.94825964 185.984506,1.94825964 L176.014203,1.94825964 L176.014203,8.43650047 L184.834732,8.43650047 C185.339953,8.43650047 185.749516,8.87263325 185.749516,9.41063029 L185.749516,9.41063029 C185.754021,9.67206846 185.659635,9.92445892 185.487589,10.1110279 C185.315543,10.2975969 185.080284,10.4026781 184.834732,10.4026341 L176.014203,10.4026341 L176.014203,17.0517404 L186.085216,17.0517404 C186.590437,17.0517404 187,17.4878731 187,18.0258702 L187,18.0258702 C187,18.5638672 186.590437,19 186.085216,19 L174,19 L174,0 Z" id="Shape" fill="#0A0A0A"></path>
                <polygon id="Shape" fill="#FF5C39" points="99 0 99 19 118 0"></polygon>
            </g>
        </g>
    </g>
</svg>