<?xml version="1.0" encoding="UTF-8"?>
<svg width="84px" height="85px" viewBox="0 0 84 85" version="1.1" xmlns="http://www.w3.org/2000/svg" xmlns:xlink="http://www.w3.org/1999/xlink">
    <!-- Generator: Sketch 54.1 (76490) - https://sketchapp.com -->
    <title>Corefone_ManualWeb-7</title>
    <desc>Created with Sketch.</desc>
    <g id="Home" stroke="none" stroke-width="1" fill="none" fill-rule="evenodd">
        <g transform="translate(-769.000000, -1211.000000)" id="Group-19">
            <g transform="translate(357.000000, 961.000000)">
                <g id="Group-26" transform="translate(394.000000, 250.000000)">
                    <g id="Corefone_ManualWeb-7" transform="translate(18.726750, 0.000000)">
                        <path d="M34.5601534,43.4626328 L42.2150114,43.4626328 L42.2150114,32.9737287 L42.6785625,32.9737287 C43.9130598,33.0060051 45.0864102,33.5305383 45.9484773,34.4355075 C46.9766395,35.4636788 48.3572364,36.039012 49.7946989,36.0383352 C52.6803471,36.0510925 55.1008355,33.8128111 55.3802495,30.8732477 C55.6596634,27.9336843 53.7060832,25.2598783 50.872142,24.703138 C49.0897465,24.3443975 47.2489356,24.9052949 45.9484773,26.2033847 C45.085138,27.1047816 43.9115626,27.6248133 42.6785625,27.6523409 L42.2150114,27.6523409 L42.2150114,17.1634368 L31.9667727,17.1634368 L31.9667727,16.5735962 C32.0015424,15.3145863 32.5137879,14.1188716 33.3950114,13.2397147 C34.3995916,12.1874076 34.9617238,10.7743893 34.9610625,9.30317004 C34.9610625,6.14471484 32.4593772,3.584281 29.373392,3.584281 L29.2606364,3.584281 C27.778694,3.584281 26.3574482,4.18680508 25.3095567,5.25930482 C24.2616652,6.33180456 23.6729659,7.78642636 23.6729659,9.30317004 C23.6723046,10.7743893 24.2344369,12.1874076 25.239017,13.2397147 C26.1232219,14.1220263 26.6357198,15.3229312 26.6672557,16.5864189 L26.6672557,17.1762594 L16.419017,17.1762594 L16.419017,27.6651635 L15.9554659,27.6651635 C14.7224658,27.6376359 13.5488904,27.1176042 12.6855511,26.2162073 C11.236512,24.7770491 9.13929017,24.2545477 7.20609201,24.8510559 C5.27289385,25.4475642 3.80731592,27.0694043 3.37694318,29.0884745 C3.00788488,30.7836487 3.41147157,32.5586199 4.47389112,33.9128432 C5.53631066,35.2670665 7.14243324,36.0537905 8.83932955,36.0511578 C10.276792,36.0518346 11.6573889,35.4765015 12.6855511,34.4483301 C13.5476182,33.5433609 14.7209687,33.0188277 15.9554659,32.9865513 L16.419017,32.9865513 L16.419017,43.4754554 L24.0488182,43.4754554" id="Shape" stroke="#147EEC" stroke-width="2"></path>
                        <path d="M13.387142,39.9620572 L23.6353807,39.9620572 L23.6353807,39.3722167 C23.6038448,38.108729 23.0913469,36.9078241 22.207142,36.0255125 C21.2025619,34.9732054 20.6404296,33.5601871 20.6410909,32.0889678 C20.6410909,28.9305126 23.1427762,26.3700788 26.2287614,26.3700788 L26.341517,26.3700788 C29.4275022,26.3700788 31.9291875,28.9305126 31.9291875,32.0889678 C31.9164982,33.5674633 31.335964,34.9814892 30.3130227,36.0255125 C29.4288178,36.9078241 28.9163199,38.108729 28.8847841,39.3722167 L28.8847841,39.9620572 L39.1330227,39.9620572 L39.1330227,29.4859757 L39.5965739,29.4859757 C40.8310711,29.5182522 42.0044215,30.0427854 42.8664886,30.9477546 C43.9190785,31.9603519 45.3186532,32.5084566 46.7628239,32.4736465 C49.5455775,32.3563354 51.8190486,30.1595407 52.0933679,27.3228835 C52.3676872,24.4862264 50.5590877,21.8759162 47.8527955,21.2025625 C46.0703999,20.843822 44.229589,21.4047193 42.9291307,22.7028091 C42.0657914,23.604206 40.8922161,24.1242377 39.6592159,24.1517653 L39.1956648,24.1517653 L39.1956648,13.6756839 L28.9348977,13.6756839 L28.9348977,13.0858433 C28.9531245,11.8296333 29.4472213,10.6297451 30.3130227,9.73913916 C31.3176029,8.68683202 31.8797352,7.27381374 31.8790739,5.80259446 C31.8790739,2.64413926 29.3773886,0.0837054263 26.2914034,0.0837054263 L26.1786477,0.0837054263 C23.0926625,0.0837054263 20.5909773,2.64413926 20.5909773,5.80259446 C20.5903159,7.27381374 21.1524482,8.68683202 22.1570284,9.73913916 C23.0412333,10.6214507 23.5537312,11.8223556 23.585267,13.0858433 L23.585267,13.6756839 L13.387142,13.6756839 L13.387142,24.164588 L12.9235909,24.164588 C11.6905908,24.1370603 10.5170154,23.6170287 9.65367614,22.7156318 C8.20463696,21.2764735 6.10741517,20.7539721 4.17421701,21.3504803 C2.24101885,21.9469886 0.775440919,23.5688287 0.345068182,25.5878989 C0.00260423247,27.2695701 0.416864538,29.0197261 1.47332722,30.354538 C2.52978991,31.6893499 4.11654155,32.4674182 5.79492614,32.4736465 C7.22360997,32.4915327 8.60302172,31.939687 9.64114773,30.9349319 C10.5032148,30.0299627 11.6765652,29.5054296 12.9110625,29.4731531 L13.3746136,29.4731531 L13.387142,39.9620572 Z" id="Shape" fill="#558CCE" fill-rule="nonzero" opacity="0.15" style="mix-blend-mode: multiply;"></path>
                        <path d="M42.3528239,43.3600518 L42.3528239,43.4754554 L52.6010625,43.4754554 L52.6010625,43.9498924 C52.5695266,45.2133801 52.0570288,46.414285 51.1728239,47.2965965 C50.1682437,48.3489037 49.6061114,49.7619219 49.6067727,51.2331412 C49.5943081,54.1865549 51.7812326,56.663885 54.6533484,56.9498606 C57.5254642,57.2358362 60.1379203,55.2363789 60.6818864,52.3358866 C61.0323957,50.511634 60.484368,48.6275943 59.2160625,47.2965965 C58.335348,46.412983 57.8272483,45.2118478 57.8003523,43.9498924 L57.8003523,43.4754554 L68.0485909,43.4754554 L68.0485909,32.9865513 L68.6248977,32.9865513 C69.859395,33.0188277 71.0327454,33.5433609 71.8948125,34.4483301 C72.9229747,35.4765015 74.3035716,36.0518346 75.7410341,36.0511578 C78.8270193,36.0511578 81.3287045,33.4907239 81.3287045,30.3322687 C81.3287045,30.3322687 81.3287045,30.3322687 81.3287045,30.3322687 C81.3287045,30.3322687 81.3287045,30.3322687 81.3287045,30.3322687 C81.3287045,27.1738135 78.8270193,24.6133797 75.7410341,24.6133797 C74.3244476,24.571159 72.9466105,25.0902205 71.8948125,26.0623359 C71.0327454,26.9673051 69.859395,27.4918383 68.6248977,27.5241147 L68.0485909,27.5241147 L68.0485909,17.0865011 L57.8003523,17.0865011 L57.8003523,16.6120641 C57.8240318,15.3393295 58.3372503,14.1275209 59.2285909,13.2397147 C60.634728,11.7566469 61.1452408,9.61017482 60.5624193,7.63157822 C59.9795977,5.65298161 58.3949704,4.15298665 56.4222273,3.71250721 C54.7659484,3.3347821 53.0317035,3.74784646 51.7085526,4.83521543 C50.3854016,5.9225844 49.6167288,7.56642451 49.6193011,9.30317004 C49.6152881,10.7725827 50.172826,12.1853542 51.1728239,13.2397147 C52.0570288,14.1220263 52.5695266,15.3229312 52.6010625,16.5864189 L52.6010625,17.0865011 L42.3528239,17.0865011 L42.3528239,17.2019047" id="Shape" stroke="#147EEC" stroke-width="2"></path>
                        <path d="M50.0076818,43.4626328 L42.3528239,43.4626328 L42.3528239,53.9515369 L41.8892727,53.9515369 C40.6547755,53.9192605 39.4814251,53.3947273 38.619358,52.4897581 C37.5911958,51.4615868 36.2105989,50.8862536 34.7731364,50.8869305 C31.8874881,50.8741731 29.4669997,53.1124545 29.1875858,56.0520179 C28.9081718,58.9915813 30.8617521,61.6653873 33.6956932,62.2221276 C35.4843804,62.5709513 37.326145,61.9953739 38.619358,60.683413 C39.4826972,59.7820161 40.6562726,59.2619844 41.8892727,59.2344568 L42.3528239,59.2344568 L42.3528239,69.7233609 L52.6010625,69.7233609 L52.6010625,70.3132015 C52.5695266,71.5766892 52.0570288,72.7775941 51.1728239,73.6599056 C50.1682437,74.7122128 49.6061114,76.125231 49.6067727,77.5964503 C49.6067727,80.7549055 52.108458,83.3153394 55.1944432,83.3153394 L55.3698409,83.3153394 C58.4558261,83.3153394 60.9575114,80.7549055 60.9575114,77.5964503 C60.9581727,76.125231 60.3960404,74.7122128 59.3914602,73.6599056 C58.4808623,72.7986727 57.9365839,71.6062879 57.8755227,70.3388467 L57.8755227,69.7490062 L68.1237614,69.7490062 L68.1237614,59.2729247 L68.5873125,59.2729247 C69.8280274,59.2802141 71.0161158,59.7868762 71.8948125,60.683413 C73.3438517,62.1225713 75.4410735,62.6450727 77.3742716,62.0485644 C79.3074698,61.4520562 80.7730477,59.8302161 81.2034205,57.8111459 C81.5724788,56.1159716 81.1688921,54.3410004 80.1064725,52.9867771 C79.044053,51.6325539 77.4379304,50.8458298 75.7410341,50.8484626 C74.3035716,50.8477857 72.9229747,51.4231189 71.8948125,52.4512902 C71.0327454,53.3562594 69.859395,53.8807926 68.6248977,53.913069 L68.1613466,53.913069 L68.1613466,43.4626328 L60.5064886,43.4626328" id="Shape" stroke="#147EEC" stroke-width="2"></path>
                        <path d="M42.2150114,43.5652138 L42.2150114,43.4498102 L31.9667727,43.4498102 L31.9667727,42.9753732 C31.9983086,41.7118855 32.5108065,40.5109806 33.3950114,39.6286691 C34.3995916,38.5763619 34.9617238,37.1633437 34.9610625,35.6921244 C34.9735271,32.7387107 32.7866026,30.2613806 29.9144868,29.975405 C27.042371,29.6894294 24.4299149,31.6888867 23.8859489,34.589379 C23.5224311,36.405094 24.0513684,38.2878722 25.3016591,39.6286691 C26.1823736,40.5122826 26.6904733,41.7134178 26.7173693,42.9753732 L26.7173693,43.4498102 L16.5317727,43.4498102 L16.5317727,53.9387143 L15.9554659,53.9387143 C14.7209687,53.9064379 13.5476182,53.3819047 12.6855511,52.4769355 C11.6573889,51.4487641 10.276792,50.873431 8.83932955,50.8741078 C5.75334437,50.8741078 3.25165909,53.4345417 3.25165909,56.5929969 C3.25165909,56.5929969 3.25165909,56.5929969 3.25165909,56.5929969 C3.25165909,56.5929969 3.25165909,56.5929969 3.25165909,56.5929969 C3.25165909,59.7514521 5.75334437,62.3118859 8.83932955,62.3118859 C10.276792,62.3125628 11.6573889,61.7372296 12.6855511,60.7090583 C13.5683955,59.8634717 14.7338199,59.3955299 15.9429375,59.4011509 L16.5317727,59.4011509 L16.5317727,69.890055 L26.7800114,69.890055 L26.7800114,70.364492 C26.7301182,71.6266836 26.1994782,72.818745 25.3016591,73.6855509 C23.895522,75.1686187 23.3850092,77.3150908 23.9678307,79.2936874 C24.5506523,81.272284 26.1352796,82.772279 28.1080227,83.2127584 C29.7643016,83.5904835 31.4985465,83.1774191 32.8216974,82.0900502 C34.1448484,81.0026812 34.9135212,79.3588411 34.9109489,77.6220956 C34.9116102,76.1508763 34.3494779,74.737858 33.3448977,73.6855509 C32.4606928,72.8032393 31.9481949,71.6023344 31.9166591,70.3388467 L31.9166591,69.8644098 L42.2150114,69.8644098 L42.2150114,69.7490062" id="Shape" stroke="#147EEC" stroke-width="2"></path>
                    </g>
                </g>
            </g>
        </g>
    </g>
</svg>