<?xml version="1.0" encoding="UTF-8"?>
<svg width="88px" height="96px" viewBox="0 0 88 96" version="1.1" xmlns="http://www.w3.org/2000/svg" xmlns:xlink="http://www.w3.org/1999/xlink">
    <!-- Generator: Sketch 54.1 (76490) - https://sketchapp.com -->
    <title>Corefone_ManualWeb-1</title>
    <desc>Created with Sketch.</desc>
    <g id="Home" stroke="none" stroke-width="1" fill="none" fill-rule="evenodd">
        <g transform="translate(-362.000000, -961.000000)" id="Group-19">
            <g transform="translate(357.000000, 961.000000)">
                <g id="Group-31" transform="translate(0.000000, 1.000000)">
                    <g id="Corefone_ManualWeb-1" transform="translate(5.021978, 0.000000)">
                        <path d="M10.1793077,60.236798 L10.1793077,33.5322864 C10.1793077,15.0878007 24.9794947,0.13559071 43.2364505,0.13559071 L43.2364505,0.13559071 C52.0037499,0.13559071 60.4119636,3.65416104 66.6113804,9.9172564 C72.8107973,16.1803518 76.2935934,24.674932 76.2935934,33.5322864 L76.2935934,60.236798" id="Shape" stroke="#147EEC" stroke-width="2"></path>
                        <path d="M43.300022,89.5231311 C55.2387363,89.5231311 65.0795934,86.2990655 66.262022,75.3038457" id="Shape" stroke="#147EEC" stroke-width="2"></path>
                        <path d="M51.4753077,89.317613 C51.6447998,91.5836192 49.9890774,93.5703422 47.750022,93.7876323 L38.850022,93.7876323 C37.8238916,93.7754705 36.8556831,93.3052043 36.2054505,92.503144 C35.4781551,91.6153353 35.0861958,90.4956525 35.0993077,89.3433028 C34.9228294,87.0679353 36.5878207,85.0711645 38.8373077,84.8604386 L47.7373077,84.8604386 C48.7646753,84.8672293 49.7350262,85.338536 50.3818791,86.1449269 C50.8067684,86.66246 51.1148304,87.2673789 51.2845934,87.9175208 C51.4163231,88.3721276 51.4805936,88.8439571 51.4753077,89.317613 Z" id="Shape" stroke="#147EEC" stroke-width="2"></path>
                        <path d="M11.1201648,39.0812758 L17.2103077,39.0812758 L17.2103077,73.852374 L11.1201648,73.852374 C6.56294777,73.852374 2.86859341,70.1200723 2.86859341,65.5160449 L2.86859341,47.40476 C2.87560767,42.8057496 6.5679084,39.0812703 11.1201648,39.0812758 Z" id="Shape" stroke="#147EEC" stroke-width="2"></path>
                        <path d="M77.4887363,39.0684309 L83.5788791,39.0684309 L83.5788791,73.8395291 L77.4887363,73.8395291 C72.9315192,73.8395291 69.2371648,70.1072274 69.2371648,65.5032 L69.2371648,47.3919151 C69.2441791,42.7929047 72.9364798,39.0684255 77.4887363,39.0684309 Z" id="Shape" stroke="#147EEC" stroke-width="2" transform="translate(76.408022, 56.453980) rotate(-180.000000) translate(-76.408022, -56.453980) "></path>
                        <path d="M8.33573626,41.6502524 L15.4175934,41.6502524 L15.4175934,78.7719641 L8.33573626,78.7719641 C3.7785192,78.7719641 0.0841648352,75.0396625 0.0841648352,70.4356351 L0.0841648352,49.8838224 C0.0841648352,45.279795 3.7785192,41.5474933 8.33573626,41.5474933 L8.33573626,41.6502524 Z" id="Shape" fill="#558CCE" fill-rule="nonzero" opacity="0.15" style="mix-blend-mode: multiply;"></path>
                        <path d="M80.3494505,36.8077315 L87.4313077,36.8077315 L87.4313077,73.9808228 L80.3494505,73.9808228 C75.7922335,73.9808228 72.0978791,70.2485211 72.0978791,65.6444937 L72.0978791,45.092681 C72.1258448,40.5087312 75.8120208,36.8076445 80.3494505,36.8077315 Z" id="Shape" fill="#558CCE" fill-rule="nonzero" opacity="0.15" style="mix-blend-mode: multiply;" transform="translate(79.764593, 55.394277) rotate(-180.000000) translate(-79.764593, -55.394277) "></path>
                        <path d="M19.2703077,36.8976457 L20.3885934,36.8976457 C21.5263,36.8976457 22.4485934,37.8199391 22.4485934,38.9576457 L22.4485934,73.9631592 C22.4485934,75.1008658 21.5263,76.0231592 20.3885934,76.0231592 L19.2703077,76.0231592 C18.1326011,76.0231592 17.2103077,75.1008658 17.2103077,73.9631592 L17.2103077,38.9576457 C17.2103077,37.8199391 18.1326011,36.8976457 19.2703077,36.8976457 Z" id="Rectangle-path" stroke="#147EEC" stroke-width="2"></path>
                        <path d="M65.8173077,36.8976457 L66.9355934,36.8976457 C68.0733,36.8976457 68.9955934,37.8199391 68.9955934,38.9576457 L68.9955934,73.9631592 C68.9955934,75.1008658 68.0733,76.0231592 66.9355934,76.0231592 L65.8173077,76.0231592 C64.6796011,76.0231592 63.7573077,75.1008658 63.7573077,73.9631592 L63.7573077,38.9576457 C63.7573077,37.8199391 64.6796011,36.8976457 65.8173077,36.8976457 Z" id="Rectangle-path" stroke="#147EEC" stroke-width="2"></path>
                    </g>
                </g>
            </g>
        </g>
    </g>
</svg>