<?xml version="1.0" encoding="UTF-8"?>
<svg width="69px" height="91px" viewBox="0 0 69 91" version="1.1" xmlns="http://www.w3.org/2000/svg" xmlns:xlink="http://www.w3.org/1999/xlink">
    <!-- Generator: Sketch 54.1 (76490) - https://sketchapp.com -->
    <title>Group 33</title>
    <desc>Created with Sketch.</desc>
    <g id="Home" stroke="none" stroke-width="1" fill="none" fill-rule="evenodd">
        <g id="Group-45" transform="translate(-295.000000, -3.000000)" fill-rule="nonzero">
            <g id="Group-44" transform="translate(234.000000, 3.000000)">
                <g id="Group-33" transform="translate(61.000000, 0.000000)">
                    <path d="M13.0856754,89.2751694 L9.2009402,87.4818078 L5.26594857,84.1243244 L3,80.5243758 L3,12.2346813 L3,6.69765525 L6.73043907,3.93619575 L11.4219225,2 L57.6261127,2 L62.429571,3.93619575 L65.2307067,6.69765525 C65.2307067,7.4911781 65.2307067,8.61239649 65.2307067,10.0613104 C65.2307067,11.5102244 65.2307067,13.1989585 65.2307067,15.127513 L63.6163285,84.1243244 L62.429571,86.3752843 L58.9451241,87.4818078 L55.6123281,89.2751694 L13.0856754,89.2751694 Z" id="Path-2" fill="#FFFFFF"></path>
                    <g id="Group-26">
                        <path d="M54.5970066,90.678673 L14.1143778,90.678673 C7.78987689,90.6806522 2.61700648,85.8507938 2.45538068,79.7927818 L0.602895582,12.4293479 C0.518981034,9.41524043 1.71019051,6.49661778 3.90583781,4.33669735 C6.10148511,2.17677693 9.1151048,0.958990074 12.2618927,0.960062333 L56.4365372,0.960062333 C59.5833251,0.958990074 62.5969448,2.17677693 64.7925921,4.33669735 C66.9882394,6.49661778 68.1794489,9.41524043 68.0955343,12.4293479 L66.2689581,79.7927818 C66.1072098,85.8556195 60.926539,90.6873923 54.5970066,90.678673 L54.5970066,90.678673 Z M12.2748471,3.44259168 C9.82657581,3.44172737 7.48196694,4.38946041 5.77411079,6.07030611 C4.06625465,7.75115182 3.14028502,10.0222717 3.20673827,12.3672847 L5.04626892,79.7307186 C5.16583749,84.4468352 9.19095742,88.2099477 14.1143778,88.2085563 L54.5970066,88.2085563 C59.5204269,88.2099477 63.5455469,84.4468352 63.6651154,79.7307186 L65.5046461,12.3672847 C65.5710993,10.0222717 64.6451297,7.75115182 62.9372736,6.07030611 C61.2294174,4.38946041 58.8848085,3.44172737 56.4365372,3.44259168 L12.2748471,3.44259168 Z" id="Shape" fill="#147EEC"></path>
                        <path d="M52.5502049,30.6511133 L16.1611795,30.6511133 C11.8684553,30.6511133 8.38851475,27.3167146 8.38851475,23.2035253 C8.38851475,19.090336 11.8684553,15.7559373 16.1611795,15.7559373 L52.5631593,15.7559373 C56.8558835,15.7559373 60.335824,19.090336 60.335824,23.2035253 C60.335824,27.3167146 56.8558835,30.6511133 52.5631593,30.6511133 L52.5502049,30.6511133 Z M16.148225,18.2384666 C13.2864089,18.2384666 10.9664486,20.4613991 10.9664486,23.2035253 C10.9664486,25.9456515 13.2864089,28.168584 16.148225,28.168584 L52.5502049,28.168584 C55.412021,28.168584 57.7319813,25.9456515 57.7319813,23.2035253 C57.7319813,20.4613991 55.412021,18.2384666 52.5502049,18.2384666 L16.148225,18.2384666 Z" id="Shape" fill="#63D50A"></path>
                        <g id="Group" opacity="0.14" transform="translate(8.841920, 12.039131)" fill="#63D50A">
                            <path d="M5.8361298,0.191614087 L49.7643319,0.191614087 C52.5368014,0.191614087 54.7843319,2.43914464 54.7843319,5.21161409 L54.7843319,11.0970399 C54.7843319,13.8695093 52.5368014,16.1170399 49.7643319,16.1170399 L5.8361298,16.1170399 C3.06366035,16.1170399 0.816129797,13.8695093 0.816129797,11.0970399 L0.816129797,5.21161409 C0.816129797,2.43914464 3.06366035,0.191614087 5.8361298,0.191614087 Z" id="Rectangle-path"></path>
                        </g>
                        <path d="M19.1147921,50.2755078 C16.5566982,50.2755027 14.2507371,48.7983248 13.2730115,46.5333159 C12.295286,44.268307 12.8385281,41.6619524 14.6492279,39.9305369 C16.4599278,38.1991214 19.1811547,37.6839467 21.5430174,38.625425 C23.9048802,39.5669033 25.4418014,41.7794474 25.4365594,44.2305489 C25.4294152,47.5710944 22.601155,50.2755149 19.1147921,50.2755078 L19.1147921,50.2755078 Z M19.1147921,40.6557066 C17.0542845,40.6557066 15.383913,42.256218 15.383913,44.2305489 C15.383913,46.2048797 17.0542845,47.8053911 19.1147921,47.8053911 C21.1752997,47.8053911 22.8456712,46.2048797 22.8456712,44.2305489 C22.8456712,42.256218 21.1752997,40.6557066 19.1147921,40.6557066 L19.1147921,40.6557066 Z" id="Shape" fill="#FF5C39"></path>
                        <path d="M34.3621694,50.2755078 C31.8040755,50.2755027 29.4981144,48.7983248 28.5203888,46.5333159 C27.5426633,44.268307 28.0859054,41.6619524 29.8966053,39.9305369 C31.7073051,38.1991214 34.428532,37.6839467 36.7903947,38.625425 C39.1522575,39.5669033 40.6891787,41.7794474 40.6839367,44.2305489 C40.6767925,47.5710944 37.8485323,50.2755149 34.3621694,50.2755078 Z M34.3621694,40.6557066 C32.3016618,40.6557066 30.6312903,42.256218 30.6312903,44.2305489 C30.6312903,46.2048797 32.3016618,47.8053911 34.3621694,47.8053911 C36.422677,47.8053911 38.0930485,46.2048797 38.0930485,44.2305489 C38.0930485,42.256218 36.422677,40.6557066 34.3621694,40.6557066 L34.3621694,40.6557066 Z" id="Shape" fill="#FF5C39"></path>
                        <path d="M49.5965923,50.2755078 C47.0384984,50.2755027 44.7325373,48.7983248 43.7548117,46.5333159 C42.7770861,44.268307 43.3203283,41.6619524 45.1310281,39.9305369 C46.941728,38.1991214 49.6629548,37.6839467 52.0248176,38.625425 C54.3866804,39.5669033 55.9236016,41.7794474 55.9183596,44.2305489 C55.9112154,47.5710944 53.0829552,50.2755149 49.5965923,50.2755078 Z M49.5965923,40.6557066 C47.5360847,40.6557066 45.8657132,42.256218 45.8657132,44.2305489 C45.8657132,46.2048797 47.5360847,47.8053911 49.5965923,47.8053911 C51.6570999,47.8053911 53.3274713,46.2048797 53.3274713,44.2305489 C53.3274713,42.256218 51.6570999,40.6557066 49.5965923,40.6557066 L49.5965923,40.6557066 Z" id="Shape" fill="#FF5C39"></path>
                        <path d="M19.1147921,64.7734792 C16.5566982,64.7734741 14.2507371,63.2962962 13.2730115,61.0312873 C12.295286,58.7662784 12.8385281,56.1599238 14.6492279,54.4285083 C16.4599278,52.6970928 19.1811547,52.1819181 21.5430174,53.1233964 C23.9048802,54.0648747 25.4418014,56.2774188 25.4365594,58.7285203 C25.4294152,62.0690658 22.601155,64.7734863 19.1147921,64.7734792 L19.1147921,64.7734792 Z M19.1147921,55.153678 C17.0542845,55.153678 15.383913,56.7541894 15.383913,58.7285203 C15.383913,60.7028511 17.0542845,62.3033625 19.1147921,62.3033625 C21.1752997,62.3033625 22.8456712,60.7028511 22.8456712,58.7285203 C22.8456712,56.7541894 21.1752997,55.153678 19.1147921,55.153678 L19.1147921,55.153678 Z" id="Shape" fill="#FF5C39"></path>
                        <path d="M34.3621694,64.7734792 C31.8040755,64.7734741 29.4981144,63.2962962 28.5203888,61.0312873 C27.5426633,58.7662784 28.0859054,56.1599238 29.8966053,54.4285083 C31.7073051,52.6970928 34.428532,52.1819181 36.7903947,53.1233964 C39.1522575,54.0648747 40.6891787,56.2774188 40.6839367,58.7285203 C40.6767925,62.0690658 37.8485323,64.7734863 34.3621694,64.7734792 L34.3621694,64.7734792 Z M34.3621694,55.153678 C32.3016618,55.153678 30.6312903,56.7541894 30.6312903,58.7285203 C30.6312903,60.7028511 32.3016618,62.3033625 34.3621694,62.3033625 C36.422677,62.3033625 38.0930485,60.7028511 38.0930485,58.7285203 C38.0930485,56.7541894 36.422677,55.153678 34.3621694,55.153678 L34.3621694,55.153678 Z" id="Shape" fill="#FF5C39"></path>
                        <path d="M49.5965923,64.7734792 C47.0384984,64.7734741 44.7325373,63.2962962 43.7548117,61.0312873 C42.7770861,58.7662784 43.3203283,56.1599238 45.1310281,54.4285083 C46.941728,52.6970928 49.6629548,52.1819181 52.0248176,53.1233964 C54.3866804,54.0648747 55.9236016,56.2774188 55.9183596,58.7285203 C55.9112154,62.0690658 53.0829552,64.7734863 49.5965923,64.7734792 L49.5965923,64.7734792 Z M49.5965923,55.153678 C47.5360847,55.153678 45.8657132,56.7541894 45.8657132,58.7285203 C45.8657132,60.7028511 47.5360847,62.3033625 49.5965923,62.3033625 C51.6570999,62.3033625 53.3274713,60.7028511 53.3274713,58.7285203 C53.3274713,56.7541894 51.6570999,55.153678 49.5965923,55.153678 L49.5965923,55.153678 Z" id="Shape" fill="#FF5C39"></path>
                        <path d="M19.1147921,79.3086886 C16.5566982,79.3086834 14.2507371,77.8315056 13.2730115,75.5664967 C12.295286,73.3014877 12.8385281,70.6951332 14.6492279,68.9637176 C16.4599278,67.2323021 19.1811547,66.7171275 21.5430174,67.6586057 C23.9048802,68.600084 25.4418014,70.8126282 25.4365594,73.2637296 C25.4294152,76.6042751 22.601155,79.3086956 19.1147921,79.3086886 L19.1147921,79.3086886 Z M19.1147921,69.6888873 C17.0542845,69.6888873 15.383913,71.2893987 15.383913,73.2637296 C15.383913,75.2380605 17.0542845,76.8385719 19.1147921,76.8385719 C21.1752997,76.8385719 22.8456712,75.2380605 22.8456712,73.2637296 C22.8595397,72.3070492 22.472597,71.3849666 21.7714127,70.7037766 C21.0702283,70.0225865 20.1133265,69.6391445 19.1147921,69.6392368 L19.1147921,69.6888873 Z" id="Shape" fill="#FF5C39"></path>
                        <path d="M34.3621694,79.3086886 C31.8040755,79.3086834 29.4981144,77.8315056 28.5203888,75.5664967 C27.5426633,73.3014877 28.0859054,70.6951332 29.8966053,68.9637176 C31.7073051,67.2323021 34.428532,66.7171275 36.7903947,67.6586057 C39.1522575,68.600084 40.6891787,70.8126282 40.6839367,73.2637296 C40.6767925,76.6042751 37.8485323,79.3086956 34.3621694,79.3086886 Z M34.3621694,69.6888873 C32.3016618,69.6888873 30.6312903,71.2893987 30.6312903,73.2637296 C30.6312903,75.2380605 32.3016618,76.8385719 34.3621694,76.8385719 C36.422677,76.8385719 38.0930485,75.2380605 38.0930485,73.2637296 C38.106917,72.3070492 37.7199743,71.3849666 37.01879,70.7037766 C36.3176056,70.0225865 35.3607038,69.6391445 34.3621694,69.6392368 L34.3621694,69.6888873 Z" id="Shape" fill="#FF5C39"></path>
                        <path d="M49.5965923,79.3086886 C47.0384984,79.3086834 44.7325373,77.8315056 43.7548117,75.5664967 C42.7770861,73.3014877 43.3203283,70.6951332 45.1310281,68.9637176 C46.941728,67.2323021 49.6629548,66.7171275 52.0248176,67.6586057 C54.3866804,68.600084 55.9236016,70.8126282 55.9183596,73.2637296 C55.9112154,76.6042751 53.0829552,79.3086956 49.5965923,79.3086886 Z M49.5965923,69.6888873 C47.5360847,69.6888873 45.8657132,71.2893987 45.8657132,73.2637296 C45.8657132,75.2380605 47.5360847,76.8385719 49.5965923,76.8385719 C51.6570999,76.8385719 53.3274713,75.2380605 53.3274713,73.2637296 C53.3413399,72.3070492 52.9543972,71.3849666 52.2532128,70.7037766 C51.5520285,70.0225865 50.5951267,69.6391445 49.5965923,69.6392368 L49.5965923,69.6888873 Z" id="Shape" fill="#FF5C39"></path>
                    </g>
                </g>
            </g>
        </g>
    </g>
</svg>