<?xml version="1.0" encoding="UTF-8"?>
<svg width="81px" height="83px" viewBox="0 0 81 83" version="1.1" xmlns="http://www.w3.org/2000/svg" xmlns:xlink="http://www.w3.org/1999/xlink">
    <!-- Generator: Sketch 54.1 (76490) - https://sketchapp.com -->
    <title>Corefone_ManualWeb-5</title>
    <desc>Created with Sketch.</desc>
    <g id="Home" stroke="none" stroke-width="1" fill="none" fill-rule="evenodd">
        <g transform="translate(-366.000000, -1213.000000)" id="Group-19">
            <g transform="translate(357.000000, 961.000000)">
                <g id="Group-28" transform="translate(3.000000, 253.000000)">
                    <g id="Corefone_ManualWeb-5" transform="translate(7.000000, 0.000000)">
                        <polygon id="Rectangle-path" stroke="#147EEC" stroke-width="2" points="44.6604839 62.1666187 69.1377419 62.1666187 69.1377419 71.6810125 44.6604839 71.6810125"></polygon>
                        <path d="M78.0698387,42.5043826 L78.0698387,73.746054 C78.0732221,75.5962585 77.3363685,77.3718356 76.0217345,78.6813176 C74.7071006,79.9907996 72.9226383,80.7266577 71.0617742,80.7266546 L7.05903226,80.7266546 C5.18935227,80.7401779 3.39175748,80.010291 2.06607457,78.6993375 C0.74039167,77.388384 -0.0034489793,75.605073 1.8264402e-16,73.746054 L1.8264402e-16,30.8489334 C-3.07581092e-06,28.998726 0.740093304,27.2244827 2.05711748,25.9173772 C3.37414165,24.6102718 5.15994547,23.8776379 7.02080645,23.8810019 L21.8779032,23.8810019 C22.2792712,23.882052 22.6798712,23.9159504 23.0756452,23.9823536 C24.4660908,24.2369783 25.7483637,24.8987065 26.7580645,25.8826986 L34.6198387,33.4840785 C35.9239935,34.7536423 37.6748432,35.4672434 39.5,35.4731062 L71.0745161,35.4731062 C71.3544879,35.4533864 71.6355121,35.4533864 71.9154839,35.4731062 C75.4766694,35.901288 78.1349866,38.9383834 78.0698387,42.5043826 Z" id="Shape" stroke="#147EEC" stroke-width="2"></path>
                        <path d="M63.7096774,7.60137991 L63.7096774,35.4731068 L39.5,35.4731062 C37.6660186,35.4738555 35.9048179,34.7597645 34.5943548,33.4840785 L26.7325806,25.8826986 C25.7159771,24.894249 24.4241987,24.232197 23.0246774,23.9823536 C22.6289034,23.9159504 22.2283035,23.882052 21.8269355,23.8810019 L14.423871,23.8810019 L14.423871,7.60137991 L63.7096774,7.60137991 Z" id="Shape" stroke="#147EEC" stroke-width="2"></path>
                        <path d="M60.3967742,10.8953112 L60.3967742,38.7670381 L36.1870968,38.7670375 C34.3531154,38.7677868 32.5919146,38.0536958 31.2814516,36.7780098 L23.4196774,29.1766299 C22.4030739,28.1881803 21.1112955,27.5261283 19.7117742,27.2762849 C19.3160002,27.2098817 18.9154002,27.1759833 18.5140323,27.1749332 L11.1109677,27.1749332 L11.1109677,10.8953112 L60.3967742,10.8953112 Z" id="Shape" fill="#558CCE" fill-rule="nonzero" opacity="0.15"></path>
                        <path d="M71.9154839,0.114020699 L71.9154839,35.5871269 C71.6355121,35.5674071 71.3544879,35.5674071 71.0745161,35.5871269 L63.7096774,35.5871269 L63.7096774,7.60137991 L23.0629032,7.60137991 L23.0629032,0.114020699 L71.9154839,0.114020699 Z" id="Shape" stroke="#147EEC" stroke-width="2"></path>
                        <path d="M19.1766129,14.3159322 L33.8808065,14.3159322" id="Shape" stroke="#147EEC" stroke-width="2"></path>
                        <path d="M37.7670968,22.6014363 L58.1924194,22.6014363" id="Shape" stroke="#147EEC" stroke-width="2"></path>
                        <path d="M37.7670968,27.4283125 L58.1924194,27.4283125" id="Shape" stroke="#147EEC" stroke-width="2"></path>
                        <polygon id="Shape" fill="#558CCE" fill-rule="nonzero" opacity="0.15" style="mix-blend-mode: multiply;" points="20.0685484 64.5863913 20.0685484 61.3051289 16.7683871 61.3051289 14.423871 58.9740391 12.0920968 61.3051289 8.77919355 61.3051289 8.77919355 64.5863913 6.44741935 66.9174811 8.77919355 69.235902 8.77919355 72.5298333 12.0920968 72.5298333 14.423871 74.8482541 16.7683871 72.5298333 20.0685484 72.5298333 20.0685484 69.235902 22.4130645 66.9174811"></polygon>
                    </g>
                </g>
            </g>
        </g>
    </g>
</svg>