<?xml version="1.0" encoding="UTF-8"?>
<svg width="89px" height="89px" viewBox="0 0 89 89" version="1.1" xmlns="http://www.w3.org/2000/svg" xmlns:xlink="http://www.w3.org/1999/xlink">
    <!-- Generator: Sketch 54.1 (76490) - https://sketchapp.com -->
    <title>Corefone_ManualWeb-2</title>
    <desc>Created with Sketch.</desc>
    <g id="Home" stroke="none" stroke-width="1" fill="none" fill-rule="evenodd">
        <g transform="translate(-566.000000, -965.000000)" id="Group-19">
            <g transform="translate(357.000000, 961.000000)">
                <g id="Group-2" transform="translate(207.000000, 5.000000)">
                    <g id="Corefone_ManualWeb-2" transform="translate(3.021978, 0.000000)">
                        <ellipse id="Oval" stroke="#147EEC" stroke-width="2" cx="43.1948336" cy="43.309748" rx="42.9924638" ry="42.9782633"></ellipse>
                        <path d="M42.9142539,53.6240212 L32.889906,43.6029844 C32.1048678,42.8186722 31.6637986,41.7546363 31.6637986,40.6451212 C31.6637986,39.535606 32.1048678,38.4715702 32.889906,37.6872579 L34.7901959,35.7875957 C35.5799148,35.0005918 36.0237812,33.9317113 36.0237812,32.816983 C36.0237812,31.7022547 35.5799148,30.6333743 34.7901959,29.8463703 L33.0684568,28.1251999 C30.7533696,25.8151601 27.0044135,25.8151601 24.6893263,28.1251999 L21.0417901,31.7587819 C17.326291,35.4730772 17.326291,41.4951149 21.0417901,45.2094102 L41.2945437,65.4554743 C45.0100662,69.1697462 51.0340937,69.1697462 54.7496162,65.4554743 L58.3843988,61.8218922 C60.6952019,59.5075697 60.6952019,55.759852 58.3843988,53.4455294 L56.6626597,51.724359 C55.8753957,50.934901 54.8061621,50.4911812 53.6910655,50.4911812 C52.5759688,50.4911812 51.5067352,50.934901 50.7194713,51.724359 L48.8191814,53.6240212 C47.1868102,55.2498048 44.5466251,55.2498048 42.9142539,53.6240212 L42.9142539,53.6240212 Z" id="Shape" stroke="#147EEC" stroke-width="2"></path>
                        <g id="Group" opacity="0.15" style="mix-blend-mode: multiply;" transform="translate(20.659181, 22.948939)" fill="#558CCE" fill-rule="nonzero">
                            <path d="M25.1118841,27.8064646 L15.0875362,17.8491749 C14.3024979,17.0648626 13.8614288,16.0008268 13.8614288,14.8913116 C13.8614288,13.7817965 14.3024979,12.7177606 15.0875362,11.9334484 L16.9878261,10.0337862 C17.777545,9.24678224 18.2214114,8.17790182 18.2214114,7.0631735 C18.2214114,5.94844519 17.777545,4.87956476 16.9878261,4.09256082 L15.3043478,2.30764333 C12.9892606,-0.00239647291 9.24030458,-0.00239647291 6.92521739,2.30764333 L3.29043478,5.94122536 C-0.425064359,9.65552063 -0.425064359,15.6775583 3.29043478,19.3918536 L23.4921739,39.6506671 C25.2779638,41.4460522 27.7061378,42.4555496 30.2388406,42.4555496 C32.7715434,42.4555496 35.1997173,41.4460522 36.9855072,39.6506671 L40.6202899,36.0170851 C42.9310929,33.7027626 42.9310929,29.9550448 40.6202899,27.6407223 L38.8985507,25.9195519 C38.1112867,25.1300938 37.0420532,24.686374 35.9269565,24.686374 C34.8118599,24.686374 33.7426263,25.1300938 32.9553623,25.9195519 L31.0550725,27.819214 C30.2677905,28.6101432 29.1969691,29.0537525 28.0808196,29.0513581 C26.9646701,29.0489637 25.8957632,28.6007643 25.1118841,27.8064646 L25.1118841,27.8064646 Z" id="Shape"></path>
                        </g>
                        <path d="M60.5270075,24.4788684 L48.3728046,24.4788684 C47.7764262,24.4946025 47.2445869,24.858159 47.0135694,25.4080189 C46.7825519,25.9578789 46.895213,26.5920361 47.3015002,27.0287506 L50.6174423,30.3435973 L43.2203408,37.7382555 C42.8122249,38.1428368 42.5826597,38.6936114 42.5826597,39.2681848 C42.5826597,39.8427582 42.8122249,40.3935328 43.2203408,40.7981141 L45.6817901,43.3479962 C46.5220288,44.1809577 47.8769137,44.1809577 48.7171524,43.3479962 L56.1142539,35.953338 L59.4301959,39.2681848 C59.8670546,39.6743378 60.5014214,39.7869617 61.0514631,39.5560205 C61.6015047,39.3250794 61.9651813,38.7934157 61.9809205,38.1972343 L61.9809205,25.9960483 C61.9816393,25.1824094 61.3401968,24.5130547 60.5270075,24.4788684 Z" id="Shape" stroke="#147EEC" stroke-width="2"></path>
                    </g>
                </g>
            </g>
        </g>
    </g>
</svg>