<?xml version="1.0" encoding="UTF-8"?>
<svg width="83px" height="83px" viewBox="0 0 83 83" version="1.1" xmlns="http://www.w3.org/2000/svg" xmlns:xlink="http://www.w3.org/1999/xlink">
    <!-- Generator: Sketch 54.1 (76490) - https://sketchapp.com -->
    <title>Corefone_ManualWeb-8</title>
    <desc>Created with Sketch.</desc>
    <g id="Home" stroke="none" stroke-width="1" fill="none" fill-rule="evenodd">
        <g transform="translate(-978.000000, -1209.000000)" id="Group-19">
            <g transform="translate(357.000000, 961.000000)">
                <g id="Group-32" transform="translate(622.000000, 249.000000)">
                    <g id="Corefone_ManualWeb-8" transform="translate(0.640625, 0.000000)">
                        <ellipse id="Oval" stroke="#147EEC" stroke-width="2" cx="39.8671875" cy="40.3584792" rx="39.8671875" ry="40.3584792"></ellipse>
                        <polygon id="Shape" stroke="#147EEC" stroke-width="2" points="55.125 35.4903553 55.125 44.2426007 44.6804191 44.2426007 44.6804191 54.8078113 36.0383309 54.8078113 36.0383309 44.2426007 25.59375 44.2426007 25.59375 35.4903553 36.0383309 35.4903553 36.0383309 24.9126415 44.6804191 24.9126415 44.6804191 35.4903553"></polygon>
                        <polygon id="Shape" fill="#558CCE" fill-rule="nonzero" opacity="0.15" style="mix-blend-mode: multiply;" points="58.078125 32.5008383 58.078125 41.2530837 47.6335441 41.2530837 47.6335441 51.8182943 38.9914559 51.8182943 38.9914559 41.2530837 28.546875 41.2530837 28.546875 32.5008383 38.9914559 32.5008383 38.9914559 21.9231245 47.6335441 21.9231245 47.6335441 32.5008383"></polygon>
                    </g>
                </g>
            </g>
        </g>
    </g>
</svg>