<svg width="212" height="63" viewBox="0 0 212 63" xmlns="http://www.w3.org/2000/svg">
    <title>
        clients-5
    </title>
    <g fill="#FEFEFE" fill-rule="nonzero">
        <path d="M52.139 3.5c-1.536.203-3.13.215-4.594.657-2.097.636-4.114 1.444-5.912 2.859-3.227 2.536-5.122 5.684-5.508 9.696-.205 2.138.357 4.132 1.155 6.133.874 2.2 2.42 3.869 4.184 5.225 2.421 1.865 5.186 3.153 8.408 3.375 3.967.273 7.724-.033 11.21-2.186 3.394-2.099 5.903-4.81 6.782-8.707 1.493-6.617-1.598-11.4-6.589-14.549-2.655-1.676-5.738-2.83-9.136-2.503M52.15.38c1.25 0 2.505.053 3.752-.012 2.432-.131 4.558.78 6.699 1.72 2.188.96 4.16 2.263 5.805 3.941 2.56 2.611 4.303 5.68 4.815 9.339.457 3.246-.045 6.379-1.546 9.26-1.457 2.801-3.538 5.11-6.27 6.906-5.207 3.431-10.908 4.261-16.968 3.508-6.481-.808-11.668-3.845-15.144-9.256-1.181-1.837-1.753-4.173-2.129-6.36-.529-3.114.143-6.18 1.505-9.054.376-.79.893-1.533 1.434-2.234 2.274-2.948 5.176-5.176 8.648-6.545C44.447.924 46.336.665 48.164.414 49.47.234 50.82.38 52.151.38"/>
        <path d="M82.655 8.153c0 2.82.043 5.52-.024 8.218-.025.936.29 1.196 1.27 1.186 4.158-.045 8.32.043 12.479-.045 1.673-.033 3.477-.099 4.981-.686 2.874-1.119 4.38-3.325 2.483-5.981a6.094 6.094 0 0 0-4.888-2.559c-5.025-.1-10.052-.137-15.08-.194-.35-.004-.697.032-1.221.061m18.866 13.053c3.153 3.635 6.177 7.128 9.371 10.815-1.96 0-3.786.282-5.428-.109-.949-.225-1.652-1.5-2.386-2.362-1.806-2.126-3.566-4.287-5.341-6.435-.072-.088-.162-.174-.198-.275-.698-1.945-2.304-2.009-4.156-1.952-3.516.104-7.039.03-10.719.03v11.091h-4.387V5.15c.377-.017.72-.051 1.065-.051 6.42-.002 12.841-.009 19.262 0 2.405.002 4.832.26 6.788 1.59 2.528 1.718 4.563 3.909 3.936 7.158-.215 1.11-.86 2.18-1.469 3.181-1.354 2.225-3.81 3.112-6.338 4.179"/>
        <path d="M157.884 21.746h14.211l-7.333-12.878c-2.374 4.44-4.595 8.6-6.878 12.878M182.646 32.1c-1.358 0-2.54.061-3.71-.036-.386-.034-.878-.399-1.082-.746-.902-1.535-1.732-3.11-2.562-4.683-.496-.936-1.164-1.366-2.334-1.35-5.29.067-10.584.097-15.872-.01-1.421-.026-1.913.688-2.439 1.673a144.352 144.352 0 0 1-2.643 4.74c-.12.205-.484.376-.742.383-1.4.038-2.8.018-4.493.018.735-1.26 1.373-2.324 1.985-3.399.88-1.544 1.732-3.103 2.622-4.64.985-1.693 2.038-3.352 2.995-5.06.94-1.675 1.762-3.406 2.696-5.083 1.232-2.195 2.52-4.36 3.784-6.538.02-.034.056-.059.063-.095.438-2.256 2.123-2.15 3.955-2.177 1.998-.03 3.468.074 4.402 2.29 1.227 2.914 3 5.612 4.563 8.39 1.099 1.962 2.277 3.884 3.352 5.859 1.767 3.247 3.478 6.522 5.21 9.786.08.155.125.333.25.678"/>
        <path d="M117.439 32.116V30.73c0-8.084.019-16.168-.023-24.253-.007-1.029.222-1.392 1.377-1.383 8.275.05 16.552.047 24.83.002 1.127-.007 1.673.205 1.476 1.388-.075.468-.012.953-.012 1.583h-23.17v8.666h17.131v2.985h-17.135v9.395h1.443c6.778 0 13.553.023 20.327-.025 1.088-.006 1.5.253 1.428 1.348-.122 1.804.246 1.68-1.746 1.682-8.045.002-16.09-.002-24.136-.002h-1.79z"/>
        <path d="M212 29.23v2.89h-24.462V5.106c1.19 0 2.344-.05 3.481.045.234.02.593.589.598.908.047 3.012.026 6.03.026 9.044v12.612c.002 1.469.002 1.469 1.484 1.469 5.89-.003 11.781-.005 17.672-.005.38 0 .762.03 1.201.05"/>
        <path d="M.024 5.093h3.06v23.95h23.008v2.992c-.42.02-.797.055-1.173.055-7.84.004-15.682-.019-23.52.029-1.138.009-1.404-.33-1.399-1.375.045-8.14.024-16.276.024-24.415V5.093z"/>
        <path d="M52.169 48.215v4.265c1.51 0 2.934.011 4.356-.002 1.078-.012 1.88-.68 2.06-1.684.16-.882-.497-2.042-1.505-2.191-1.61-.245-3.252-.268-4.911-.388zm-3.244-1.788c3.457.174 6.793.07 10.02.599 2.235.363 3.3 1.27 3.23 3.147-.078 2.16-.541 2.863-2.764 3.382-.975.227-1.973.354-3.161.56 2.551 2.2 4.953 4.27 7.35 6.342-1.493.13-2.877.665-4.136-.63-1.54-1.582-3.306-2.957-5.029-4.354-.591-.48-1.346-.763-2.027-1.135l-.31.284v6.092c-.968 0-1.794.07-2.595-.048-.236-.032-.548-.606-.55-.935-.041-3.535-.028-7.074-.028-10.611v-2.693z"/>
        <path d="M87.778 48.017h3.54c0 1.166.014 2.286-.003 3.403-.028 1.822.002 3.649-.133 5.464-.2 2.68-2.035 4.237-4.583 4.903-3.369.882-6.773.851-9.596-1.426-.868-.702-1.693-1.889-1.786-2.913-.27-3.006-.166-6.045-.202-9.072 0-.097.076-.2.138-.342h3.705c0 .6-.014 1.138.003 1.673.083 2.946.12 5.897.315 8.837.036.513.653 1.264 1.17 1.424 1.857.575 3.79.708 5.703.082.94-.309 1.724-1.42 1.727-2.502.007-2.735.002-5.472.002-8.207v-1.324z"/>
        <path d="M34.173 46.49h3.334c0 .688.002 1.33-.002 1.97-.015 2.147.036 4.301-.072 6.446-.16 3.227-2.11 4.888-5.288 5.515-2.925.577-5.777.45-8.447-1.17-1.372-.833-2.306-1.953-2.391-3.305-.196-3.112-.062-6.238-.062-9.503 1.047 0 2.097-.058 3.13.044.222.023.535.609.544.942.084 2.73.082 5.463.158 8.193.017.568.2 1.145.394 1.692.255.737.758 1.132 1.677 1.286 1.516.255 2.964.5 4.496.024 1.422-.44 2.324-1.201 2.382-2.6.104-2.765.104-5.535.147-8.302.008-.39 0-.784 0-1.232"/>
        <path d="M128.836 46.443c1.006 0 1.946-.054 2.873.035.254.022.64.472.655.74.067 1.344.027 2.691.029 4.039.002 1.13.048 2.259.012 3.385-.127 3.874 1.93 4.406 5.855 4.167 2.517-.153 3.2-1.574 3.237-3.363.048-2.478.06-4.951.086-7.425.005-.468 0-.936 0-1.572 1.052 0 2.02-.037 2.976.031.203.014.538.41.54.632.012 2.766.122 5.541-.09 8.294-.22 2.802-2.145 4.196-5.26 4.997-2.018.52-4.112.383-6.168-.1-2.369-.556-4.767-2.547-4.75-5.28.017-2.826.005-5.652.005-8.58"/>
        <path d="M115.586 58.84v-3.745h-5.339v-1.59h8.724c0 1.585.205 3.141-.063 4.626-.23 1.274-1.616 1.855-2.892 2.103-3.832.75-7.673.734-11.375-.574-1.121-.394-2.047-1.06-2.547-2.246-.716-1.716-1.271-3.424-.828-5.235.262-1.068.593-2.255 1.328-3.06.758-.829 1.977-1.416 3.117-1.829 3.596-1.307 7.223-1.038 10.783.194.93.321 1.704.89 1.884 2.075-1.39-.027-2.662.296-3.97-.572-2.104-1.4-4.611-1.264-6.8-.396-2.284.904-3.263 3.968-2.7 6.31.7 2.893 2.95 4.506 6.04 4.21 1.523-.146 3.062-.182 4.638-.271"/>
        <path d="M161.243 51.045l-3.61 6.315h7.233c-1.217-2.124-2.355-4.104-3.623-6.315m-9.581 11.182c1.113-1.957 2.16-3.812 3.221-5.659.7-1.218 1.419-2.423 2.128-3.635.862-1.47 1.705-2.954 2.601-4.406.143-.233.53-.431.826-.468.596-.074 1.214.011 1.815-.035.714-.053 1.061.169 1.28.859.212.662.708 1.248 1.084 1.864 1.148 1.884 2.306 3.767 3.451 5.655.99 1.634 1.978 3.268 2.941 4.918.138.243.133.561.222.984-1.07 0-2.03.032-2.983-.021-.264-.014-.591-.222-.751-.432-.449-.58-.776-1.244-1.247-1.807-.229-.275-.66-.56-1.01-.565a245.553 245.553 0 0 0-8.246-.003c-.332.007-.803.326-.97.619-1.348 2.356-1.328 2.365-4.362 2.132"/>
        <path d="M194.062 46.538c-1.163 1.354-2.112 2.462-3.063 3.573-1.376 1.597-2.77 3.18-4.114 4.8-.17.205-.124.581-.126.88-.01 1.356-.023 2.712.012 4.069.013.615-.196.936-.904.865-.037-.005-.08.002-.12.002-2.993-.055-2.433.365-2.495-2.212-.01-.416-.054-.838.008-1.242.312-2.074-.932-3.447-2.29-4.888-1.67-1.772-3.112-3.725-4.847-5.834 1.45 0 2.775-.332 3.705.09 1.02.461 1.737 1.574 2.468 2.483.783.975 1.397 2.063 2.148 3.064.578.77 1.076.365 1.512-.189 1.174-1.477 2.436-2.9 3.501-4.442.6-.87 1.291-1.118 2.305-1.03.642.056 1.293.01 2.3.01"/>
        <path d="M27.723 5.106c-.455.938-.814 1.777-1.26 2.568-1.094 1.935-2.28 3.824-3.329 5.78-.443.826-.934 1.288-1.938 1.155-.479-.063-.977-.011-1.627-.011.55-1.375 1.005-2.606 1.528-3.808a130.18 130.18 0 0 1 2.307-5.064c.132-.27.536-.573.829-.59 1.108-.073 2.223-.03 3.49-.03"/>
        <path d="M127.2 3.272c.964-.94 1.92-1.89 2.901-2.815.115-.105.365-.125.553-.127 2.088-.01 4.175-.005 6.26-.005.025.094.049.187.07.283-3.23.963-6.462 1.93-9.693 2.896-.03-.078-.06-.156-.091-.232"/>
    </g>
</svg>
