<svg width="208" height="81" viewBox="0 0 208 81" xmlns="http://www.w3.org/2000/svg">
    <title>
        Group 17
    </title>
    <g fill="#FEFEFE" fill-rule="evenodd">
        <path d="M52.204 66.785l8.564 13.877 8.565-13.877z"/>
        <path d="M69.302 12.22C69.034 8.843 66.488.663 48.213.663H0v54.564h.03c.27 3.381 2.813 11.559 21.084 11.559h48.22V12.22h-.032zM26.389 42.638c-.07.966-.07 1.001-.729 1.001h-1.355c-2.778 0-3.507-1.343-3.612-2.826-1.385 2.41-3.504 3.172-5.346 3.172-3.54 0-5.588-2.413-5.588-5.45 0-1.792.695-11.206.867-12.791.07-.829.315-1.07.975-1.07h1.108c2.884 0 3.577 1.103 3.577 2.93 0 1.894-.731 7.76-.731 9.208 0 1.587.87 2.553 2.29 2.553 3.751 0 3.613-9.692 4.029-14.003.035-.378.245-.689.764-.689h1.252c2.845 0 3.54 1.173 3.54 3.277 0 1.413-.313 4.552-1.041 14.688zm21.174 0c-.454 6.105-4.86 7.726-9.306 7.726-4.684 0-8.086-1.794-8.086-4 0-1.76 1.7-2.552 3.54-2.552.937 0 .313 2.24 4.236 2.24 3.471 0 4.025-3.72 4.025-6.483-1.457 2.587-3.748 3.035-5.485 3.035-3.4 0-5.762-1.756-5.762-6.48 0-1.797.382-5.933.73-10.38.034-.658.417-1.07.973-1.07h1.111c2.948 0 3.576 1.103 3.576 3.172 0 2.103-.661 6.137-.661 7.551 0 1.725.97 2.587 2.221 2.587 2.153 0 3.505-2.449 3.818-6.175l.557-6.447c.033-.482.382-.689.764-.689h1.25c1.91 0 3.54.586 3.54 2.86 0 .933-.28 4.725-1.041 15.105zm6.35 1.347c-2.081 0-2.671-1.243-2.671-2.83 0-1.826.795-3.653 3.4-3.653 1.946 0 2.708 1 2.708 2.689 0 1.45-.554 3.794-3.437 3.794zm3.507-9.587c-.103.55-.244.69-.765.69h-1.25c-2.288 0-2.845-1.138-2.845-3.38 0-1.275.208-2.448.901-12.588.038-.552.07-.79.175-.897.105-.102.245-.102.554-.102h2.05c2.534 0 3.54 1.173 3.54 2.483 0 2.449-1.665 10.275-2.36 13.794z"/>
        <path d="M91.634 40.836c.468 0 .767.376.767 1.03 0 .62-.634 2.542-1.069 3.06-.4.478-2.34 2.267-5.412 2.267-3.372 0-7.614-1.886-7.614-8.594 0-3.54 1.168-10.998 9.185-10.998 4.343 0 6.313 2.202 6.313 4.949 0 2.476-1.6 3.61-4.343 3.61-.667 0-.867-.069-.867-.48-.034-2.236-.034-3.509-1.538-3.509-2.772 0-3.074 4.265-3.074 6.087 0 3.267.97 4.364 3.14 4.364 2.606 0 3.744-1.786 4.512-1.786"/>
        <path d="M106.72 35.887c.038-.482.072-.79.072-1.272 0-1.479-.424-2.408-2.186-2.408-1.976 0-2.291 1.135-2.716 2.784-.104.414-.388.482-1.092.482-2.4 0-3.599-.827-3.599-2.647 0-2.888 2.682-5.225 8.076-5.225 5.22 0 7.44 2.2 7.44 6.051 0 1.031-.596 5.774-.596 6.804 0 2.304 2.077 1.549 2.077 2.27 0 2.03-.985 4.467-4.23 4.467-2.257 0-3.317-1.131-3.669-2.988-1.128 1.58-2.822 2.988-5.749 2.988-2.82 0-5.113-1.235-5.113-4.57 0-4.093 3.917-6.565 11.284-6.736m-5.217 5.325c0 1.067.845 1.41 1.621 1.41 1.517 0 3.07-1.306 3.28-3.92-2.47 0-4.901.691-4.901 2.51"/>
        <path d="M124.619 35.856c0-.595.061-1.081.061-1.642 0-1.016-.188-1.75-.952-1.75-1.175 0-1.996 1.716-2.22 5.108-.19 2.974-.603 8.118-.603 8.922 0 .453-.35.699-.7.699h-1.141c-2.601 0-3.237-1.19-3.237-3.325 0-1.432.289-4.617.953-14.902.03-.665.316-1.014.666-1.014h1.238c2.41 0 3.107 1.223 3.267 2.658.984-2.169 2.92-3.01 4.284-3.01 1.653 0 3.46 1.262 3.46 4.06 0 2.52-1.429 4.653-3.648 4.653-.476 0-1.428-.105-1.428-.457"/>
        <path d="M136.625 46.49c-.037.56-.167.703-.732.703h-1.191c-2.714 0-3.377-1.192-3.377-3.327 0-1.432.299-4.615.992-14.898.034-.56.068-.806.168-.91.098-.106.232-.106.529-.106h1.291c2.618 0 3.313 1.365 3.409 2.87 1.292-2.52 2.882-3.221 5.064-3.221 2.388 0 4.505.84 5.001 3.606 1.39-2.73 2.844-3.606 5.33-3.606 2.783 0 5.134 1.085 5.134 4.934 0 2.867-.599 8.816-.895 13.57-.068 1.016-.132 1.088-.893 1.088h-1.06c-2.784 0-3.41-1.122-3.41-3.081 0-1.89.695-8.64.695-9.511 0-1.192-.365-2.313-1.689-2.313-2.285 0-3.31 3.394-3.608 7.837-.1 1.435-.233 3.219-.399 5.98-.066 1.016-.13 1.088-.893 1.088h-1.06c-2.779 0-3.41-1.122-3.41-3.081 0-1.854.697-7.903.697-9.511 0-1.192-.367-2.313-1.688-2.313-2.351 0-3.279 3.988-3.577 8.608-.13 2.132-.332 4.162-.428 5.594"/>
        <path d="M162.322 39.15c0-3.472 1.377-11.55 10.488-11.55 4.908 0 6.641 2.34 6.641 5.157 0 6.292-8.758 6.633-11.052 6.633 0 1.752.948 3.507 3.351 3.507 2.474 0 2.44-1.89 3.427-1.89.457 0 2.685.379 2.685 2.44 0 2.681-3.779 3.746-6.923 3.746-4.097 0-8.617-1.788-8.617-8.042m6.182-2.51c2.894-.033 4.908-.996 4.908-2.68 0-.93-.602-1.786-1.8-1.786-2.083 0-2.86 2.508-3.108 4.466"/>
        <path d="M181.082 42.24c0-1.708.567-5.263 1.328-20.16.031-.558.064-.8.157-.906.094-.104.222-.104.507-.104h1.235c2.532 0 3.288 1.429 3.288 3 0 2.756-1.072 13.987-1.072 16.637 0 2.374 1.899 1.776 1.899 2.268 0 2.057-.732 4.218-3.671 4.218-2.6 0-3.67-1.429-3.67-4.952"/>
        <path d="M200.522 35.887c.04-.482.073-.79.073-1.272 0-1.479-.425-2.408-2.189-2.408-1.973 0-2.286 1.135-2.713 2.784-.104.414-.388.482-1.092.482-2.397 0-3.596-.827-3.596-2.647 0-2.888 2.68-5.225 8.07-5.225 5.222 0 7.445 2.2 7.445 6.051 0 1.031-.6 5.774-.6 6.804 0 2.304 2.08 1.549 2.08 2.27 0 2.03-.988 4.467-4.23 4.467-2.258 0-3.316-1.131-3.67-2.988-1.126 1.58-2.82 2.988-5.746 2.988-2.82 0-5.115-1.235-5.115-4.57 0-4.093 3.916-6.565 11.283-6.736m-5.217 5.325c0 1.067.847 1.41 1.623 1.41 1.517 0 3.067-1.306 3.28-3.92-2.47 0-4.903.691-4.903 2.51"/>
    </g>
</svg>
