<svg width="184" height="85" viewBox="0 0 184 85" xmlns="http://www.w3.org/2000/svg">
    <title>
        clients-4
    </title>
    <g fill="#FEFEFE" fill-rule="nonzero">
        <path d="M176.24 45.815c3.954-7.345 3.027-8.63-4.735-7.774-12.07 1.32-27.285 5.966-38.777 11.538a27.97 27.97 0 0 0 3.527-10.624c11.09-4.376 23.3-6.895 36.135-7.12 13.435-.237 8.396 8.994 3.85 13.98M128.455 4.832c24.578-.575 38.388 9.095 41.145 11.757-2.396-1.795-7.012-3.317-10.994-4.008a88.985 88.985 0 0 0-15.118-1.281c-3.788 0-7.514.24-11.161.699-.935-2.179-2.655-5.106-3.872-7.167m47.787 19.99c-2.378-2.011-4.196-3.458-11.412-4.392-7.22-.94-22.486.474-29.245 2.005a54.048 54.048 0 0 0-1.953-7.09 90.676 90.676 0 0 1 14.257-1.116c4.731 0 9.37.361 13.88 1.053 9.541 1.466 12.588 6.27 14.473 9.54m3.825 6.997c-2.13-2.423-7.334-2.937-10.156-2.937-11.743 0-22.977 1.963-33.316 5.547.084-2.749 0-5.504-.339-8.222 7.866-2.064 21.75-3.718 30.893-3.005 8.532.678 11.75 4.951 12.918 8.617m1.05-31.495h-53.05c-1.588 0-2.886 1.163-2.886 2.59V50.57c0 1.429 1.298 2.592 2.885 2.592h53.05c1.59 0 2.885-1.163 2.885-2.592V2.913c0-1.426-1.295-2.589-2.885-2.589"/>
        <path d="M45.82 33.612c2.443 0 3.958.363 5.179.802l1.052-3.363c-1.083-.447-3.297-.92-6.17-.92-7.295 0-12.667 3.54-12.7 9.714-.036 2.724 1.09 5.146 3.134 6.75 2.049 1.648 4.98 2.503 9.042 2.503 2.937 0 5.874-.604 7.43-1.048v-9.777h-4.838l-.015 3.276v3.884c-.396.168-1.318.275-2.478.275-4.122 0-6.99-2.258-6.99-6.087 0-4.02 3.167-6.01 7.353-6.01"/>
        <path d="M32.681 34.75v-3.264H18.098v17.612H33.18v-3.262h-9.714V41.65h8.697v-3.242h-8.697V34.75z"/>
        <path d="M55.803 31.486V41.89c0 5.951 3.287 8.563 8.872 8.563 5.777 0 9.227-2.741 9.227-8.508v-10.46h-4.993v10.748c0 3.294-1.438 4.835-4.07 4.835-2.559 0-4.005-1.63-4.005-4.835V31.486h-5.03z"/>
        <path d="M106.327 33.426c3.666 0 5.687 2.835 5.687 6.135 0 3.563-2.05 6.237-5.652 6.237-3.556 0-5.72-2.535-5.72-6.13 0-3.572 2.1-6.242 5.685-6.242m-.244 15.672c6.877 0 11.556-3.661 11.556-9.674 0-5.062-3.942-9.293-11.17-9.293-6.951 0-11.453 4.115-11.453 9.62 0 5.232 4.086 9.347 11.067 9.347"/>
        <path d="M84.093 39.98h-2.034v-5.199c.371-.05 1.09-.14 2.34-.14 2.379.03 3.81.897 3.81 2.628 0 1.651-1.534 2.711-4.116 2.711m9.251-2.498c0-1.736-.745-3.62-2.11-4.52-1.629-1.057-4.013-1.476-7.412-1.476-2.754 0-5.236.167-6.904.392v18.575h5.14v-7.398h2.594l6.15 7.398h5.723s-5.858-6.925-6.838-8.184v-.08c1.976-.59 3.657-2.301 3.657-4.707"/>
        <path d="M6.513 45.665c-2.113 0-4.168-.571-5.502-1.143L0 47.948c1.236.574 3.71 1.15 6.218 1.15 6.025 0 8.864-2.643 8.864-5.727 0-2.585-1.826-4.274-5.701-5.474-2.837-.898-4.075-1.42-4.075-2.592 0-.945 1.046-1.772 3.194-1.772 2.156 0 3.72.524 4.595.872l1.11-3.35c-1.31-.494-3.127-.924-5.606-.924-5.185 0-8.306 2.393-8.306 5.526 0 2.677 2.377 4.362 6.026 5.427 2.638.79 3.682 1.444 3.682 2.585 0 1.203-1.213 1.996-3.488 1.996"/>
        <path d="M7.322 7.976l.163-.044c.29-.058 1.101-.192 2.663-.192 3.227 0 5.156 1.266 5.156 3.406 0 2.327-2.171 3.777-5.65 3.777-.997 0-1.642-.044-2.158-.139l-.174-.03V7.976zm0 10.233l.253.03c.553.058 1.288.097 2.118.097 3.838 0 6.936-.787 8.93-2.274 1.607-1.188 2.492-2.982 2.492-5.048 0-1.98-1.051-3.768-2.893-4.907-1.844-1.158-4.588-1.718-8.4-1.718-3.298 0-6.096.143-8.314.426v21.251h5.814V18.21z"/>
        <path d="M56.942 7.863l.18-.03c.747-.112 1.7-.167 2.828-.167 3.049.037 4.739 1.195 4.739 3.251 0 2.066-1.952 3.352-5.106 3.352h-2.64V7.863zm0 18.203v-8.608h3.408s7.174 8.465 7.303 8.608h6.249c-1.295-1.496-6.83-7.923-7.852-9.213l-.041-.048v-.3l.146-.045c1.94-.56 4.197-2.286 4.197-5.29 0-2.117-.97-4.164-2.412-5.095-1.834-1.17-4.507-1.686-8.686-1.686-2.905 0-5.802.155-7.975.426v21.251h5.663z"/>
        <path d="M78.414 26.066h5.92V8.193H92V4.39H70.885v3.804h7.529z"/>
        <path d="M35.445 8.064c3.983 0 6.77 3.194 6.77 7.769 0 4.808-2.643 7.92-6.734 7.917-4.142 0-6.813-3.044-6.813-7.778 0-4.731 2.72-7.908 6.777-7.908m-.281 19.357c7.954 0 13.098-4.611 13.098-11.751 0-5.617-3.916-11.281-12.658-11.281-7.647 0-12.981 4.808-12.981 11.681 0 6.788 5.035 11.351 12.54 11.351"/>
        <path d="M104.821 8.064c3.986 0 6.77 3.194 6.77 7.769 0 4.808-2.635 7.92-6.73 7.917-4.141 0-6.813-3.044-6.813-7.778 0-4.731 2.72-7.908 6.773-7.908m-.279 19.357c7.955 0 13.097-4.611 13.097-11.751 0-5.617-3.912-11.281-12.66-11.281C97.338 4.389 92 9.197 92 16.07c0 6.788 5.038 11.351 12.542 11.351"/>
        <path d="M46.969 75.597c0 1.28.955 2.224 2.68 3.028 1.407.687 1.983 1.334 1.983 2.208 0 1.44-1.4 2.227-2.922 2.227a5.837 5.837 0 0 1-2.867-.752l-.597 1.19c.559.418 1.882.808 3.245.826 3.023 0 4.862-1.615 4.862-3.663 0-1.455-.922-2.385-2.58-3.153-1.402-.685-2.082-1.223-2.082-2.19 0-.966.997-1.926 2.663-1.926a5.003 5.003 0 0 1 2.338.543l.603-1.174c-.481-.281-1.46-.63-2.763-.63-2.48 0-4.563 1.37-4.563 3.466"/>
        <path d="M57.311 84.324h6.879l.271-1.28h-5.29l.881-4.456h4.703l.261-1.266H60.32l.787-3.906h4.99l.265-1.285h-6.6z"/>
        <path d="M73.692 73.901c-1.853 1.382-2.807 3.458-2.807 5.44 0 1.192.358 2.492 1.44 3.5 1.09 1.011 2.662 1.483 4.68 1.483 1.677 0 3.205-.349 4.036-.632l1.298-5.728h-4.633l-.281 1.204h2.916l-.806 3.566c-.536.196-1.342.338-2.192.338-3.192 0-4.57-1.524-4.57-3.83 0-1.632.812-3.336 2.143-4.385 1.194-.936 2.744-1.451 4.447-1.451 1.292 0 2.27.214 3.011.515l.577-1.24c-.427-.215-1.615-.55-3.378-.55-2.296 0-4.35.654-5.881 1.77"/>
        <path d="M93.486 79.266c-.53 2.69-1.825 3.79-3.574 3.79-1.421 0-2.372-.783-2.372-2.312 0-.497.061-1.012.152-1.513l1.443-7.1H87.56l-1.422 6.993a8.384 8.384 0 0 0-.17 1.652c0 2.475 1.633 3.548 3.739 3.548 2.711 0 4.614-1.446 5.354-5.024l1.464-7.17H94.95l-1.465 7.136z"/>
        <path d="M105.948 77.896h-1.613l1.028-4.439c.32-.067.798-.122 1.52-.122 1.662 0 2.833.575 2.833 1.869 0 1.456-1.485 2.692-3.768 2.692m1.07-5.765a19.6 19.6 0 0 0-3.204.265l-2.765 11.928h1.807l1.199-5.277h1.608c1.462 0 2.201.7 2.31 2.354.113 1.405.258 2.678.35 2.923h1.875c-.202-.48-.306-1.629-.463-3.318-.106-1.26-.61-2.158-1.627-2.442l.017-.035c1.851-.432 3.482-1.745 3.482-3.508 0-.825-.41-1.522-1.084-2.01-.788-.594-2.05-.88-3.505-.88"/>
        <path d="M122.984 81.923c-.833.732-1.924 1.178-3.048 1.178-2.624 0-3.59-1.775-3.59-3.699 0-1.651.747-3.714 2.04-4.854a4.485 4.485 0 0 1 3.051-1.19c2.911 0 3.526 1.996 3.526 3.677 0 1.646-.734 3.768-1.979 4.888m-1.33-9.792c-1.685 0-3.35.617-4.482 1.588-1.621 1.426-2.549 3.719-2.549 5.807 0 2.503 1.621 4.798 5.068 4.798 1.846 0 3.39-.615 4.578-1.649 1.586-1.4 2.42-3.658 2.42-5.71 0-2.519-1.443-4.834-5.035-4.834"/>
        <path d="M131.427 75.597c0 1.28.963 2.224 2.68 3.028 1.398.687 1.985 1.334 1.985 2.208 0 1.44-1.406 2.227-2.922 2.227a5.844 5.844 0 0 1-2.868-.752l-.597 1.19c.561.418 1.882.808 3.241.826 3.023 0 4.866-1.615 4.866-3.663 0-1.455-.92-2.385-2.582-3.153-1.4-.685-2.088-1.223-2.088-2.19 0-.966 1.006-1.926 2.667-1.926a4.977 4.977 0 0 1 2.34.543l.605-1.174c-.481-.281-1.465-.63-2.767-.63-2.477 0-4.56 1.37-4.56 3.466"/>
        <path d="M7.541 63.996c0 .413 52.219 1.36 85.23 1.36 33.004 0 85.196-.958 85.196-1.36 0-.399-52.192-1.35-85.196-1.35-33.011 0-85.23.956-85.23 1.35"/>
    </g>
</svg>
