<svg width="100" height="42" viewBox="0 0 100 42" xmlns="http://www.w3.org/2000/svg">
    <title>
        clients-2
    </title>
    <g fill="#FEFEFE" fill-rule="nonzero">
        <path d="M8.015.662c3.16 0 5.725 2.257 5.725 5.042 0 2.783-2.564 5.04-5.725 5.04-3.16 0-5.725-2.257-5.725-5.04C2.29 2.919 4.855.662 8.015.662"/>
        <path d="M0 12.76h14.504v2.298c-1.565.478-2.604 1.37-2.67 2.68v11.32c.066 1.531 1.309 2.146 2.67 2.243v2.296H0V31.3c1.445-.274 2.553-1.022 2.72-2.243V17.737c-.098-1.13-1.208-2.023-2.72-2.68V12.76z"/>
        <path d="M16.794 15.323v-2.347h11.363v3.132c6.038-6.074 16.176-3.295 16.317 3.633v8.856c.065 1.589 1.017 2.698 2.854 3.319v2.345H33.01v-2.346c1.93-.744 2.836-1.849 2.722-3.318v-8.044c-.546-3.753-6.87-3.753-7.312 0v9.072c.341 1.263 1.33 1.89 2.814 2.29v2.354l-14.44-.008v-2.345c1.456-.34 2.417-.832 2.729-2.29V19.058c.063-2.23-.59-2.974-2.728-3.736"/>
        <path d="M62.719 23.363c-1.718.855-3.222 1.165-5.598 1.987-2.267 1.026-2.325 3.264-1.438 4.578 1.347 2.066 6.805 1.039 7.036-2.156v-4.409zm-6.64-3.25h-6.343l.001-7.143h3.17l.943 2.165h1.042c6.115-6.085 16.909-2.212 16.648 4.228.034 2.967.064 5.936.098 8.903.133 1.744 1.19 2.9 3.171 3.471v2.323H63.562c-.313-.374-.627-.75-.942-1.124-6.694 2.887-16.164.887-16.054-4.099-.052-4.796 4.264-7.306 8.82-7.358 5.442.066 8.3-1.242 6.74-4.097-.569-1.418-5.953-2.565-6.047 2.73z"/>
        <path d="M94.544 24.242H100c-2.383 13.639-25.58 11.439-25.942-.627-.425-8.659 10.293-13.038 17.912-11 2.17.887 3.842 1.017 4.788.045.258-.653 2.202-.847 2.47-.045v6.241c-2.4.104-4.804.21-7.206.313-.612-6.444-8.79-5.639-9.163.179-.5 5.561.503 9.077 3.707 9.607 3.788.495 6.56-.978 7.978-4.713"/>
        <path d="M94.782 9.314l-.084-.658c.166.041.308.061.433.061a.877.877 0 0 0 .403-.078.657.657 0 0 0 .248-.218c.047-.068.125-.243.229-.52.015-.041.04-.096.068-.173L94.388 3.58h.815l.927 2.398c.12.305.229.624.322.958.09-.322.192-.635.312-.944l.953-2.412h.756l-1.695 4.21c-.184.456-.326.769-.425.939a1.39 1.39 0 0 1-.461.509 1.162 1.162 0 0 1-.623.162c-.145 0-.307-.028-.487-.086zm-9.715-3.672c-.276.106-.686.192-1.234.265-.31.041-.53.088-.658.14a.636.636 0 0 0-.3.23.591.591 0 0 0 .125.802c.152.122.375.184.669.184.292 0 .55-.057.777-.176.226-.12.394-.282.5-.485.08-.159.121-.395.121-.703v-.257zm.064 1.568c-.28.22-.55.376-.81.467a2.44 2.44 0 0 1-.832.138c-.49 0-.865-.113-1.13-.335a1.064 1.064 0 0 1-.394-.85c0-.205.048-.389.15-.559a1.15 1.15 0 0 1 .39-.4c.162-.101.342-.18.544-.23.146-.036.37-.074.67-.107.61-.067 1.06-.148 1.348-.242l.006-.182c0-.287-.073-.49-.217-.603-.19-.161-.48-.24-.86-.24-.354 0-.617.057-.789.174-.169.116-.292.32-.373.615l-.738-.096a1.66 1.66 0 0 1 .33-.71c.153-.182.377-.32.669-.417.291-.1.628-.147 1.011-.147.382 0 .69.043.927.126.239.082.413.187.527.312.112.127.188.286.233.48.026.119.04.332.04.645v.936c0 .655.014 1.066.048 1.238.03.172.095.338.188.496h-.79a1.436 1.436 0 0 1-.148-.509zm-12.583.51v-.608c-.35.468-.82.703-1.416.703a1.94 1.94 0 0 1-.736-.141 1.23 1.23 0 0 1-.508-.352 1.304 1.304 0 0 1-.234-.522 3.541 3.541 0 0 1-.045-.654V3.58h.755v2.297c0 .367.017.613.046.74.05.185.15.33.304.435a.992.992 0 0 0 .571.158c.227 0 .439-.055.638-.162a.932.932 0 0 0 .42-.44c.085-.187.126-.456.126-.81V3.58h.755v4.14h-.676zm-15.03-2.144c0 .543.116.938.349 1.19.233.248.522.373.873.373.347 0 .639-.125.873-.37.236-.251.352-.639.352-1.169 0-.508-.12-.889-.363-1.146a1.162 1.162 0 0 0-.876-.386c-.335 0-.62.127-.858.38-.233.253-.35.63-.35 1.128zm-.626 2.488l.737.101c.028.21.116.364.254.46.187.13.444.194.768.194.35 0 .621-.064.81-.193a.974.974 0 0 0 .388-.546c.039-.143.055-.444.052-.901-.328.36-.74.54-1.233.54-.613 0-1.087-.203-1.423-.616-.337-.41-.506-.903-.506-1.477 0-.394.08-.759.232-1.093.157-.333.377-.59.671-.774a1.919 1.919 0 0 1 1.03-.273c.526 0 .96.198 1.301.594v-.5h.699V7.16c0 .643-.072 1.102-.213 1.371-.14.269-.364.48-.673.636-.306.156-.683.234-1.131.234-.531 0-.96-.112-1.29-.333-.328-.222-.485-.557-.473-1.003zm-9.533-.345v-.607c-.35.468-.82.703-1.416.703a1.93 1.93 0 0 1-.736-.141 1.23 1.23 0 0 1-.508-.352 1.25 1.25 0 0 1-.234-.522 3.541 3.541 0 0 1-.045-.654V3.58h.754v2.297c0 .367.016.613.046.74a.74.74 0 0 0 .304.435.986.986 0 0 0 .57.158c.227 0 .438-.055.638-.162a.91.91 0 0 0 .42-.44c.085-.187.127-.456.127-.81V3.58h.754v4.14h-.674zm-13.606 0V3.58h.678v.627c.175-.293.333-.486.48-.58a.885.885 0 0 1 .485-.141c.256 0 .515.075.779.226l-.262.652a1.14 1.14 0 0 0-.555-.153.75.75 0 0 0-.726.522 2.56 2.56 0 0 0-.124.82v2.166h-.755zm-9.881-5.713h.816v3.302c0 .575-.07 1.03-.21 1.367-.14.34-.393.613-.759.824-.364.214-.843.32-1.438.32-.575 0-1.049-.093-1.414-.278a1.628 1.628 0 0 1-.785-.802c-.158-.35-.235-.826-.235-1.43V2.005h.813v3.299c0 .495.05.86.148 1.094.1.237.274.418.514.545.242.13.538.192.889.192.598 0 1.025-.127 1.28-.378.254-.253.381-.736.381-1.453V2.006z"/>
        <path d="M96.56 40.752l.54-.074a.62.62 0 0 0 .253.436c.138.103.33.152.581.152.25 0 .437-.044.557-.134.123-.09.183-.197.183-.315 0-.108-.053-.193-.163-.256-.073-.043-.26-.097-.557-.162-.4-.09-.679-.166-.833-.23a.793.793 0 0 1-.353-.269.659.659 0 0 1-.02-.728.805.805 0 0 1 .268-.269c.084-.055.201-.102.347-.139a2.135 2.135 0 0 1 1.139.038c.191.064.333.149.424.26.09.11.153.255.187.435l-.532.066a.515.515 0 0 0-.212-.34c-.118-.08-.28-.124-.493-.124-.251 0-.431.038-.537.11-.108.073-.161.157-.161.256a.24.24 0 0 0 .067.168.486.486 0 0 0 .21.128c.053.017.213.057.482.122.386.09.656.164.808.221a.826.826 0 0 1 .36.251.649.649 0 0 1 .132.41.75.75 0 0 1-.16.453c-.109.14-.26.25-.46.326-.2.077-.427.116-.68.116-.42 0-.739-.076-.959-.228-.22-.154-.359-.38-.418-.68zm-3.796-.841h1.8c-.023-.236-.092-.416-.206-.534a.892.892 0 0 0-.676-.278.937.937 0 0 0-.633.222.828.828 0 0 0-.285.59zm1.794.773l.563.063a1.203 1.203 0 0 1-.492.674c-.242.16-.548.239-.923.239-.471 0-.845-.129-1.12-.382-.278-.254-.415-.61-.415-1.071 0-.476.14-.845.417-1.108.28-.261.641-.394 1.09-.394.43 0 .78.13 1.053.388.274.257.41.62.41 1.085 0 .029 0 .071-.002.127h-2.404c.02.311.122.55.3.714a.97.97 0 0 0 .673.247c.2 0 .373-.045.513-.139a.9.9 0 0 0 .337-.443zm-6.629.912V38.77h.491v.403c.237-.312.579-.468 1.026-.468.195 0 .373.032.534.092a.834.834 0 0 1 .368.243.826.826 0 0 1 .169.351c.022.092.031.246.031.467v1.738h-.547v-1.719c0-.193-.02-.34-.064-.438a.486.486 0 0 0-.225-.23.786.786 0 0 0-.382-.087.96.96 0 0 0-.6.193c-.17.13-.256.375-.256.738v1.543h-.545zm-3.043 0V38.77h.491v.428c.126-.2.241-.332.347-.396a.682.682 0 0 1 .351-.097c.185 0 .372.053.563.155l-.19.446a.847.847 0 0 0-.4-.105c-.12 0-.226.031-.322.094a.52.52 0 0 0-.204.263c-.06.17-.09.356-.09.558v1.48h-.546zm-2.36-1.418c-.199.071-.498.13-.893.18-.225.03-.385.061-.477.097a.446.446 0 0 0-.214.156.368.368 0 0 0-.078.226c0 .129.056.236.168.32.107.084.27.127.482.127.21 0 .397-.039.561-.12a.805.805 0 0 0 .362-.332c.058-.107.088-.268.088-.48v-.174zm.045 1.07c-.203.15-.397.256-.584.32a1.922 1.922 0 0 1-.603.092c-.354 0-.626-.075-.816-.227a.714.714 0 0 1-.286-.581c0-.14.037-.266.108-.38a.816.816 0 0 1 .281-.276c.118-.068.248-.121.394-.157a4.61 4.61 0 0 1 .486-.071c.442-.047.767-.1.974-.165l.002-.124c0-.196-.05-.334-.154-.412-.14-.11-.348-.165-.622-.165-.256 0-.446.041-.569.12-.122.078-.213.218-.274.418l-.53-.063c.048-.201.126-.364.237-.485.112-.124.273-.22.484-.286.21-.067.453-.101.73-.101.276 0 .501.03.67.086.173.057.301.13.381.214a.72.72 0 0 1 .17.328c.019.081.027.227.027.44v.64c0 .445.012.726.035.843.025.117.07.231.14.34h-.574a.887.887 0 0 1-.107-.349zm-4.315-1.02l.59.13c-.124.424-.346.747-.668.97-.32.224-.713.334-1.176.334-.48 0-.869-.085-1.17-.255-.3-.173-.53-.421-.684-.744a2.38 2.38 0 0 1-.236-1.047c0-.406.088-.76.265-1.062.175-.302.429-.534.755-.69a2.456 2.456 0 0 1 1.078-.235c.446 0 .821.099 1.124.299.303.198.516.476.634.837l-.579.121c-.104-.286-.252-.491-.45-.621-.195-.13-.443-.195-.741-.195-.342 0-.626.073-.856.216-.229.144-.391.337-.485.58-.09.24-.138.489-.138.748 0 .331.056.62.164.868.111.246.282.433.515.555.233.124.485.185.756.185.33 0 .608-.085.837-.25.23-.168.385-.416.465-.744zm-8.568-.317h1.8c-.025-.236-.094-.416-.206-.534a.892.892 0 0 0-.677-.278.934.934 0 0 0-.633.222.818.818 0 0 0-.284.59zm1.793.773l.564.063a1.201 1.201 0 0 1-.495.674c-.241.16-.546.239-.922.239-.471 0-.845-.129-1.122-.382-.275-.254-.415-.61-.415-1.071 0-.476.143-.845.42-1.108.28-.261.643-.394 1.086-.394.431 0 .784.13 1.056.388.274.257.412.62.412 1.085l-.004.127h-2.404c.021.311.12.55.302.714.18.163.404.247.672.247.2 0 .373-.045.514-.139a.916.916 0 0 0 .336-.443zm-6.266-.499c0 .363.087.633.26.813.175.178.38.268.617.268s.44-.086.608-.256c.167-.171.25-.433.25-.784 0-.388-.084-.67-.255-.851a.824.824 0 0 0-.628-.273.808.808 0 0 0-.608.26c-.163.176-.244.449-.244.823zm1.727 1.41v-.356c-.204.28-.506.42-.902.42-.256 0-.492-.061-.709-.186a1.291 1.291 0 0 1-.501-.52 1.615 1.615 0 0 1-.178-.768c0-.281.055-.538.16-.766.11-.23.27-.407.484-.527.214-.124.456-.187.721-.187.193 0 .365.039.517.108.151.075.276.166.371.281v-1.398h.542v3.9h-.505zm-5.765 0h.545v-3.9h-.545v3.9zm-2.353-1.417c-.2.071-.496.13-.893.18a2.35 2.35 0 0 0-.477.097.446.446 0 0 0-.215.156.386.386 0 0 0 .09.547c.108.083.27.126.484.126.21 0 .398-.039.56-.12a.798.798 0 0 0 .363-.332c.06-.107.088-.268.088-.48v-.174zm.045 1.07c-.202.15-.399.256-.585.32a1.91 1.91 0 0 1-.603.092c-.352 0-.626-.075-.816-.227a.713.713 0 0 1-.284-.581c0-.14.035-.266.108-.38a.828.828 0 0 1 .28-.276c.12-.068.25-.121.395-.157a4.5 4.5 0 0 1 .485-.071c.442-.047.767-.1.975-.165l.003-.124c0-.196-.053-.334-.155-.412-.14-.11-.347-.165-.622-.165-.258 0-.446.041-.57.12-.123.078-.212.218-.272.418l-.534-.063c.049-.201.129-.364.24-.485.111-.124.272-.22.483-.286.211-.067.455-.101.73-.101.277 0 .5.03.672.086.173.057.297.13.381.214a.745.745 0 0 1 .168.328c.02.081.026.227.026.44v.64c0 .445.012.726.037.843.021.117.07.231.138.34h-.572a.935.935 0 0 1-.108-.349zm-6.528.348V38.77h.492v.403c.237-.312.58-.468 1.026-.468.195 0 .371.032.535.092a.83.83 0 0 1 .366.243.878.878 0 0 1 .171.351c.02.092.03.246.03.467v1.738h-.548v-1.719c0-.193-.019-.34-.062-.438a.49.49 0 0 0-.226-.23.776.776 0 0 0-.38-.087.972.972 0 0 0-.605.193c-.169.13-.253.375-.253.738v1.543h-.546zm-4.065-1.413c0 .362.088.633.268.813.183.18.41.27.68.27a.92.92 0 0 0 .678-.272c.18-.18.27-.457.27-.827 0-.349-.09-.614-.271-.795a.927.927 0 0 0-.676-.27.938.938 0 0 0-.68.27c-.181.179-.27.45-.27.81zm-.563 0c0-.523.166-.912.499-1.163.277-.21.613-.315 1.013-.315.443 0 .807.128 1.087.385.282.253.421.604.421 1.052 0 .365-.06.65-.186.86-.124.209-.306.369-.543.484a1.761 1.761 0 0 1-.78.174c-.45 0-.814-.127-1.093-.38-.28-.255-.418-.62-.418-1.097zm-2.141 1.413h.546V38.77h-.546v2.826zm0-3.349h.546v-.551h-.546v.551zm-1.973 2.314l.534.061a1.177 1.177 0 0 1-.45.762c-.24.184-.538.276-.891.276-.44 0-.795-.127-1.062-.38-.268-.251-.404-.614-.404-1.088 0-.303.059-.57.174-.8.116-.229.291-.4.527-.514.235-.114.494-.173.769-.173.35 0 .637.08.859.234.222.155.365.376.427.662l-.53.072a.76.76 0 0 0-.268-.43.76.76 0 0 0-.465-.144.913.913 0 0 0-.674.26c-.17.174-.257.447-.257.823 0 .377.084.654.25.828.166.17.383.256.65.256a.833.833 0 0 0 .536-.173c.144-.116.235-.292.275-.532zm-4.471-.383c-.2.071-.496.13-.892.18-.225.03-.385.061-.477.097a.45.45 0 0 0-.216.156.386.386 0 0 0 .09.547c.11.083.272.126.484.126.21 0 .398-.039.56-.12a.787.787 0 0 0 .361-.332c.06-.107.09-.268.09-.48v-.174zm.046 1.07c-.203.15-.399.256-.586.32a1.907 1.907 0 0 1-.601.092c-.356 0-.627-.075-.816-.227a.713.713 0 0 1-.285-.581c0-.14.034-.266.107-.38a.809.809 0 0 1 .282-.276 1.45 1.45 0 0 1 .393-.157c.106-.024.268-.049.484-.071.44-.047.768-.1.976-.165l.004-.124c0-.196-.053-.334-.156-.412-.138-.11-.347-.165-.62-.165-.258 0-.448.041-.571.12-.124.078-.215.218-.273.418l-.533-.063c.05-.201.13-.364.24-.485.11-.124.271-.22.482-.286.21-.067.454-.101.73-.101.277 0 .499.03.671.086.17.057.3.13.38.214.08.088.138.195.172.328.017.081.027.227.027.44v.64c0 .445.01.726.034.843.024.117.069.231.137.34h-.571a.934.934 0 0 1-.107-.349zm-7.496.348v-3.9h.605l2.337 3.062v-3.062h.563v3.9h-.604l-2.337-3.065v3.065h-.564zm-5.443-1.413c0 .362.09.633.27.813.18.18.409.27.68.27a.918.918 0 0 0 .678-.272c.179-.18.27-.457.27-.827 0-.349-.091-.614-.272-.795a.925.925 0 0 0-.676-.27c-.271 0-.5.091-.68.27-.18.179-.27.45-.27.81zm-.561 0c0-.523.165-.912.497-1.163.277-.21.614-.315 1.014-.315.445 0 .806.128 1.087.385.282.253.422.604.422 1.052 0 .365-.063.65-.186.86-.126.209-.308.369-.542.484-.24.116-.5.174-.781.174-.451 0-.816-.127-1.093-.38-.279-.255-.418-.62-.418-1.097zm-1.299.985l.079.423c-.153.027-.29.043-.411.043-.2 0-.354-.028-.462-.082a.494.494 0 0 1-.23-.219c-.044-.088-.068-.277-.068-.564v-1.626h-.4v-.373h.4v-.7l.544-.286v.986h.548v.373h-.548v1.652c0 .136.01.225.028.263.02.04.05.07.094.094a.43.43 0 0 0 .186.034c.061 0 .141-.006.24-.018zm-3.504.428v-.415c-.25.32-.592.479-1.023.479a1.49 1.49 0 0 1-.533-.095.897.897 0 0 1-.367-.243.859.859 0 0 1-.168-.353 2.319 2.319 0 0 1-.033-.449v-1.75h.545v1.566c0 .252.012.42.034.507a.513.513 0 0 0 .22.297.747.747 0 0 0 .412.107.98.98 0 0 0 .46-.11.63.63 0 0 0 .305-.3c.061-.128.09-.312.09-.552V38.77h.548v2.826h-.49zm-3.613-.428l.078.423a2.408 2.408 0 0 1-.41.043c-.2 0-.356-.028-.464-.082a.5.5 0 0 1-.23-.219c-.044-.088-.067-.277-.067-.564v-1.626h-.401v-.373h.401v-.7l.542-.286v.986h.55v.373h-.55v1.652c0 .136.01.225.029.263.02.04.051.07.096.094a.419.419 0 0 0 .184.034c.063 0 .144-.006.242-.018zm-3.54.428h.55V38.77h-.55v2.826zm0-3.349h.55v-.551h-.55v.551zm-1.501 2.92l.077.424c-.153.027-.29.043-.412.043-.198 0-.351-.028-.462-.082a.507.507 0 0 1-.23-.219c-.047-.088-.069-.277-.069-.564v-1.626h-.4v-.373h.4v-.7l.545-.286v.986h.55v.373h-.55v1.652c0 .136.01.225.029.263.02.04.051.07.093.094a.436.436 0 0 0 .187.034c.063 0 .14-.006.242-.018zm-5.487-.415l.538-.074c.03.19.118.337.255.436.138.103.333.152.58.152.253 0 .438-.044.56-.134.122-.09.183-.197.183-.315 0-.108-.056-.193-.163-.256-.075-.043-.26-.097-.558-.162-.4-.09-.68-.166-.833-.23a.766.766 0 0 1-.35-.269.642.642 0 0 1-.123-.379c0-.127.033-.242.1-.35a.822.822 0 0 1 .269-.268c.085-.055.2-.102.346-.139a2.132 2.132 0 0 1 1.14.038c.19.064.332.149.424.26.09.11.152.255.185.435l-.532.066a.515.515 0 0 0-.212-.34c-.115-.08-.282-.124-.492-.124-.252 0-.43.038-.538.11-.107.073-.161.157-.161.256 0 .062.023.118.068.168a.486.486 0 0 0 .208.128c.055.017.216.057.483.122.386.09.657.164.808.221a.81.81 0 0 1 .36.251.641.641 0 0 1 .132.41c0 .16-.054.309-.161.453a.991.991 0 0 1-.46.326c-.2.077-.426.116-.679.116-.419 0-.739-.076-.957-.228-.22-.154-.36-.38-.42-.68zm-4.206.844V38.77h.49v.403c.24-.312.58-.468 1.027-.468.193 0 .372.032.536.092a.817.817 0 0 1 .365.243.826.826 0 0 1 .17.351c.021.092.032.246.032.467v1.738h-.549v-1.719c0-.193-.019-.34-.062-.438a.49.49 0 0 0-.227-.23.776.776 0 0 0-.382-.087.972.972 0 0 0-.602.193c-.168.13-.252.375-.252.738v1.543h-.546zm-2.524 0h.588v-3.9H0v3.9z"/>
    </g>
</svg>
