<svg width="404" height="41" viewBox="0 0 404 41" xmlns="http://www.w3.org/2000/svg">
    <title>
        Group 37
    </title>
    <g fill="none" fill-rule="evenodd">
        <path d="M86.408 20.619v-.115c.002-9.003-6.497-16.369-15.46-16.371-8.963-.002-15.351 7.247-15.353 16.253v.112c-.003 9.003 6.496 16.367 15.46 16.37 8.962.001 15.35-7.244 15.353-16.25M51 20.61v-.112C51.002 9.568 59.13-.002 71.063 0 82.994.004 91.004 9.462 91 20.39v.117C90.998 31.437 82.873 41.002 70.94 41 59.007 40.998 50.997 31.54 51 20.61" fill="#FFF"/>
        <path d="M128.453 20.4c5.872.003 10.07-3.084 10.072-8.226v-.115c0-4.911-3.693-7.883-10.016-7.883l-12.084-.004-.002 16.227 12.03.002zM112.009 0l16.839.004c4.811 0 8.67 1.486 11.13 4.002C141.88 5.948 143 8.746 143 11.89v.113c-.002 6.628-4.478 10.511-10.633 11.656l9.417 12.797c1.075 1.46.054 3.545-1.733 3.543-.685 0-1.329-.33-1.737-.89L127.61 24.457l-11.188-.002-.002 13.284c0 1.247-.989 2.257-2.21 2.257-1.22 0-2.209-1.012-2.209-2.26L112.009 0z" fill="#FFF"/>
        <path d="M164.007 1l26.673.004c1.128 0 2.043.924 2.043 2.06a2.05 2.05 0 0 1-2.043 2.055l-22.19-.007-.003 13.66 19.635.004a2.05 2.05 0 0 1 2.043 2.057 2.05 2.05 0 0 1-2.043 2.057l-19.637-.004-.002 13.997 22.474.005a2.05 2.05 0 0 1 2.043 2.06A2.048 2.048 0 0 1 190.957 41L164 40.998 164.007 1z" fill="#FFF"/>
        <path d="M213.009 1l25.96.004c1.12 0 2.031.935 2.031 2.087 0 1.153-.91 2.088-2.034 2.088l-21.562-.007-.004 14.284 19.09.005c1.104 0 2.002.921 2.002 2.057s-.898 2.055-2.002 2.055l-19.09-.004-.004 15.172c0 1.247-.984 2.259-2.196 2.259-1.216 0-2.2-1.014-2.2-2.259L213.009 1z" fill="#FFF"/>
        <path d="M259 0h40v41h-40z"/>
        <path d="M294.406 20.616v-.112c.002-9.005-6.494-16.369-15.46-16.371-8.962-.002-15.35 7.245-15.35 16.25v.115c-.002 9.003 6.494 16.367 15.46 16.367 8.962.002 15.35-7.243 15.35-16.249M259 20.608v-.112C259.002 9.566 267.129-.002 279.062 0c11.933.002 19.94 9.462 19.938 20.39v.114c-.002 10.93-8.127 20.498-20.06 20.496-11.933-.004-19.942-9.462-19.94-20.392" fill="#FFF"/>
        <path d="M321.784 1c.854 0 1.657.4 2.182 1.087l23.74 30.97.006-29.852c0-1.215.96-2.2 2.145-2.198 1.184 0 2.145.985 2.143 2.198l-.006 35.373c0 1.34-1.059 2.422-2.361 2.422-.726 0-1.411-.341-1.858-.923L323.296 8.199l-.006 30.598c0 1.213-.96 2.196-2.145 2.196-1.186 0-2.145-.983-2.145-2.198l.009-34.95c0-1.572 1.242-2.845 2.775-2.845" fill="#FFF"/>
        <path d="M374.321.57h29.039v39.775H374.32z"/>
        <path d="M374.33.57l26.708.006a2.045 2.045 0 1 1 0 4.089l-22.22-.005-.002 13.582 19.661.004a2.046 2.046 0 0 1 0 4.089l-19.663-.004-.002 13.92 22.504.005a2.046 2.046 0 1 1 0 4.089l-26.995-.007.01-39.769z" fill="#FFF"/>
        <path d="M0 0h34v41H0z"/>
        <path d="M0 20.61v-.112C.002 9.284 8.19-.002 19.586 0c5.98.002 9.915 1.848 13.341 4.706.982.818 1.078 2.326.217 3.277a2.148 2.148 0 0 1-2.989.195c-2.883-2.42-6.18-4.043-10.629-4.045-8.571-.002-14.99 7.133-14.992 16.25v.115c-.002 9.174 6.47 16.367 14.986 16.37 4.656 0 7.91-1.61 11.139-4.45a1.99 1.99 0 0 1 2.731.105c.851.852.802 2.266-.088 3.073-3.634 3.308-7.778 5.406-13.89 5.404C8.237 40.998-.004 31.994 0 20.61" fill="#FFF"/>
    </g>
</svg>
