<svg width="62" height="67" viewBox="0 0 62 67" xmlns="http://www.w3.org/2000/svg">
    <title>
        doctor
    </title>
    <path d="M40.437 32.442c3.886-4.469 6.312-10.966 6.312-15.884 0-8.706-7.186-15.781-16.027-15.781-8.842 0-16.027 7.075-16.027 15.78 0 4.919 2.425 11.416 6.311 15.885C-2.506 40.223-.042 61.642.99 66.007h59.466c3.508-14.96-5.777-29.47-20.018-33.565zm-9.715-29.56c5.62 0 10.458 3.3 12.636 8.039-5.333 3.582-10.745-.462-10.745-.462a11.409 11.409 0 0 0-12.102.5l-3.234 2.235C18.802 7.287 24.24 2.883 30.722 2.883zM16.833 16.559c0-.167.013-.334.026-.5l4.878-3.378c2.895-2.003 6.742-2.157 9.793-.41 0 0 5.96 4.493 12.572.68.313 1.143.508 2.35.508 3.595 0 7.473-6.22 18.94-13.888 18.94S16.833 24.03 16.833 16.558zM58.681 63.9H2.775C1.158 54.027 5.266 44.538 12.83 38.823a29.533 29.533 0 0 0 2.66 8.488c-3.3 2.042-4.851 6.138-3.508 9.9l1.774 4.957 4.03-1.4-.705-1.99-2.021.693-1.07-2.979c-1.173-3.287.587-6.895 3.926-8.05 3.325-1.157 7.003.577 8.176 3.864l1.057 2.98-2.022.693.704 1.99 4.03-1.4-1.774-4.97c-1.538-4.314-6.298-6.612-10.68-5.212a27.252 27.252 0 0 1-2.621-8.95 27.224 27.224 0 0 1 7.916-3.313c2.334 2.093 5.046 3.428 8.007 3.428 2.96 0 5.672-1.335 8.007-3.428 3.364.822 6.429 2.221 9.09 4.096a27.077 27.077 0 0 1-3.13 7.923 4.201 4.201 0 0 0-1.148-.18c-2.36 0-4.278 1.887-4.278 4.212 0 2.324 1.917 4.211 4.278 4.211 2.36 0 4.277-1.887 4.277-4.211a4.14 4.14 0 0 0-1.278-2.992 29.491 29.491 0 0 0 3.13-7.55c6.899 5.842 10.55 14.895 9.024 24.268zM45.68 50.226c0 1.156-.965 2.106-2.14 2.106-1.173 0-2.138-.938-2.138-2.106 0-1.169.965-2.106 2.139-2.106 1.187 0 2.139.95 2.139 2.106z" fill="#364049" fill-rule="nonzero" opacity=".503"/>
</svg>
