<svg width="187" height="19" viewBox="0 0 187 19" xmlns="http://www.w3.org/2000/svg">
    <title>
        Logo_Cf_1
    </title>
    <g fill-rule="nonzero" fill="none">
        <path d="M.004 9.553V9.5a9.293 9.293 0 0 1 2.612-6.71A9.145 9.145 0 0 1 9.211.007a9.212 9.212 0 0 1 6.277 2.175 1.047 1.047 0 0 1 .103 1.52c-.37.4-.985.442-1.405.094a7.51 7.51 0 0 0-5.001-1.873c-4.034 0-7.065 3.263-7.065 7.527v.052c0 4.247 3.048 7.579 7.048 7.579a7.461 7.461 0 0 0 5.241-2.063.945.945 0 0 1 1.285.052.979.979 0 0 1 0 1.424 9.157 9.157 0 0 1-6.56 2.503 9.051 9.051 0 0 1-6.555-2.767A9.198 9.198 0 0 1 .004 9.553z" fill="#0A0A0A"/>
        <path d="M24 9.552V9.5a9.469 9.469 0 0 1 4.727-8.218 9.523 9.523 0 0 1 9.5-.026A9.47 9.47 0 0 1 43 9.448V9.5a9.469 9.469 0 0 1-4.727 8.218 9.523 9.523 0 0 1-9.5.026A9.47 9.47 0 0 1 24 9.552zm16.811 0V9.5a7.375 7.375 0 0 0-2.047-5.383 7.417 7.417 0 0 0-5.299-2.283c-4.255 0-7.294 3.396-7.294 7.614V9.5a7.375 7.375 0 0 0 2.047 5.383 7.417 7.417 0 0 0 5.3 2.283c4.264 0 7.293-3.396 7.293-7.614z" fill="#0A0A0A"/>
        <path d="M52 .009h7.629c1.836-.096 3.634.588 5.003 1.902.901 1.003 1.393 2.349 1.367 3.74v.054c0 3.152-2.026 4.991-4.81 5.536l4.268 6.08c.22.32.253.743.088 1.097a.98.98 0 0 1-.872.582.963.963 0 0 1-.783-.42l-4.853-6.955h-5.036v6.304c0 .591-.448 1.071-1 1.071-.553 0-1.001-.48-1.001-1.071V.009zm7.446 9.687c2.66 0 4.56-1.464 4.56-3.91v-.054c0-2.33-1.667-3.741-4.535-3.741H54v7.705h5.445z" fill="#0A0A0A"/>
        <path d="M76 0h11.985c.242 0 .475.103.646.285.172.183.268.43.268.69 0 .537-.41.973-.914.973h-9.97v6.489h8.82c.505 0 .915.436.915.974.004.261-.09.513-.262.7a.888.888 0 0 1-.653.292h-8.82v6.649h10.07c.505 0 .915.436.915.974 0 .258-.096.506-.268.689a.887.887 0 0 1-.647.285H76V0z" fill="#0A0A0A"/>
        <path d="M120 9.552V9.5c-.014-5.232 4.227-9.485 9.474-9.5 5.246-.014 9.511 4.215 9.526 9.448V9.5a9.469 9.469 0 0 1-4.727 8.218 9.523 9.523 0 0 1-9.5.026A9.47 9.47 0 0 1 120 9.552zm16.811 0V9.5a7.375 7.375 0 0 0-2.047-5.383 7.417 7.417 0 0 0-5.299-2.283c-4.255 0-7.294 3.396-7.294 7.614V9.5a7.375 7.375 0 0 0 2.047 5.383 7.417 7.417 0 0 0 5.3 2.283c4.264 0 7.302-3.396 7.302-7.614h-.009z" fill="#0A0A0A"/>
        <path d="M149.267 0c.388 0 .754.191.993.518l10.797 14.712V1.045c0-.574.432-1.04.967-1.045.54 0 .976.468.976 1.045v16.803c0 .636-.482 1.152-1.076 1.152a1.052 1.052 0 0 1-.833-.438l-11.14-15.14v14.533c0 .577-.437 1.045-.975 1.045-.54 0-.976-.468-.976-1.045V1.358a1.4 1.4 0 0 1 .369-.963c.238-.255.562-.397.898-.395z" fill="#0A0A0A"/>
        <path d="M174 0h11.985c.505 0 .914.436.914.974s-.41.974-.914.974h-9.97v6.489h8.82c.505 0 .915.436.915.974.004.261-.09.513-.262.7a.888.888 0 0 1-.653.292h-8.82v6.649h10.07c.505 0 .915.436.915.974s-.41.974-.915.974H174V0z" fill="#0A0A0A"/>
        <path fill="#FF5C39" d="M99 0v19l19-19z"/>
    </g>
</svg>
