<svg width="88" height="96" viewBox="0 0 88 96" xmlns="http://www.w3.org/2000/svg">
    <title>
        Corefone_ManualWeb-1
    </title>
    <g fill="none" fill-rule="evenodd">
        <path d="M10.201 61.237V34.532c0-18.444 14.8-33.396 33.057-33.396 8.768 0 17.176 3.518 23.375 9.781 6.2 6.263 9.683 14.758 9.683 23.615v26.705" stroke="#147EEC" stroke-width="2"/>
        <path d="M43.322 90.523c11.939 0 21.78-3.224 22.962-14.22" stroke="#147EEC" stroke-width="2"/>
        <path d="M51.497 90.318c.17 2.266-1.486 4.252-3.725 4.47h-8.9a3.458 3.458 0 0 1-2.645-1.285 4.9 4.9 0 0 1-1.106-3.16c-.176-2.275 1.489-4.272 3.738-4.483h8.9a3.42 3.42 0 0 1 2.645 1.285c.425.517.733 1.122.903 1.773.131.454.196.926.19 1.4z" stroke="#147EEC" stroke-width="2"/>
        <path d="M11.142 40.081h6.09v34.771h-6.09c-4.557 0-8.251-3.732-8.251-8.336V48.405c.007-4.6 3.699-8.324 8.251-8.324z" stroke="#147EEC" stroke-width="2"/>
        <path d="M75.35 74.84h-6.09V40.068h6.09c4.557 0 8.25 3.733 8.25 8.337v18.111c-.006 4.6-3.698 8.324-8.25 8.324z" stroke="#147EEC" stroke-width="2"/>
        <path d="M8.358 42.65h7.082v37.122H8.358C3.8 79.772.106 76.04.106 71.436V50.884c0-4.604 3.694-8.337 8.252-8.337v.103z" fill="#558CCE" fill-rule="nonzero" opacity=".15" style="mix-blend-mode:multiply"/>
        <path d="M79.202 74.98H72.12V37.809h7.082c4.557 0 8.251 3.732 8.251 8.336v20.552c-.028 4.584-3.714 8.285-8.251 8.285z" fill="#558CCE" fill-rule="nonzero" opacity=".15" style="mix-blend-mode:multiply"/>
        <path d="M19.292 37.898h1.119a2.06 2.06 0 0 1 2.06 2.06v35.005a2.06 2.06 0 0 1-2.06 2.06h-1.119a2.06 2.06 0 0 1-2.06-2.06V39.958a2.06 2.06 0 0 1 2.06-2.06z" stroke="#147EEC" stroke-width="2"/>
        <path d="M65.84 37.898h1.118a2.06 2.06 0 0 1 2.06 2.06v35.005a2.06 2.06 0 0 1-2.06 2.06h-1.119a2.06 2.06 0 0 1-2.06-2.06V39.958a2.06 2.06 0 0 1 2.06-2.06z" stroke="#147EEC" stroke-width="2"/>
    </g>
</svg>
