<svg width="81" height="83" viewBox="0 0 81 83" xmlns="http://www.w3.org/2000/svg">
    <title>
        Corefone_ManualWeb-5
    </title>
    <g fill="none" fill-rule="evenodd">
        <path stroke="#147EEC" stroke-width="2" d="M45.66 63.167h24.478v9.514H45.66z"/>
        <path d="M79.07 43.504v31.242a6.948 6.948 0 0 1-2.048 4.935 7.029 7.029 0 0 1-4.96 2.046H8.059a7.029 7.029 0 0 1-4.993-2.028A6.948 6.948 0 0 1 1 74.746V31.85c0-1.85.74-3.625 2.057-4.932a7.029 7.029 0 0 1 4.964-2.036h14.857c.401.001.802.035 1.198.101a7.111 7.111 0 0 1 3.682 1.9l7.862 7.602a7.029 7.029 0 0 0 4.88 1.99h31.575c.28-.02.56-.02.84 0 3.562.427 6.22 3.464 6.155 7.03z" stroke="#147EEC" stroke-width="2"/>
        <path d="M64.71 8.601v27.872H40.5a7.03 7.03 0 0 1-4.906-1.989l-7.861-7.601a7.111 7.111 0 0 0-3.708-1.9 7.355 7.355 0 0 0-1.198-.102h-7.403V8.601H64.71z" stroke="#147EEC" stroke-width="2"/>
        <path d="M61.397 11.895v27.872h-24.21a7.03 7.03 0 0 1-4.906-1.989l-7.861-7.601a7.111 7.111 0 0 0-3.708-1.9 7.355 7.355 0 0 0-1.198-.102h-7.403v-16.28h49.286z" fill="#558CCE" fill-rule="nonzero" opacity=".15"/>
        <path d="M72.915 1.114v35.473c-.28-.02-.56-.02-.84 0H64.71V8.601H24.063V1.114h48.852z" stroke="#147EEC" stroke-width="2"/>
        <path d="M20.177 15.316H34.88" stroke="#147EEC" stroke-width="2"/>
        <path d="M38.767 23.601h20.425" stroke="#147EEC" stroke-width="2"/>
        <path d="M38.767 28.428h20.425" stroke="#147EEC" stroke-width="2"/>
        <path fill="#558CCE" fill-rule="nonzero" opacity=".15" style="mix-blend-mode:multiply" d="M21.069 65.586v-3.28h-3.3l-2.345-2.332-2.332 2.331H9.78v3.281l-2.332 2.331 2.332 2.319v3.294h3.313l2.332 2.318 2.344-2.318h3.3v-3.294l2.345-2.319z"/>
    </g>
</svg>
