<svg width="272" height="59" viewBox="0 0 272 59" xmlns="http://www.w3.org/2000/svg">
    <title>
        clients-3
    </title>
    <g fill="#FEFEFE" fill-rule="nonzero">
        <path d="M260.168 22.669v-5.637l.132-.047 5.602-1.667.18-.045v7.396H272v4.827h-6.008v11.82c0 1.533.274 2.569.813 3.2.588.678 1.401.947 2.575.947a4.07 4.07 0 0 0 1.175-.18c.542-.136.858-.315 1.219-.541l.226-.181v4.827l-.042.047c-.364.179-.995.405-1.854.586-.813.132-1.672.269-2.485.269-4.968 0-7.451-2.661-7.451-7.938V27.496h-8.854v20.162h-5.918v-20.21h-4.11v-4.78h4.11v-3.47c0-1.759.407-3.294 1.174-4.648a7.847 7.847 0 0 1 3.207-3.202c1.4-.678 2.938-1.08 4.699-1.08 1.398 0 2.483.178 3.296.449l.137.045v5.097l-.226-.136c-.948-.405-1.809-.587-2.62-.587-1.174 0-2.124.36-2.756 1.084-.632.722-.993 1.848-.993 3.291v3.158h8.854zm-54.206 10.374c-1.851-.767-3.026-1.354-3.568-1.848-.453-.452-.677-1.083-.677-1.893 0-.678.271-1.356.948-1.806.677-.45 1.446-.676 2.575-.676.995 0 2.033.179 3.025.45.995.273 1.898.676 2.62 1.22l.226.178v-5.502l-.136-.045c-.677-.27-1.58-.542-2.665-.768-1.085-.18-2.075-.27-2.89-.27-2.802 0-5.103.675-6.912 2.166-1.806 1.398-2.664 3.294-2.664 5.503 0 1.172.181 2.208.587 3.068a6.81 6.81 0 0 0 1.806 2.345c.816.63 1.99 1.351 3.615 2.03 1.353.586 2.393 1.038 3.025 1.398.634.36 1.04.765 1.358 1.083.224.358.36.813.36 1.399 0 1.667-1.265 2.48-3.84 2.48-.993 0-2.033-.182-3.252-.587a12.633 12.633 0 0 1-3.296-1.67l-.227-.18v5.73l.135.043c.858.407 1.896.676 3.162.994 1.266.226 2.393.405 3.388.405 3.025 0 5.51-.676 7.272-2.164 1.809-1.444 2.756-3.292 2.756-5.684 0-1.67-.452-3.158-1.445-4.286-1.311-1.08-2.938-2.21-5.286-3.113zm-41.512-10.78a6.211 6.211 0 0 0-3.975 1.4c-.995.812-1.672 1.984-2.26 3.383h-.042V22.67H152.3v24.99h5.873V34.893c0-2.164.45-3.97 1.444-5.279.995-1.352 2.258-2.03 3.793-2.03.545 0 1.085.137 1.764.226.632.182 1.082.36 1.398.587l.227.181v-5.863l-.135-.047c-.408-.27-1.219-.405-2.214-.405zm-19.377.18a16.524 16.524 0 0 0-3.297-.36c-2.666 0-5.104.586-7.14 1.758-2.03 1.173-3.657 2.798-4.696 4.827-1.083 2.075-1.625 4.467-1.625 7.217 0 2.39.542 4.512 1.582 6.452 1.038 1.893 2.483 3.428 4.426 4.464 1.851 1.039 4.02 1.58 6.458 1.58 2.8 0 5.195-.586 7.093-1.67l.045-.044v-5.413l-.227.181c-.858.629-1.853 1.173-2.846 1.488-1.037.36-1.985.54-2.798.54-2.351 0-4.202-.676-5.513-2.164-1.354-1.444-2.03-3.429-2.03-5.908 0-2.571.676-4.603 2.077-6.09 1.398-1.49 3.25-2.255 5.508-2.255 1.898 0 3.841.631 5.602 1.893l.227.18v-5.727l-.045-.047c-.769-.314-1.627-.676-2.801-.902zm-23.716-10.328c-.99 0-1.804.36-2.483.992-.677.63-1.04 1.443-1.04 2.437 0 .946.363 1.759 1.04 2.387.679.634 1.492.95 2.483.95.995 0 1.853-.363 2.485-.95a3.165 3.165 0 0 0 1.04-2.387c0-.95-.363-1.76-1.04-2.437-.587-.631-1.445-.992-2.485-.992zm-2.98 35.543h5.873v-24.99h-5.874v24.99zM95.52 34.713l-1.627 4.603h-.134c-.272-1.04-.77-2.618-1.583-4.511L83.46 12.928h-8.538v34.867h5.647V26.276c0-1.351 0-2.884-.044-4.78-.045-.946-.137-1.67-.182-2.208h.137c.27 1.351.587 2.345.81 2.976l10.482 25.44h3.975l10.387-25.664c.229-.588.455-1.761.681-2.752h.135c-.135 2.569-.229 4.869-.271 6.27v22.1h6.008V12.836h-8.222L95.52 34.713z"/>
        <path d="M185.962 39.649c-1.103 1.415-2.85 2.101-5.012 2.101-2.16 0-3.906-.686-5.147-2.192-1.24-1.415-1.838-3.468-1.838-6.07 0-2.691.643-4.745 1.838-6.205 1.24-1.46 2.942-2.19 5.104-2.19 2.111 0 3.767.684 4.962 2.1 1.195 1.412 1.84 3.468 1.84 6.157-.093 2.74-.597 4.884-1.747 6.299m-4.78-19.44c-4.184 0-7.54 1.23-9.882 3.65-2.39 2.42-3.54 5.751-3.54 9.949 0 3.923 1.195 7.12 3.492 9.448 2.298 2.282 5.425 3.468 9.333 3.468 4.089 0 7.352-1.234 9.699-3.697 2.39-2.463 3.536-5.75 3.536-9.812 0-4.017-1.103-7.211-3.354-9.537-2.16-2.33-5.331-3.468-9.283-3.468"/>
        <path d="M233.194 39.649c-1.103 1.415-2.848 2.101-5.01 2.101-2.159 0-3.905-.686-5.146-2.192-1.242-1.415-1.84-3.468-1.84-6.07 0-2.691.646-4.745 1.84-6.205 1.24-1.46 2.94-2.19 5.101-2.19 2.114 0 3.77.684 4.964 2.1 1.195 1.412 1.84 3.468 1.84 6.157-.096 2.74-.6 4.884-1.749 6.299m-4.779-19.44c-4.182 0-7.538 1.23-9.88 3.65-2.39 2.42-3.541 5.751-3.541 9.949 0 3.923 1.195 7.12 3.493 9.448 2.299 2.282 5.425 3.468 9.33 3.468 4.091 0 7.354-1.234 9.698-3.697 2.39-2.463 3.539-5.75 3.539-9.812 0-4.017-1.104-7.211-3.354-9.537-2.16-2.33-5.334-3.468-9.285-3.468"/>
        <path d="M0 28.496h27.689V.324H0z"/>
        <path d="M30.946 28.496h27.689V.324H30.946z"/>
        <path d="M0 58.324h27.689V30.153H0z"/>
        <path d="M30.946 58.324h27.689V30.153H30.946z"/>
    </g>
</svg>
