<svg width="82" height="96" viewBox="0 0 82 96" xmlns="http://www.w3.org/2000/svg">
    <title>
        Corefone_ManualWeb-1
    </title>
    <g fill="none" fill-rule="evenodd">
        <path d="M9.485 61.237V34.532c0-18.444 13.791-33.396 30.804-33.396 8.169 0 16.004 3.518 21.78 9.781 5.777 6.263 9.023 14.758 9.023 23.615v26.705" stroke="#FFF" stroke-width="2"/>
        <path d="M40.348 90.523c11.124 0 20.294-3.224 21.396-14.22" stroke="#FFF" stroke-width="2"/>
        <path d="M47.966 90.318c.158 2.266-1.385 4.252-3.472 4.47h-8.293c-.956-.013-1.858-.483-2.464-1.285a5.128 5.128 0 0 1-1.03-3.16c-.165-2.275 1.386-4.272 3.482-4.483h8.293c.958.007 1.862.479 2.465 1.285.396.517.683 1.122.84 1.773.124.454.184.926.179 1.4z" stroke="#FFF" stroke-width="2"/>
        <path d="M10.362 40.081h5.675v34.771h-5.675c-4.247 0-7.689-3.732-7.689-8.336V48.405c.007-4.6 3.447-8.324 7.689-8.324z" stroke="#FFF" stroke-width="2"/>
        <path d="M70.191 74.84h-5.675V40.068h5.675c4.247 0 7.69 3.733 7.69 8.337v18.111c-.007 4.6-3.448 8.324-7.69 8.324z" stroke="#FFF" stroke-width="2"/>
        <path d="M7.767 42.65h6.6v37.122h-6.6c-4.246 0-7.689-3.732-7.689-8.336V50.884c0-4.604 3.443-8.337 7.69-8.337v.103z" fill-opacity=".25" fill="#FFF" fill-rule="nonzero" opacity=".15" style="mix-blend-mode:multiply"/>
        <path d="M73.781 74.98h-6.599V37.809h6.6c4.246 0 7.688 3.732 7.688 8.336v20.552c-.026 4.584-3.46 8.285-7.689 8.285z" fill-opacity=".25" fill="#FFF" fill-rule="nonzero" opacity=".15" style="mix-blend-mode:multiply"/>
        <path d="M18.097 37.898h.761a2.06 2.06 0 0 1 2.06 2.06v35.005a2.06 2.06 0 0 1-2.06 2.06h-.761a2.06 2.06 0 0 1-2.06-2.06V39.958a2.06 2.06 0 0 1 2.06-2.06z" stroke="#FFF" stroke-width="2"/>
        <path d="M61.47 37.898h.761a2.06 2.06 0 0 1 2.06 2.06v35.005a2.06 2.06 0 0 1-2.06 2.06h-.76a2.06 2.06 0 0 1-2.06-2.06V39.958a2.06 2.06 0 0 1 2.06-2.06z" stroke="#FFF" stroke-width="2"/>
    </g>
</svg>
