<svg width="84" height="85" viewBox="0 0 84 85" xmlns="http://www.w3.org/2000/svg">
    <title>
        Corefone_ManualWeb-7
    </title>
    <g fill="none" fill-rule="evenodd">
        <path d="M35.287 43.463h7.655v-10.49h.463a4.685 4.685 0 0 1 3.27 1.463 5.435 5.435 0 0 0 3.846 1.602c2.886.013 5.307-2.225 5.586-5.165.28-2.94-1.674-5.613-4.508-6.17a5.442 5.442 0 0 0-4.924 1.5 4.672 4.672 0 0 1-3.27 1.45h-.463v-10.49H32.694v-.59a4.9 4.9 0 0 1 1.428-3.333 5.699 5.699 0 0 0 1.566-3.937c0-3.158-2.502-5.719-5.588-5.719h-.113a5.523 5.523 0 0 0-3.95 1.675A5.788 5.788 0 0 0 24.4 9.303c0 1.471.561 2.884 1.566 3.937a4.901 4.901 0 0 1 1.428 3.346v.59H17.146v10.49h-.464a4.672 4.672 0 0 1-3.27-1.45 5.472 5.472 0 0 0-5.48-1.365C6 25.448 4.535 27.07 4.105 29.088A5.82 5.82 0 0 0 5.2 33.913a5.54 5.54 0 0 0 4.365 2.138 5.435 5.435 0 0 0 3.846-1.603 4.685 4.685 0 0 1 3.27-1.461h.464v10.488h7.63" stroke="#147EEC" stroke-width="2"/>
        <path d="M14.114 39.962h10.248v-.59a4.901 4.901 0 0 0-1.428-3.346 5.699 5.699 0 0 1-1.566-3.937c0-3.158 2.502-5.719 5.588-5.719h.112c3.086 0 5.588 2.56 5.588 5.719a5.696 5.696 0 0 1-1.616 3.937 4.901 4.901 0 0 0-1.428 3.346v.59H39.86V29.486h.463a4.685 4.685 0 0 1 3.27 1.462 5.43 5.43 0 0 0 3.897 1.526c2.782-.118 5.056-2.314 5.33-5.151.274-2.837-1.534-5.447-4.24-6.12a5.442 5.442 0 0 0-4.924 1.5 4.672 4.672 0 0 1-3.27 1.449h-.464V13.676h-10.26v-.59a4.904 4.904 0 0 1 1.378-3.347 5.699 5.699 0 0 0 1.566-3.936c0-3.159-2.502-5.72-5.588-5.72h-.113c-3.086 0-5.587 2.561-5.587 5.72 0 1.47.561 2.884 1.566 3.936a4.901 4.901 0 0 1 1.428 3.347v.59H14.114v10.489h-.464a4.672 4.672 0 0 1-3.27-1.45 5.472 5.472 0 0 0-5.479-1.365c-1.933.597-3.399 2.219-3.83 4.238a5.82 5.82 0 0 0 1.13 4.767 5.54 5.54 0 0 0 4.32 2.119 5.431 5.431 0 0 0 3.847-1.54 4.685 4.685 0 0 1 3.27-1.46h.463l.013 10.488z" fill="#558CCE" fill-rule="nonzero" opacity=".15" style="mix-blend-mode:multiply"/>
        <path d="M43.08 43.36v.115h10.248v.475a4.901 4.901 0 0 1-1.428 3.347 5.699 5.699 0 0 0-1.566 3.936c-.013 2.954 2.174 5.43 5.046 5.717 2.872.286 5.485-1.714 6.029-4.614a5.743 5.743 0 0 0-1.466-5.04 4.889 4.889 0 0 1-1.416-3.346v-.475h10.248V32.987h.577a4.685 4.685 0 0 1 3.27 1.461 5.435 5.435 0 0 0 3.846 1.603c3.086 0 5.587-2.56 5.587-5.719 0-3.158-2.501-5.719-5.587-5.719a5.426 5.426 0 0 0-3.846 1.45 4.685 4.685 0 0 1-3.27 1.461h-.577V17.087H58.527v-.475a4.889 4.889 0 0 1 1.428-3.372 5.789 5.789 0 0 0 1.334-5.608c-.583-1.979-2.167-3.479-4.14-3.92a5.49 5.49 0 0 0-4.714 1.123 5.77 5.77 0 0 0-2.089 4.468A5.7 5.7 0 0 0 51.9 13.24a4.901 4.901 0 0 1 1.428 3.346v.5H43.08v.116" stroke="#147EEC" stroke-width="2"/>
        <path d="M50.734 43.463H43.08v10.489h-.464a4.685 4.685 0 0 1-3.27-1.462 5.435 5.435 0 0 0-3.846-1.603c-2.886-.013-5.306 2.225-5.586 5.165-.28 2.94 1.675 5.613 4.508 6.17a5.443 5.443 0 0 0 4.924-1.539 4.672 4.672 0 0 1 3.27-1.449h.464v10.49h10.248v.59A4.901 4.901 0 0 1 51.9 73.66a5.699 5.699 0 0 0-1.566 3.936c0 3.159 2.501 5.72 5.587 5.72h.176c3.086 0 5.587-2.561 5.587-5.72a5.699 5.699 0 0 0-1.566-3.936 4.895 4.895 0 0 1-1.516-3.321v-.59h10.249V59.273h.463a4.67 4.67 0 0 1 3.308 1.41A5.472 5.472 0 0 0 78.1 62.05c1.933-.597 3.399-2.219 3.83-4.238a5.82 5.82 0 0 0-1.098-4.824 5.54 5.54 0 0 0-4.365-2.139 5.435 5.435 0 0 0-3.846 1.603 4.685 4.685 0 0 1-3.27 1.462h-.464v-10.45h-7.655" stroke="#147EEC" stroke-width="2"/>
        <path d="M42.942 43.565v-.115H32.694v-.475a4.901 4.901 0 0 1 1.428-3.346 5.699 5.699 0 0 0 1.566-3.937c.012-2.953-2.175-5.43-5.047-5.717-2.872-.286-5.484 1.714-6.028 4.614a5.745 5.745 0 0 0 1.415 5.04 4.889 4.889 0 0 1 1.416 3.346v.475H17.26v10.489h-.577a4.685 4.685 0 0 1-3.27-1.462 5.435 5.435 0 0 0-3.846-1.603c-3.086 0-5.588 2.56-5.588 5.719 0 3.158 2.502 5.719 5.588 5.719a5.435 5.435 0 0 0 3.846-1.603 4.677 4.677 0 0 1 3.258-1.308h.589v10.49h10.248v.473a4.884 4.884 0 0 1-1.479 3.322 5.789 5.789 0 0 0-1.333 5.608c.582 1.978 2.167 3.478 4.14 3.919a5.49 5.49 0 0 0 4.713-1.123 5.77 5.77 0 0 0 2.09-4.468 5.699 5.699 0 0 0-1.566-3.936 4.901 4.901 0 0 1-1.429-3.347v-.475h10.299v-.115" stroke="#147EEC" stroke-width="2"/>
    </g>
</svg>
