<svg width="69" height="91" viewBox="0 0 69 91" xmlns="http://www.w3.org/2000/svg">
    <title>
        Group 33
    </title>
    <g fill-rule="nonzero" fill="none">
        <path d="M13.086 89.275L9.2 87.482l-3.935-3.358L3 80.524V6.698l3.73-2.762L11.422 2h46.204l4.804 1.936 2.8 2.762v8.43l-1.614 68.996-1.186 2.251-3.485 1.107-3.333 1.793H13.086z" fill="#FFF"/>
        <path d="M54.597 90.679H14.114C7.79 90.68 2.617 85.85 2.455 79.793L.603 12.429C.519 9.415 1.71 6.497 3.906 4.337 6.1 2.177 9.116.959 12.262.96h44.175c3.146-.001 6.16 1.217 8.356 3.377 2.195 2.16 3.386 5.078 3.303 8.092l-1.827 67.364c-.162 6.063-5.342 10.894-11.672 10.886zM12.275 3.443c-2.448-.001-4.793.946-6.5 2.627-1.709 1.681-2.635 3.952-2.568 6.297l1.84 67.364c.119 4.716 4.144 8.479 9.067 8.478h40.483c4.923 0 8.949-3.762 9.068-8.478l1.84-67.364c.066-2.345-.86-4.616-2.568-6.297-1.708-1.68-4.052-2.628-6.5-2.627H12.275z" fill="#147EEC"/>
        <path d="M52.55 30.651H16.161c-4.293 0-7.772-3.334-7.772-7.447 0-4.114 3.48-7.448 7.772-7.448h36.402c4.293 0 7.773 3.334 7.773 7.448 0 4.113-3.48 7.447-7.773 7.447h-.013zM16.148 18.238c-2.862 0-5.182 2.223-5.182 4.966 0 2.742 2.32 4.965 5.182 4.965H52.55c2.862 0 5.182-2.223 5.182-4.965 0-2.743-2.32-4.966-5.182-4.966H16.148z" fill="#63D50A"/>
        <path d="M14.678 12.23h43.928a5.02 5.02 0 0 1 5.02 5.02v5.886a5.02 5.02 0 0 1-5.02 5.02H14.678a5.02 5.02 0 0 1-5.02-5.02v-5.885a5.02 5.02 0 0 1 5.02-5.02z" opacity=".14" fill="#63D50A"/>
        <path d="M19.115 50.276c-2.558 0-4.864-1.478-5.842-3.743-.978-2.265-.434-4.871 1.376-6.602 1.81-1.732 4.532-2.247 6.894-1.306 2.362.942 3.899 3.154 3.894 5.606-.008 3.34-2.836 6.045-6.322 6.045zm0-9.62c-2.06 0-3.731 1.6-3.731 3.575 0 1.974 1.67 3.574 3.73 3.574 2.061 0 3.732-1.6 3.732-3.574 0-1.975-1.67-3.575-3.731-3.575z" fill="#FF5C39"/>
        <path d="M34.362 50.276c-2.558 0-4.864-1.478-5.842-3.743-.977-2.265-.434-4.871 1.377-6.602 1.81-1.732 4.532-2.247 6.893-1.306 2.362.942 3.9 3.154 3.894 5.606-.007 3.34-2.835 6.045-6.322 6.045zm0-9.62c-2.06 0-3.73 1.6-3.73 3.575 0 1.974 1.67 3.574 3.73 3.574s3.731-1.6 3.731-3.574c0-1.975-1.67-3.575-3.73-3.575z" fill="#FF5C39"/>
        <path d="M49.597 50.276c-2.559 0-4.864-1.478-5.842-3.743-.978-2.265-.435-4.871 1.376-6.602 1.81-1.732 4.532-2.247 6.894-1.306 2.362.942 3.899 3.154 3.893 5.606-.007 3.34-2.835 6.045-6.321 6.045zm0-9.62c-2.06 0-3.731 1.6-3.731 3.575 0 1.974 1.67 3.574 3.73 3.574 2.061 0 3.731-1.6 3.731-3.574 0-1.975-1.67-3.575-3.73-3.575z" fill="#FF5C39"/>
        <path d="M19.115 64.773c-2.558 0-4.864-1.477-5.842-3.742-.978-2.265-.434-4.871 1.376-6.602 1.81-1.732 4.532-2.247 6.894-1.306 2.362.942 3.899 3.154 3.894 5.606-.008 3.34-2.836 6.044-6.322 6.044zm0-9.62c-2.06 0-3.731 1.601-3.731 3.576 0 1.974 1.67 3.574 3.73 3.574 2.061 0 3.732-1.6 3.732-3.574 0-1.975-1.67-3.575-3.731-3.575z" fill="#FF5C39"/>
        <path d="M34.362 64.773c-2.558 0-4.864-1.477-5.842-3.742-.977-2.265-.434-4.871 1.377-6.602 1.81-1.732 4.532-2.247 6.893-1.306 2.362.942 3.9 3.154 3.894 5.606-.007 3.34-2.835 6.044-6.322 6.044zm0-9.62c-2.06 0-3.73 1.601-3.73 3.576 0 1.974 1.67 3.574 3.73 3.574s3.731-1.6 3.731-3.574c0-1.975-1.67-3.575-3.73-3.575z" fill="#FF5C39"/>
        <path d="M49.597 64.773c-2.559 0-4.864-1.477-5.842-3.742-.978-2.265-.435-4.871 1.376-6.602 1.81-1.732 4.532-2.247 6.894-1.306 2.362.942 3.899 3.154 3.893 5.606-.007 3.34-2.835 6.044-6.321 6.044zm0-9.62c-2.06 0-3.731 1.601-3.731 3.576 0 1.974 1.67 3.574 3.73 3.574 2.061 0 3.731-1.6 3.731-3.574 0-1.975-1.67-3.575-3.73-3.575z" fill="#FF5C39"/>
        <path d="M19.115 79.309c-2.558 0-4.864-1.477-5.842-3.743-.978-2.265-.434-4.87 1.376-6.602 1.81-1.732 4.532-2.247 6.894-1.305 2.362.941 3.899 3.154 3.894 5.605-.008 3.34-2.836 6.045-6.322 6.045zm0-9.62c-2.06 0-3.731 1.6-3.731 3.575 0 1.974 1.67 3.575 3.73 3.575 2.061 0 3.732-1.6 3.732-3.575a3.498 3.498 0 0 0-1.075-2.56 3.814 3.814 0 0 0-2.656-1.065v.05z" fill="#FF5C39"/>
        <path d="M34.362 79.309c-2.558 0-4.864-1.477-5.842-3.743-.977-2.265-.434-4.87 1.377-6.602 1.81-1.732 4.532-2.247 6.893-1.305 2.362.941 3.9 3.154 3.894 5.605-.007 3.34-2.835 6.045-6.322 6.045zm0-9.62c-2.06 0-3.73 1.6-3.73 3.575 0 1.974 1.67 3.575 3.73 3.575s3.731-1.6 3.731-3.575a3.498 3.498 0 0 0-1.074-2.56 3.814 3.814 0 0 0-2.657-1.065v.05z" fill="#FF5C39"/>
        <path d="M49.597 79.309c-2.559 0-4.864-1.477-5.842-3.743-.978-2.265-.435-4.87 1.376-6.602 1.81-1.732 4.532-2.247 6.894-1.305 2.362.941 3.899 3.154 3.893 5.605-.007 3.34-2.835 6.045-6.321 6.045zm0-9.62c-2.06 0-3.731 1.6-3.731 3.575 0 1.974 1.67 3.575 3.73 3.575 2.061 0 3.731-1.6 3.731-3.575a3.498 3.498 0 0 0-1.074-2.56 3.814 3.814 0 0 0-2.656-1.065v.05z" fill="#FF5C39"/>
    </g>
</svg>
