<svg width="89" height="89" viewBox="0 0 89 89" xmlns="http://www.w3.org/2000/svg">
    <title>
        Corefone_ManualWeb-2
    </title>
    <g transform="translate(1.022 1)" fill="none" fill-rule="evenodd">
        <ellipse stroke="#147EEC" stroke-width="2" cx="43.195" cy="43.31" rx="42.992" ry="42.978"/>
        <path d="M42.914 53.624L32.89 43.603a4.181 4.181 0 0 1 0-5.916l1.9-1.9a4.194 4.194 0 0 0 0-5.94l-1.722-1.722a5.932 5.932 0 0 0-8.379 0l-3.647 3.634a9.509 9.509 0 0 0 0 13.45l20.253 20.246c3.715 3.715 9.74 3.715 13.455 0l3.634-3.633a5.927 5.927 0 0 0 0-8.376l-1.721-1.722a4.197 4.197 0 0 0-5.944 0l-1.9 1.9a4.184 4.184 0 0 1-5.905 0z" stroke="#147EEC" stroke-width="2"/>
        <path d="M45.771 50.755l-10.024-9.957a4.181 4.181 0 0 1 0-5.916l1.9-1.9a4.194 4.194 0 0 0 0-5.94l-1.683-1.785a5.932 5.932 0 0 0-8.38 0L23.95 28.89a9.509 9.509 0 0 0 0 13.45L44.15 62.6a9.516 9.516 0 0 0 13.494 0l3.634-3.634a5.927 5.927 0 0 0 0-8.376l-1.721-1.722a4.197 4.197 0 0 0-5.943 0l-1.9 1.9a4.184 4.184 0 0 1-5.944-.013z" opacity=".15" style="mix-blend-mode:multiply" fill="#558CCE" fill-rule="nonzero"/>
        <path d="M60.527 24.479H48.373a1.518 1.518 0 0 0-1.071 2.55l3.315 3.315-7.397 7.394a2.154 2.154 0 0 0 0 3.06l2.462 2.55c.84.833 2.195.833 3.035 0l7.397-7.395 3.316 3.315a1.518 1.518 0 0 0 2.55-1.07V25.995c.002-.814-.64-1.483-1.453-1.517z" stroke="#147EEC" stroke-width="2"/>
    </g>
</svg>
