<svg width="68" height="56" viewBox="0 0 68 56" xmlns="http://www.w3.org/2000/svg">
    <title>
        icon
    </title>
    <g fill="#FFF" fill-rule="nonzero">
        <path d="M4 4v48h60V4H4zm0-4h60a4 4 0 0 1 4 4v48a4 4 0 0 1-4 4H4a4 4 0 0 1-4-4V4a4 4 0 0 1 4-4z"/>
        <path d="M18.5 24a7.5 7.5 0 1 1 0-15 7.5 7.5 0 0 1 0 15zm0-4a3.5 3.5 0 1 0 0-7 3.5 3.5 0 0 0 0 7z"/>
        <path d="M14.408 47.42a2 2 0 1 1-2.816-2.84l16.45-16.308 9.27 8.064a2 2 0 1 1-2.625 3.018l-6.468-5.626L14.41 47.42z"/>
        <path d="M29.414 47.414a2 2 0 1 1-2.828-2.828L52.908 18.26 67.32 30.905a2 2 0 0 1-2.638 3.007L53.087 23.739 29.414 47.414z"/>
    </g>
</svg>
