<?xml version="1.0" encoding="UTF-8"?><!DOCTYPE svg PUBLIC "-//W3C//DTD SVG 1.1//EN" "http://www.w3.org/Graphics/SVG/1.1/DTD/svg11.dtd"><svg xmlns="http://www.w3.org/2000/svg"><symbol id="icon-arrow-prev" viewBox="0 0 34 60">
    <title>
        Group 21 Copy 2
    </title>
    <g fill-rule="nonzero">
        <path d="M33.79 56.133L29.97 60 1.613 31.256l3.82-3.867z"/>
        <path d="M33.782 3.828L3.999 34 .362 30.316 30.145.144z"/>
    </g>
</symbol><symbol id="icon-arrow-right" viewBox="0 0 34 60">
    <title>
        Group 21 Copy
    </title>
    <g fill-rule="nonzero">
        <path d="M.21 3.867L4.03 0l28.357 28.744-3.82 3.867z"/>
        <path d="M.218 56.172L30.001 26l3.637 3.684L3.855 59.856z"/>
    </g>
</symbol><symbol id="icon-facebook" viewBox="0 0 10 19">
    <title>
        facebook
    </title>
    <path d="M9.766.157v2.946H8.014c-.64 0-1.071.134-1.295.402-.223.268-.335.67-.335 1.205v2.11h3.27l-.435 3.303H6.384v8.471H2.97v-8.47H.123V6.82H2.97V4.387c0-1.384.387-2.457 1.161-3.22C4.904.404 5.934.023 7.222.023c1.093 0 1.941.045 2.544.134z" fill-rule="evenodd"/>
</symbol><symbol id="icon-fb" viewBox="0 0 6 15">
    <title>
        Facebook
    </title>
    <path d="M5.766 7.506h-1.81V15H1.275V7.506H0V4.857h1.275V3.144C1.275 1.917 1.776 0 3.98 0l1.987.009v2.57H4.526c-.235 0-.569.137-.569.722v1.557H6l-.234 2.648z" fill-rule="nonzero"/>
</symbol><symbol id="icon-in" viewBox="0 0 16 15">
    <title>
        Group 23
    </title>
    <g fill-rule="evenodd">
        <path d="M16 9.253v5.704h-3.43V9.635c0-1.336-.495-2.249-1.737-2.249-.948 0-1.511.615-1.76 1.21-.09.212-.113.508-.113.806v5.555H5.53s.046-9.014 0-9.947h3.43v1.41c-.007.01-.016.021-.022.032h.022v-.033c.456-.676 1.27-1.643 3.091-1.643C14.308 4.776 16 6.198 16 9.253"/>
        <path d="M0 .214h3.858v3.438H0z"/>
        <path d="M1.94.214C.768.214 0 .957 0 1.933c0 .955.746 1.72 1.896 1.72h.022c1.197 0 1.94-.765 1.94-1.72C3.836.957 3.115.214 1.941.214"/>
        <path d="M.204 14.957h3.429V5.01H.204z"/>
    </g>
</symbol><symbol id="icon-tw" viewBox="0 0 19 15">
    <title>
        Twitter
    </title>
    <path d="M15.189 2.471l-.035-.024c-.707-.726-1.54-1.07-2.499-1.02l-.034-.075.023-.012c.867-.209 1.38-.43 1.54-.676.046-.197-.011-.307-.205-.332-.434.061-.844.16-1.198.32.456-.32.627-.541.525-.652-.445.012-.936.258-1.438.75.182-.344.262-.541.217-.566a3.388 3.388 0 0 0-.64.578c-.387.467-.695.898-.935 1.291l-.012.025C9.894 3.148 9.46 4.218 9.21 5.31l-.091.086-.023.013A4.95 4.95 0 0 0 7.76 4.168c-.616-.443-1.347-.848-2.191-1.254a17.618 17.618 0 0 0-2.785-1.266c-.011 1.143.514 2.04 1.53 2.704v.013c-.354 0-.708.061-1.05.172.068 1.057.764 1.783 2.077 2.176l-.012.025c-.513-.037-.936.16-1.267.565.434.91 1.199 1.34 2.306 1.316-.217.123-.388.246-.503.393a.877.877 0 0 0-.205.812c.24.467.662.676 1.29.639l.034.05-.012.024c-1.084 1.205-2.396 1.746-3.925 1.635l-.023.012c-.936-.012-1.94-.492-3.024-1.45a9.543 9.543 0 0 0 4.325 3.676c2.043.725 4.097.786 6.14.16h.033c1.986-.615 3.664-1.894 5.056-3.812.639-.996 1.038-1.955 1.198-2.877 1.038.037 1.78-.283 2.248-.971l-.011-.025c-.354.135-1.027.098-2.02-.123V6.64c1.095-.135 1.746-.516 1.951-1.143-.764.32-1.518.332-2.26.024-.136-1.106-.627-2.127-1.471-3.049" fill-rule="evenodd"/>
</symbol></svg>